<svg width="24" height="17" viewBox="0 0 24 17" fill="none" xmlns="http://www.w3.org/2000/svg">
<path opacity="0.9" d="M4.69069 8.74797C4.69069 6.32537 6.60963 3.53938 9.96777 1.96469C15.9645 -0.8213 19.3226 1.72243 20.1621 4.14503C21.0017 6.4465 19.4425 10.4438 16.5641 13.472C18.603 11.8974 20.1621 10.2015 21.3615 8.62684C22.9206 6.4465 23.5203 4.38729 22.9206 2.69147C22.0811 0.268871 18.8429 -0.457909 14.5252 0.268871C11.0504 0.723156 7.68123 1.78908 4.57076 3.41825C1.69235 4.99294 0.253151 6.93102 0.0132836 8.99023C-0.226584 12.1396 2.77176 16.258 9.84784 16.8637C13.5658 17.1059 17.0439 17.2271 24 15.4101C23.1605 15.4101 4.57076 17.8327 4.69069 8.74797ZM11.407 12.1396C12.5203 12.1396 13.588 11.693 14.3752 10.8979C15.1624 10.1028 15.6046 9.02446 15.6046 7.90006C15.6046 5.47746 13.6857 3.66051 11.407 3.66051C10.2937 3.66051 9.22599 4.10718 8.43877 4.90225C7.65155 5.69732 7.2093 6.77567 7.2093 7.90006C7.2093 10.3227 9.12824 12.1396 11.407 12.1396Z" fill="white"/>
</svg>
