<svg width="150" height="24" viewBox="0 0 150 24" fill="none" xmlns="http://www.w3.org/2000/svg">
<g clip-path="url(#clip0_4051_5966)">
<mask id="mask0_4051_5966" style="mask-type:luminance" maskUnits="userSpaceOnUse" x="0" y="0" width="150" height="24">
<path d="M150 0H0V23.6421H150V0Z" fill="white"/>
</mask>
<g mask="url(#mask0_4051_5966)">
<path d="M106.907 18.7681V4.87482C106.907 4.68643 107.072 4.5216 107.261 4.5216H110.016C110.11 4.5216 110.228 4.56869 110.275 4.63934L116.915 12.6692V4.85127C116.915 4.66289 117.08 4.49805 117.268 4.49805H120.424C120.612 4.49805 120.777 4.66289 120.777 4.85127V18.7445C120.777 18.9329 120.612 19.0977 120.424 19.0977H117.645C117.551 19.0977 117.433 19.0506 117.386 18.98L110.746 10.9502V18.7445C110.746 18.9329 110.581 19.0977 110.392 19.0977H107.237C107.072 19.1213 106.907 18.9564 106.907 18.7681Z" fill="white"/>
<path d="M123.791 18.768V4.8747C123.791 4.68632 123.956 4.52148 124.144 4.52148H134.835C135.024 4.52148 135.188 4.68632 135.188 4.8747V7.25304C135.188 7.44142 135.024 7.60626 134.835 7.60626H127.677V10.2907H133.94C134.129 10.2907 134.294 10.4556 134.294 10.6439V12.8103C134.294 12.9987 134.129 13.1636 133.94 13.1636H127.677V16.0364H135.118C135.306 16.0364 135.471 16.2012 135.471 16.3896V18.768C135.471 18.9563 135.306 19.1212 135.118 19.1212H124.144C123.933 19.1212 123.791 18.9563 123.791 18.768Z" fill="white"/>
<path d="M141.523 18.7681V7.60637H137.308C137.119 7.60637 136.954 7.44153 136.954 7.25315V4.85127C136.954 4.66289 137.119 4.49805 137.308 4.49805H149.647C149.835 4.49805 150 4.66289 150 4.85127V7.2296C150 7.41799 149.835 7.58282 149.647 7.58282H145.455V18.7445C145.455 18.9329 145.29 19.0977 145.102 19.0977H141.852C141.664 19.1213 141.523 18.9564 141.523 18.7681Z" fill="white"/>
<path d="M17.873 17.2136C21.1372 17.2136 23.7835 14.5674 23.7835 11.3031C23.7835 8.03881 21.1372 5.39258 17.873 5.39258C14.6087 5.39258 11.9624 8.03881 11.9624 11.3031C11.9624 14.5674 14.6087 17.2136 17.873 17.2136Z" fill="white"/>
<path fill-rule="evenodd" clip-rule="evenodd" d="M27.245 15.9421C27.1037 16.0363 26.9154 15.8479 27.0331 15.7066C30.0001 12.2451 31.0127 8.12419 29.2466 5.06297C27.0802 1.29531 21.3581 0.518223 15.8714 2.54334C9.98439 4.70975 6.14608 9.1603 6.92316 13.658C8.47732 22.8887 26.8447 22.0881 33.2262 21.5701C33.4146 21.5465 33.4617 21.8291 33.2733 21.8762C16.8604 25.6203 2.37842 23.3597 0.235566 15.0944C-1.8131 7.15873 10.0551 2.5198 15.4004 1.13047C22.7238 -0.77691 32.0959 -0.729815 34.0033 4.61556C35.2513 8.0771 32.4256 12.4806 27.245 15.9421Z" fill="white"/>
<path d="M38.7364 18.6267L44.8824 4.73342C44.9295 4.61568 45.0708 4.52148 45.2121 4.52148H48.7207C48.862 4.52148 48.9797 4.59213 49.0504 4.73342L55.1964 18.6267C55.2906 18.8622 55.1257 19.1212 54.8667 19.1212H51.57C51.4287 19.1212 51.2874 19.027 51.2403 18.9093L50.1807 16.2954H43.6815L42.6218 18.8857C42.5747 19.027 42.4334 19.0976 42.2921 19.0976H39.0425C38.807 19.1212 38.6422 18.8622 38.7364 18.6267ZM49.0504 13.399L46.9546 8.14786L44.8589 13.399H49.0504Z" fill="white"/>
<path d="M56.7739 18.768V4.8747C56.7739 4.68632 56.9387 4.52148 57.1271 4.52148H59.8351C59.9529 4.52148 60.0706 4.59213 60.1412 4.68632L65.2747 13.2342L70.4081 4.68632C70.4788 4.59213 70.5965 4.52148 70.7142 4.52148H73.4222C73.6106 4.52148 73.7755 4.68632 73.7755 4.8747V18.768C73.7755 18.9563 73.6106 19.1212 73.4222 19.1212H70.5023C70.3139 19.1212 70.1491 18.9563 70.1491 18.768V10.8794L66.2166 17.4728C66.1459 17.567 66.0282 17.6377 65.9105 17.6377H64.5918C64.474 17.6377 64.3563 17.567 64.2857 17.4728L60.3767 11.1149V18.768C60.3767 18.9563 60.2119 19.1212 60.0235 19.1212H57.1036C56.9152 19.1212 56.7739 18.9563 56.7739 18.768Z" fill="white"/>
<path d="M83.5951 19.4039C81.4287 19.4039 79.7332 18.8152 78.5323 17.6378C77.3314 16.4604 76.7427 14.812 76.7427 12.6221V4.85127C76.7427 4.66289 76.9075 4.49805 77.0959 4.49805H80.3455C80.5339 4.49805 80.6987 4.66289 80.6987 4.85127V12.4808C80.6987 14.9769 81.6406 16.1778 83.5951 16.1778C85.5731 16.1778 86.5621 14.9298 86.5621 12.4808V4.85127C86.5621 4.66289 86.727 4.49805 86.9153 4.49805H90.0943C90.2827 4.49805 90.4475 4.66289 90.4475 4.85127V12.5985C90.4475 14.7649 89.8353 16.4368 88.6343 17.6142C87.4569 18.8152 85.7379 19.4039 83.5951 19.4039Z" fill="white"/>
<path d="M98.4772 19.4039C97.2998 19.4039 96.1224 19.2626 95.0156 18.9564C94.0737 18.721 93.2731 18.3913 92.6373 18.0145C92.496 17.9203 92.4254 17.732 92.496 17.5671L93.5086 15.3065C93.5321 15.2594 93.5792 15.1652 93.7205 15.1417C93.8618 15.0946 93.956 15.1652 93.9795 15.1652C94.5211 15.4949 95.1569 15.7539 95.8869 15.9894C96.7817 16.272 97.653 16.3897 98.5243 16.3897C100.22 16.3897 101.068 15.9423 101.068 15.0475C101.068 14.7178 100.926 14.2704 100.29 13.9878C99.8194 13.7759 99.0659 13.564 98.0533 13.3285C96.9465 13.093 96.0046 12.834 95.2747 12.5514C94.5447 12.2924 93.9089 11.845 93.3908 11.2563C92.8728 10.6676 92.6137 9.86693 92.6137 8.87792C92.6137 8.00665 92.8492 7.20602 93.3437 6.49958C93.8147 5.79314 94.5447 5.228 95.5101 4.82768C96.4756 4.40382 97.6765 4.19189 99.0659 4.19189C100.031 4.19189 100.997 4.30963 101.915 4.52156C102.692 4.70994 103.399 4.94542 104.011 5.27509C104.176 5.36928 104.246 5.55767 104.176 5.7225L103.21 8.00665C103.187 8.05374 103.14 8.14793 102.998 8.19503C102.881 8.21858 102.787 8.17148 102.763 8.17148C101.491 7.53569 100.243 7.22957 99.0188 7.22957C98.1475 7.22957 97.5352 7.3473 97.1114 7.62988C96.6875 7.91245 96.4756 8.26567 96.4756 8.71308C96.4756 9.0192 96.6169 9.44307 97.2291 9.72564C97.6765 9.93757 98.4301 10.126 99.4426 10.3379C100.573 10.5734 101.515 10.8324 102.245 11.115C102.975 11.374 103.587 11.8214 104.129 12.3866C104.647 12.9517 104.906 13.7524 104.906 14.7414C104.906 15.6127 104.67 16.3897 104.176 17.0962C103.705 17.8026 102.975 18.3678 102.009 18.7916C101.068 19.1919 99.8665 19.4039 98.4772 19.4039Z" fill="white"/>
</g>
</g>
<defs>
<clipPath id="clip0_4051_5966">
<rect width="150" height="24" fill="white"/>
</clipPath>
</defs>
</svg>
