<svg width="54" height="19" viewBox="0 0 54 19" fill="none" xmlns="http://www.w3.org/2000/svg">
<path d="M15.056 10.7116L4.17319 13.6277C3.34586 13.8493 2.85363 14.7017 3.07532 15.5291C3.29702 16.3565 4.14943 16.8487 4.97686 16.627L15.8596 13.711C16.687 13.4893 17.1793 12.6368 16.9576 11.8093C16.7359 10.9819 15.8833 10.49 15.056 10.7116Z" fill="#BB10FF" stroke="black"/>
<path d="M14.6984 10.2483L14.6982 10.2481C14.4092 9.96943 14.2029 9.61977 14.1005 9.23771L13.5028 7.0071C12.9042 4.77308 10.8871 3.25487 8.63574 3.23521C8.63038 3.12609 8.61336 3.01684 8.58448 2.90906C8.36276 2.08159 7.51013 1.58971 6.68283 1.81138C5.85558 2.03304 5.36339 2.8854 5.58508 3.71275C5.62184 3.84994 5.67709 3.97961 5.74819 4.09901C3.96093 5.29355 3.09515 7.51112 3.66633 9.6428L4.26402 11.8734C4.36636 12.2553 4.36254 12.6613 4.2516 13.0474C4.2516 13.0474 4.2516 13.0474 4.25159 13.0474L4.22884 13.1266L3.98458 13.9766L4.8388 13.7477L14.5399 11.1483L15.3939 10.9194L14.7577 10.3055L14.6984 10.2483Z" fill="#BB10FF" stroke="black"/>
<path d="M12.2632 15.2001L12.2582 15.1453L12.204 14.5544L11.6308 14.708L8.84569 15.4543L8.27254 15.6079L8.52107 16.1467L8.5441 16.1966C8.54412 16.1966 8.54414 16.1967 8.54415 16.1967C8.54418 16.1968 8.5442 16.1968 8.54423 16.1969C8.94317 17.0628 9.90271 17.5132 10.8236 17.2664C11.7447 17.0196 12.3508 16.1497 12.2632 15.2001Z" fill="#BB10FF" stroke="black"/>
<mask id="path-4-outside-1_1137_1429" maskUnits="userSpaceOnUse" x="19.2986" y="3.5" width="34" height="12" fill="black">
<rect fill="white" x="19.2986" y="3.5" width="34" height="12"/>
<path d="M24.4596 14.5L22.1196 7.246H22.0676C22.0849 7.41933 22.0979 7.649 22.1066 7.935C22.1239 8.221 22.1369 8.533 22.1456 8.871C22.1629 9.20033 22.1716 9.52533 22.1716 9.846V14.5H20.4036V5.218H23.1076L25.4086 12.199H25.4606L27.7616 5.218H30.4656V14.5H28.6066V9.794C28.6066 9.49067 28.6109 9.183 28.6196 8.871C28.6283 8.55033 28.6413 8.247 28.6586 7.961C28.6759 7.675 28.6889 7.441 28.6976 7.259H28.6456L26.2926 14.5H24.4596ZM36.307 14.5H32.043V13.369L33.174 12.992V6.713L32.043 6.349V5.218H36.307V6.349L35.176 6.713V12.992L36.307 13.369V14.5ZM46.1527 14.5H43.6177L39.6137 7.506H39.5617C39.5791 7.70533 39.5921 7.94367 39.6007 8.221C39.6181 8.49833 39.6311 8.78433 39.6397 9.079C39.6571 9.37367 39.6657 9.65533 39.6657 9.924V14.5H37.8977V5.218H40.4197L44.4107 12.147H44.4627C44.4541 11.9737 44.4411 11.7527 44.4237 11.484C44.4064 11.2067 44.3934 10.9207 44.3847 10.626C44.3761 10.3227 44.3717 10.054 44.3717 9.82V5.218H46.1527V14.5ZM51.9857 14.5H47.7217V13.369L48.8527 12.992V6.713L47.7217 6.349V5.218H51.9857V6.349L50.8547 6.713V12.992L51.9857 13.369V14.5Z"/>
</mask>
<path d="M24.4596 14.5L22.1196 7.246H22.0676C22.0849 7.41933 22.0979 7.649 22.1066 7.935C22.1239 8.221 22.1369 8.533 22.1456 8.871C22.1629 9.20033 22.1716 9.52533 22.1716 9.846V14.5H20.4036V5.218H23.1076L25.4086 12.199H25.4606L27.7616 5.218H30.4656V14.5H28.6066V9.794C28.6066 9.49067 28.6109 9.183 28.6196 8.871C28.6283 8.55033 28.6413 8.247 28.6586 7.961C28.6759 7.675 28.6889 7.441 28.6976 7.259H28.6456L26.2926 14.5H24.4596ZM36.307 14.5H32.043V13.369L33.174 12.992V6.713L32.043 6.349V5.218H36.307V6.349L35.176 6.713V12.992L36.307 13.369V14.5ZM46.1527 14.5H43.6177L39.6137 7.506H39.5617C39.5791 7.70533 39.5921 7.94367 39.6007 8.221C39.6181 8.49833 39.6311 8.78433 39.6397 9.079C39.6571 9.37367 39.6657 9.65533 39.6657 9.924V14.5H37.8977V5.218H40.4197L44.4107 12.147H44.4627C44.4541 11.9737 44.4411 11.7527 44.4237 11.484C44.4064 11.2067 44.3934 10.9207 44.3847 10.626C44.3761 10.3227 44.3717 10.054 44.3717 9.82V5.218H46.1527V14.5ZM51.9857 14.5H47.7217V13.369L48.8527 12.992V6.713L47.7217 6.349V5.218H51.9857V6.349L50.8547 6.713V12.992L51.9857 13.369V14.5Z" fill="#BB10FF"/>
<path d="M24.4596 14.5L23.5079 14.807L23.7314 15.5H24.4596V14.5ZM22.1196 7.246L23.0713 6.939L22.8477 6.246H22.1196V7.246ZM22.0676 7.246V6.246H20.9626L21.0725 7.3455L22.0676 7.246ZM22.1066 7.935L21.107 7.96529L21.1075 7.9804L21.1084 7.9955L22.1066 7.935ZM22.1456 8.871L21.1459 8.89663L21.1463 8.9101L21.147 8.92356L22.1456 8.871ZM22.1716 14.5V15.5H23.1716V14.5H22.1716ZM20.4036 14.5H19.4036V15.5H20.4036V14.5ZM20.4036 5.218V4.218H19.4036V5.218H20.4036ZM23.1076 5.218L24.0573 4.90496L23.8309 4.218H23.1076V5.218ZM25.4086 12.199L24.4588 12.512L24.6853 13.199H25.4086V12.199ZM25.4606 12.199V13.199H26.1839L26.4103 12.512L25.4606 12.199ZM27.7616 5.218V4.218H27.0383L26.8118 4.90496L27.7616 5.218ZM30.4656 5.218H31.4656V4.218H30.4656V5.218ZM30.4656 14.5V15.5H31.4656V14.5H30.4656ZM28.6066 14.5H27.6066V15.5H28.6066V14.5ZM28.6196 8.871L29.6192 8.89877L29.6192 8.89802L28.6196 8.871ZM28.6586 7.961L27.6604 7.9005L27.6604 7.90051L28.6586 7.961ZM28.6976 7.259L29.6965 7.30656L29.7463 6.259H28.6976V7.259ZM28.6456 7.259V6.259H27.9191L27.6945 6.94995L28.6456 7.259ZM26.2926 14.5V15.5H27.0191L27.2436 14.809L26.2926 14.5ZM25.4113 14.193L23.0713 6.939L21.1679 7.553L23.5079 14.807L25.4113 14.193ZM22.1196 6.246H22.0676V8.246H22.1196V6.246ZM21.0725 7.3455C21.0866 7.48598 21.0987 7.68979 21.107 7.96529L23.1061 7.90471C23.0971 7.60821 23.0832 7.35268 23.0626 7.1465L21.0725 7.3455ZM21.1084 7.9955C21.1249 8.26804 21.1375 8.56826 21.1459 8.89663L23.1453 8.84537C23.1363 8.49774 23.1229 8.17395 23.1048 7.8745L21.1084 7.9955ZM21.147 8.92356C21.1634 9.23588 21.1716 9.54335 21.1716 9.846H23.1716C23.1716 9.50732 23.1624 9.16478 23.1442 8.81844L21.147 8.92356ZM21.1716 9.846V14.5H23.1716V9.846H21.1716ZM22.1716 13.5H20.4036V15.5H22.1716V13.5ZM21.4036 14.5V5.218H19.4036V14.5H21.4036ZM20.4036 6.218H23.1076V4.218H20.4036V6.218ZM22.1578 5.53104L24.4588 12.512L26.3583 11.886L24.0573 4.90496L22.1578 5.53104ZM25.4086 13.199H25.4606V11.199H25.4086V13.199ZM26.4103 12.512L28.7113 5.53104L26.8118 4.90496L24.5108 11.886L26.4103 12.512ZM27.7616 6.218H30.4656V4.218H27.7616V6.218ZM29.4656 5.218V14.5H31.4656V5.218H29.4656ZM30.4656 13.5H28.6066V15.5H30.4656V13.5ZM29.6066 14.5V9.794H27.6066V14.5H29.6066ZM29.6066 9.794C29.6066 9.50019 29.6108 9.20178 29.6192 8.89877L27.62 8.84323C27.6111 9.16422 27.6066 9.48115 27.6066 9.794H29.6066ZM29.6192 8.89802C29.6276 8.58722 29.6402 8.29512 29.6568 8.02149L27.6604 7.90051C27.6423 8.19888 27.6289 8.51344 27.6199 8.84398L29.6192 8.89802ZM29.6568 8.0215C29.6742 7.73332 29.6875 7.49458 29.6965 7.30656L27.6987 7.21143C27.6903 7.38742 27.6776 7.61668 27.6604 7.9005L29.6568 8.0215ZM28.6976 6.259H28.6456V8.259H28.6976V6.259ZM27.6945 6.94995L25.3415 14.191L27.2436 14.809L29.5966 7.56805L27.6945 6.94995ZM26.2926 13.5H24.4596V15.5H26.2926V13.5ZM36.307 14.5V15.5H37.307V14.5H36.307ZM32.043 14.5H31.043V15.5H32.043V14.5ZM32.043 13.369L31.7267 12.4203L31.043 12.6482V13.369H32.043ZM33.174 12.992L33.4902 13.9407L34.174 13.7128V12.992H33.174ZM33.174 6.713H34.174V5.98432L33.4803 5.76108L33.174 6.713ZM32.043 6.349H31.043V7.07767L31.7366 7.30091L32.043 6.349ZM32.043 5.218V4.218H31.043V5.218H32.043ZM36.307 5.218H37.307V4.218H36.307V5.218ZM36.307 6.349L36.6133 7.30091L37.307 7.07767V6.349H36.307ZM35.176 6.713L34.8696 5.76108L34.176 5.98432V6.713H35.176ZM35.176 12.992H34.176V13.7128L34.8597 13.9407L35.176 12.992ZM36.307 13.369H37.307V12.6482L36.6232 12.4203L36.307 13.369ZM36.307 13.5H32.043V15.5H36.307V13.5ZM33.043 14.5V13.369H31.043V14.5H33.043ZM32.3592 14.3177L33.4902 13.9407L32.8577 12.0433L31.7267 12.4203L32.3592 14.3177ZM34.174 12.992V6.713H32.174V12.992H34.174ZM33.4803 5.76108L32.3493 5.39708L31.7366 7.30091L32.8676 7.66491L33.4803 5.76108ZM33.043 6.349V5.218H31.043V6.349H33.043ZM32.043 6.218H36.307V4.218H32.043V6.218ZM35.307 5.218V6.349H37.307V5.218H35.307ZM36.0006 5.39708L34.8696 5.76108L35.4823 7.66491L36.6133 7.30091L36.0006 5.39708ZM34.176 6.713V12.992H36.176V6.713H34.176ZM34.8597 13.9407L35.9907 14.3177L36.6232 12.4203L35.4922 12.0433L34.8597 13.9407ZM35.307 13.369V14.5H37.307V13.369H35.307ZM46.1527 14.5V15.5H47.1527V14.5H46.1527ZM43.6177 14.5L42.7499 14.9968L43.0379 15.5H43.6177V14.5ZM39.6137 7.506L40.4816 7.00917L40.1935 6.506H39.6137V7.506ZM39.5617 7.506V6.506H38.471L38.5655 7.59263L39.5617 7.506ZM39.6007 8.221L38.6012 8.25223L38.6017 8.26782L38.6027 8.28338L39.6007 8.221ZM39.6397 9.079L38.6402 9.1084L38.6406 9.12307L38.6415 9.13772L39.6397 9.079ZM39.6657 14.5V15.5H40.6657V14.5H39.6657ZM37.8977 14.5H36.8977V15.5H37.8977V14.5ZM37.8977 5.218V4.218H36.8977V5.218H37.8977ZM40.4197 5.218L41.2863 4.71889L40.9978 4.218H40.4197V5.218ZM44.4107 12.147L43.5442 12.6461L43.8327 13.147H44.4107V12.147ZM44.4627 12.147V13.147H45.514L45.4615 12.0971L44.4627 12.147ZM44.4237 11.484L43.4257 11.5464L43.4258 11.5484L44.4237 11.484ZM44.3847 10.626L43.3851 10.6546L43.3852 10.6554L44.3847 10.626ZM44.3717 5.218V4.218H43.3717V5.218H44.3717ZM46.1527 5.218H47.1527V4.218H46.1527V5.218ZM46.1527 13.5H43.6177V15.5H46.1527V13.5ZM44.4856 14.0032L40.4816 7.00917L38.7459 8.00283L42.7499 14.9968L44.4856 14.0032ZM39.6137 6.506H39.5617V8.506H39.6137V6.506ZM38.5655 7.59263C38.5807 7.76804 38.5929 7.98691 38.6012 8.25223L40.6002 8.18977C40.5912 7.90042 40.5774 7.64263 40.558 7.41937L38.5655 7.59263ZM38.6027 8.28338C38.6193 8.54909 38.6318 8.82407 38.6402 9.1084L40.6393 9.0496C40.6303 8.74459 40.6168 8.44758 40.5988 8.15862L38.6027 8.28338ZM38.6415 9.13772C38.6577 9.41472 38.6657 9.67672 38.6657 9.924H40.6657C40.6657 9.63395 40.6564 9.33261 40.638 9.02028L38.6415 9.13772ZM38.6657 9.924V14.5H40.6657V9.924H38.6657ZM39.6657 13.5H37.8977V15.5H39.6657V13.5ZM38.8977 14.5V5.218H36.8977V14.5H38.8977ZM37.8977 6.218H40.4197V4.218H37.8977V6.218ZM39.5532 5.71711L43.5442 12.6461L45.2773 11.6479L41.2863 4.71889L39.5532 5.71711ZM44.4107 13.147H44.4627V11.147H44.4107V13.147ZM45.4615 12.0971C45.4525 11.9171 45.4391 11.6908 45.4217 11.4196L43.4258 11.5484C43.443 11.8145 43.4556 12.0303 43.464 12.1969L45.4615 12.0971ZM45.4218 11.4216C45.4052 11.1559 45.3927 10.8809 45.3843 10.5966L43.3852 10.6554C43.3941 10.9604 43.4076 11.2574 43.4257 11.5464L45.4218 11.4216ZM45.3843 10.5974C45.3758 10.301 45.3717 10.0422 45.3717 9.82H43.3717C43.3717 10.0658 43.3763 10.3443 43.3851 10.6546L45.3843 10.5974ZM45.3717 9.82V5.218H43.3717V9.82H45.3717ZM44.3717 6.218H46.1527V4.218H44.3717V6.218ZM45.1527 5.218V14.5H47.1527V5.218H45.1527ZM51.9857 14.5V15.5H52.9857V14.5H51.9857ZM47.7217 14.5H46.7217V15.5H47.7217V14.5ZM47.7217 13.369L47.4054 12.4203L46.7217 12.6482V13.369H47.7217ZM48.8527 12.992L49.1689 13.9407L49.8527 13.7128V12.992H48.8527ZM48.8527 6.713H49.8527V5.98432L49.159 5.76108L48.8527 6.713ZM47.7217 6.349H46.7217V7.07767L47.4153 7.30091L47.7217 6.349ZM47.7217 5.218V4.218H46.7217V5.218H47.7217ZM51.9857 5.218H52.9857V4.218H51.9857V5.218ZM51.9857 6.349L52.292 7.30091L52.9857 7.07767V6.349H51.9857ZM50.8547 6.713L50.5483 5.76108L49.8547 5.98432V6.713H50.8547ZM50.8547 12.992H49.8547V13.7128L50.5384 13.9407L50.8547 12.992ZM51.9857 13.369H52.9857V12.6482L52.3019 12.4203L51.9857 13.369ZM51.9857 13.5H47.7217V15.5H51.9857V13.5ZM48.7217 14.5V13.369H46.7217V14.5H48.7217ZM48.0379 14.3177L49.1689 13.9407L48.5364 12.0433L47.4054 12.4203L48.0379 14.3177ZM49.8527 12.992V6.713H47.8527V12.992H49.8527ZM49.159 5.76108L48.028 5.39708L47.4153 7.30091L48.5463 7.66491L49.159 5.76108ZM48.7217 6.349V5.218H46.7217V6.349H48.7217ZM47.7217 6.218H51.9857V4.218H47.7217V6.218ZM50.9857 5.218V6.349H52.9857V5.218H50.9857ZM51.6793 5.39708L50.5483 5.76108L51.161 7.66491L52.292 7.30091L51.6793 5.39708ZM49.8547 6.713V12.992H51.8547V6.713H49.8547ZM50.5384 13.9407L51.6694 14.3177L52.3019 12.4203L51.1709 12.0433L50.5384 13.9407ZM50.9857 13.369V14.5H52.9857V13.369H50.9857Z" fill="black" mask="url(#path-4-outside-1_1137_1429)"/>
</svg>
