<?xml version="1.0" encoding="UTF-8"?>
<svg id="Layer_2" data-name="Layer 2" xmlns="http://www.w3.org/2000/svg" viewBox="0 0 22 22.28">
  <defs>
    <style>
      .cls-1 {
        fill: none;
        stroke: #fc9502;
      }

      .cls-2 {
        fill: #ad070a;
      }
    </style>
  </defs>
  <g id="Layer_1-2" data-name="Layer 1">
    <g id="Vector">
      <path class="cls-2" d="M21,6.58c0,7.19-10,14.47-10,14.47,0,0-10-7.28-10-14.47C1,2.5,4.15,1,5.81,1c3.46,0,5.19,2.93,5.19,2.93,0,0,1.73-2.93,5.19-2.93,1.66,0,4.81,1.5,4.81,5.58Z"/>
      <path class="cls-1" d="M11,21.05l-.29,.4,.29,.21,.29-.21-.29-.4Zm0,0q.29,.4,.29,.4h0s0,0,0,0h0s.02-.02,.02-.02c.02-.01,.05-.04,.09-.06,.08-.06,.19-.14,.32-.25,.28-.22,.67-.53,1.15-.94,.95-.8,2.21-1.95,3.48-3.33,2.51-2.73,5.13-6.47,5.13-10.27,0-2.18-.85-3.71-1.95-4.69-1.08-.96-2.4-1.39-3.36-1.39h0c-1.88,0-3.29,.8-4.22,1.58-.42,.36-.75,.71-.98,.99-.23-.28-.56-.64-.98-.99-.93-.79-2.34-1.58-4.22-1.58-.95,0-2.27,.42-3.36,1.39-1.1,.98-1.95,2.51-1.95,4.69,0,3.8,2.62,7.54,5.13,10.27,1.27,1.38,2.53,2.53,3.48,3.33,.47,.4,.87,.72,1.15,.94,.14,.11,.25,.19,.32,.25,.04,.03,.07,.05,.09,.06l.02,.02h0s0,0,0,0h0s0,0,.29-.4Z"/>
    </g>
  </g>
</svg>