<svg width="115" height="24" viewBox="0 0 115 24" fill="none" xmlns="http://www.w3.org/2000/svg">
<path d="M14.4497 18.7409C10.9204 19.9217 7.23741 20.5628 3.52197 20.6433C5.09503 22.1423 7.03239 23.1903 9.13574 23.68C11.2484 24.1739 13.4519 24.0952 15.525 23.4519C17.5865 22.8147 19.4435 21.6318 20.9049 20.0248C22.351 18.4339 23.3424 16.473 23.7722 14.353C20.875 16.2374 17.7388 17.7136 14.4497 18.7409Z" fill="white"/>
<path d="M14.6179 14.4351L14.3041 15.1913H14.9314L14.6179 14.4351Z" fill="white"/>
<path d="M5.92137 14.3602H5.50317V15.5828H5.92137C6.09419 15.5916 6.26369 15.5325 6.39464 15.4177C6.5082 15.2978 6.57162 15.1379 6.57162 14.9715C6.57162 14.8052 6.5082 14.6453 6.39464 14.5253C6.26369 14.4106 6.09419 14.3514 5.92137 14.3602Z" fill="white"/>
<path d="M9.96798 5.06653C13.2496 3.97736 16.661 3.34227 20.1099 3.17844C18.5046 1.71391 16.5449 0.708022 14.4311 0.26355C12.3087 -0.18507 10.1074 -0.0593031 8.04801 0.628226C6.00111 1.30933 4.1702 2.5319 2.74395 4.16996C1.33268 5.79108 0.383977 7.77212 0 9.89975C3.06576 7.79194 6.42581 6.16274 9.96798 5.06653Z" fill="white"/>
<path d="M16.6477 16.8626C19.1855 16.0632 21.6196 14.9578 23.8978 13.57C24.1322 11.79 23.9623 9.9793 23.401 8.27627C22.8353 6.56276 21.8948 5.00135 20.65 3.70898C17.9983 3.91422 15.3802 4.43902 12.8508 5.2723C10.5871 5.99084 8.40341 6.94706 6.33524 8.12544H8.75706V9.03251H6.17335V10.0925H8.45728V10.971H6.17335V12.0957H8.84856V13.0019H5.03925V8.92243C1.64192 11.1748 -0.23541 13.7107 0.412173 15.6883C1.45973 18.8901 8.7289 19.4157 16.6477 16.8626ZM11.3652 15.958H10.9068V13.9867H11.3652V15.958ZM13.4769 14.3586H12.8438V15.958H12.3883V14.3586H11.7503V13.9867H13.4748L13.4769 14.3586ZM17.5239 15.958H16.0747V13.9867H16.533V15.5862H17.5268L17.5239 15.958ZM14.4847 8.1204H18.7722V9.04133H17.1988V12.9986H16.061V9.04091H14.4876L14.4847 8.1204ZM14.8404 13.9867L15.7256 15.958H15.2445L15.0702 15.5353H14.1501L13.9758 15.958H13.5071L14.389 13.9867H14.8404ZM9.59179 9.25896C9.82551 8.87411 10.1601 8.56281 10.5582 8.35987C10.9901 8.13875 11.4686 8.02744 11.9523 8.03553C12.3537 8.02979 12.7523 8.10313 13.1262 8.25148C13.466 8.38683 13.7693 8.60193 14.0114 8.87916L13.2806 9.54885C13.1191 9.37232 12.9227 9.23231 12.7043 9.13796C12.4845 9.04289 12.2476 8.99524 12.0086 8.99806C11.7186 8.99243 11.4317 9.05923 11.1731 9.19258C10.935 9.31724 10.7372 9.50872 10.6033 9.74422C10.4701 9.99364 10.4003 10.2729 10.4003 10.5565C10.4003 10.8402 10.4701 11.1195 10.6033 11.3689C10.7373 11.6038 10.9335 11.7958 11.1698 11.923C11.424 12.0587 11.7078 12.1271 11.995 12.1218C12.3026 12.1263 12.6065 12.0542 12.8802 11.9117V10.4832H13.9207V12.4633C13.6404 12.6701 13.3267 12.8258 12.9937 12.9234C12.6496 13.0294 12.292 13.0836 11.9325 13.0843C11.454 13.092 10.9811 12.9806 10.5549 12.7599C10.1593 12.5554 9.82709 12.2438 9.59511 11.8596C9.36745 11.4652 9.24745 11.0164 9.24745 10.5593C9.24745 10.1022 9.36745 9.65337 9.59511 9.25896H9.59179ZM8.60096 14.4468C8.69462 14.2911 8.82929 14.1651 8.98976 14.0829C9.16332 13.994 9.35556 13.9492 9.54998 13.9523C9.71148 13.95 9.8719 13.9794 10.0224 14.0388C10.159 14.0934 10.2811 14.1798 10.3789 14.2909L10.0845 14.5615C10.0194 14.4907 9.9402 14.4348 9.85224 14.3972C9.76369 14.3595 9.66836 14.3409 9.57233 14.3426C9.45553 14.3406 9.34005 14.3679 9.23612 14.422C9.13982 14.4716 9.06004 14.5489 9.00673 14.6442C8.95295 14.745 8.92479 14.8578 8.92479 14.9724C8.92479 15.087 8.95295 15.1997 9.00673 15.3005C9.06021 15.3954 9.139 15.473 9.23405 15.5244C9.33599 15.5792 9.44997 15.6068 9.5653 15.6047C9.68933 15.606 9.81178 15.5763 9.9218 15.5181V14.9421H10.34V15.7404C10.2272 15.8236 10.1012 15.8864 9.96734 15.9261C9.82895 15.9688 9.68511 15.9906 9.54045 15.9908C9.34792 15.9936 9.15762 15.9488 8.98603 15.8601C8.82693 15.7771 8.69341 15.6512 8.60013 15.4963C8.50817 15.337 8.45969 15.1557 8.45969 14.9711C8.45969 14.7865 8.50817 14.6052 8.60013 14.4459L8.60096 14.4468ZM7.51696 13.9846H7.97242V15.9559H7.51696V13.9846ZM6.89298 15.4896C6.80023 15.6398 6.66685 15.7598 6.50873 15.8353C6.33059 15.92 6.13566 15.9619 5.93899 15.958H5.04049V13.9867H5.93982C6.13649 13.9828 6.33142 14.0248 6.50956 14.1094C6.66768 14.1849 6.80106 14.3049 6.89381 14.4552C6.98381 14.6129 7.03121 14.7918 7.03121 14.974C7.03121 15.1563 6.98381 15.3352 6.89381 15.4929L6.89298 15.4896Z" fill="white"/>
<path d="M35.984 18H29.36V6.576H35.984V8.576H31.808V11.072H35.712V13.072H31.808V15.968H35.984V18ZM42.9241 11.568H47.4681V17.504C46.8708 17.7067 46.2148 17.8667 45.5001 17.984C44.7961 18.1013 44.0335 18.16 43.2121 18.16C42.0815 18.16 41.1055 17.936 40.2841 17.488C39.4628 17.04 38.8281 16.3787 38.3801 15.504C37.9321 14.6293 37.7081 13.552 37.7081 12.272C37.7081 11.0773 37.9375 10.0427 38.3961 9.168C38.8655 8.29333 39.5428 7.616 40.4281 7.136C41.3135 6.656 42.3961 6.416 43.6761 6.416C44.3588 6.416 45.0041 6.48 45.6121 6.608C46.2308 6.736 46.7801 6.90667 47.2601 7.12L46.4441 9.072C46.0388 8.88 45.6015 8.73067 45.1321 8.624C44.6628 8.50667 44.1721 8.448 43.6601 8.448C42.8815 8.448 42.2361 8.61867 41.7241 8.96C41.2228 9.29067 40.8495 9.74933 40.6041 10.336C40.3588 10.912 40.2361 11.5733 40.2361 12.32C40.2361 13.0987 40.3535 13.776 40.5881 14.352C40.8335 14.9173 41.1961 15.3547 41.6761 15.664C42.1561 15.9733 42.7641 16.128 43.5001 16.128C43.7988 16.128 44.0975 16.112 44.3961 16.08C44.6948 16.0373 44.9401 15.9893 45.1321 15.936V13.52H42.9241V11.568ZM54.4338 18H51.9858V8.608H48.8978V6.576H57.5218V8.608H54.4338V18ZM72.8324 12.096C72.8324 13.408 72.587 14.5013 72.0964 15.376C71.6057 16.2507 70.9124 16.9067 70.0164 17.344C69.131 17.7813 68.0697 18 66.8324 18H63.3444V6.576H67.1204C68.3257 6.576 69.3497 6.78933 70.1924 7.216C71.0457 7.632 71.6964 8.25067 72.1444 9.072C72.603 9.89333 72.8324 10.9013 72.8324 12.096ZM70.2724 12.192C70.2724 11.3707 70.1497 10.6933 69.9044 10.16C69.6697 9.62667 69.3124 9.232 68.8324 8.976C68.3524 8.70933 67.7604 8.576 67.0564 8.576H65.7924V15.984H66.8164C67.9897 15.984 68.859 15.6693 69.4244 15.04C69.9897 14.4107 70.2724 13.4613 70.2724 12.192ZM77.3031 9.264V18H74.8871V9.264H77.3031ZM76.1031 5.824C76.4551 5.824 76.7591 5.90933 77.0151 6.08C77.2818 6.24 77.4151 6.54933 77.4151 7.008C77.4151 7.44533 77.2818 7.74933 77.0151 7.92C76.7591 8.09067 76.4551 8.176 76.1031 8.176C75.7405 8.176 75.4311 8.09067 75.1751 7.92C74.9191 7.74933 74.7911 7.44533 74.7911 7.008C74.7911 6.54933 74.9191 6.24 75.1751 6.08C75.4311 5.90933 75.7405 5.824 76.1031 5.824ZM82.5644 9.104C83.1724 9.104 83.679 9.22133 84.0844 9.456C84.4897 9.68 84.8257 9.984 85.0924 10.368H85.1724L85.3804 9.264H87.4284V18.064C87.4284 18.8853 87.2684 19.5733 86.9484 20.128C86.6284 20.6933 86.143 21.12 85.4924 21.408C84.8524 21.696 84.0364 21.84 83.0444 21.84C82.3724 21.84 81.7697 21.7973 81.2364 21.712C80.703 21.6373 80.2017 21.504 79.7324 21.312V19.264C80.2124 19.4773 80.703 19.6427 81.2044 19.76C81.7164 19.8773 82.303 19.936 82.9644 19.936C83.6364 19.936 84.143 19.7813 84.4844 19.472C84.8364 19.1627 85.0124 18.736 85.0124 18.192V17.952C85.0124 17.824 85.0177 17.6533 85.0284 17.44C85.0497 17.2267 85.071 17.04 85.0924 16.88H85.0124C84.767 17.264 84.4417 17.5733 84.0364 17.808C83.6417 18.0427 83.1457 18.16 82.5484 18.16C81.5457 18.16 80.7404 17.7707 80.1324 16.992C79.535 16.2133 79.2364 15.0987 79.2364 13.648C79.2364 12.1973 79.5404 11.0773 80.1484 10.288C80.7564 9.49867 81.5617 9.104 82.5644 9.104ZM83.3484 11.008C82.9964 11.008 82.6924 11.1093 82.4364 11.312C82.191 11.5147 82.0044 11.8133 81.8764 12.208C81.759 12.6027 81.7004 13.0933 81.7004 13.68C81.7004 14.5547 81.839 15.2053 82.1164 15.632C82.4044 16.0587 82.831 16.272 83.3964 16.272C83.7164 16.272 83.9884 16.224 84.2124 16.128C84.4364 16.032 84.6177 15.8933 84.7564 15.712C84.895 15.52 84.9964 15.28 85.0604 14.992C85.135 14.704 85.1724 14.3627 85.1724 13.968V13.616C85.1724 13.0293 85.1137 12.544 84.9964 12.16C84.879 11.776 84.687 11.488 84.4204 11.296C84.1537 11.104 83.7964 11.008 83.3484 11.008ZM92.1938 9.264V18H89.7778V9.264H92.1938ZM90.9938 5.824C91.3458 5.824 91.6498 5.90933 91.9058 6.08C92.1724 6.24 92.3058 6.54933 92.3058 7.008C92.3058 7.44533 92.1724 7.74933 91.9058 7.92C91.6498 8.09067 91.3458 8.176 90.9938 8.176C90.6311 8.176 90.3218 8.09067 90.0658 7.92C89.8098 7.74933 89.6818 7.44533 89.6818 7.008C89.6818 6.54933 89.8098 6.24 90.0658 6.08C90.3218 5.90933 90.6311 5.824 90.9938 5.824ZM98.319 16.24C98.5643 16.24 98.799 16.2133 99.023 16.16C99.2577 16.1067 99.4763 16.048 99.679 15.984V17.76C99.423 17.8773 99.1243 17.9733 98.783 18.048C98.4523 18.1227 98.0577 18.16 97.599 18.16C97.0763 18.16 96.607 18.0747 96.191 17.904C95.7857 17.7333 95.4603 17.44 95.215 17.024C94.9803 16.5973 94.863 16.0053 94.863 15.248V11.072H93.727V10.048L95.039 9.248L95.743 7.408H97.279V9.264H99.567V11.072H97.279V15.104C97.279 15.488 97.3697 15.776 97.551 15.968C97.743 16.1493 97.999 16.24 98.319 16.24ZM105.181 9.104C106.28 9.104 107.117 9.36533 107.693 9.888C108.269 10.4 108.557 11.1627 108.557 12.176V18H106.877L106.413 16.816H106.349C106.104 17.1253 105.848 17.3813 105.581 17.584C105.325 17.7867 105.027 17.9307 104.685 18.016C104.344 18.112 103.928 18.16 103.437 18.16C102.925 18.16 102.467 18.064 102.061 17.872C101.656 17.6693 101.336 17.3653 101.101 16.96C100.867 16.5547 100.749 16.0427 100.749 15.424C100.749 14.5067 101.08 13.8187 101.741 13.36C102.403 12.9013 103.389 12.6453 104.701 12.592L106.157 12.544V12.272C106.157 11.7493 106.04 11.3867 105.805 11.184C105.571 10.9707 105.24 10.864 104.813 10.864C104.419 10.864 104.013 10.928 103.597 11.056C103.181 11.184 102.771 11.3387 102.365 11.52L101.661 9.872C102.12 9.63733 102.643 9.45067 103.229 9.312C103.827 9.17333 104.477 9.104 105.181 9.104ZM105.245 14C104.488 14.0213 103.96 14.144 103.661 14.368C103.363 14.592 103.213 14.9067 103.213 15.312C103.213 15.6853 103.315 15.9627 103.517 16.144C103.731 16.3147 104.008 16.4 104.349 16.4C104.861 16.4 105.288 16.2507 105.629 15.952C105.981 15.6533 106.157 15.2267 106.157 14.672V13.952L105.245 14ZM113.272 18H110.856V5.84H113.272V18Z" fill="white"/>
</svg>
