<svg width="24" height="24" viewBox="0 0 24 24" fill="none" xmlns="http://www.w3.org/2000/svg">
<g id="Group 10291">
<g id="Frame">
<path id="Vector" d="M14.4497 18.7409C10.9204 19.9217 7.23741 20.5628 3.52197 20.6433C5.09503 22.1423 7.03239 23.1903 9.13574 23.68C11.2484 24.1739 13.4519 24.0952 15.525 23.4519C17.5865 22.8147 19.4435 21.6318 20.9049 20.0248C22.351 18.4339 23.3424 16.473 23.7722 14.353C20.875 16.2374 17.7388 17.7136 14.4497 18.7409Z" fill="white"/>
<path id="Vector_2" d="M14.6179 14.4351L14.3041 15.1913H14.9314L14.6179 14.4351Z" fill="white"/>
<path id="Vector_3" d="M5.92137 14.3602H5.50317V15.5828H5.92137C6.09419 15.5916 6.26369 15.5325 6.39464 15.4177C6.5082 15.2978 6.57162 15.1379 6.57162 14.9715C6.57162 14.8052 6.5082 14.6453 6.39464 14.5253C6.26369 14.4106 6.09419 14.3514 5.92137 14.3602Z" fill="white"/>
<path id="Vector_4" d="M9.96798 5.06653C13.2496 3.97736 16.661 3.34227 20.1099 3.17844C18.5046 1.71391 16.5449 0.708022 14.4311 0.26355C12.3087 -0.18507 10.1074 -0.0593031 8.04801 0.628226C6.00111 1.30933 4.1702 2.5319 2.74395 4.16996C1.33268 5.79108 0.383977 7.77212 0 9.89975C3.06576 7.79194 6.42581 6.16274 9.96798 5.06653Z" fill="white"/>
<path id="Vector_5" d="M16.6477 16.8626C19.1855 16.0632 21.6196 14.9578 23.8978 13.57C24.1322 11.79 23.9623 9.9793 23.401 8.27627C22.8353 6.56276 21.8948 5.00135 20.65 3.70898C17.9983 3.91422 15.3802 4.43902 12.8508 5.2723C10.5871 5.99084 8.40341 6.94706 6.33524 8.12544H8.75706V9.03251H6.17335V10.0925H8.45728V10.971H6.17335V12.0957H8.84856V13.0019H5.03925V8.92243C1.64192 11.1748 -0.23541 13.7107 0.412173 15.6883C1.45973 18.8901 8.7289 19.4157 16.6477 16.8626ZM11.3652 15.958H10.9068V13.9867H11.3652V15.958ZM13.4769 14.3586H12.8438V15.958H12.3883V14.3586H11.7503V13.9867H13.4748L13.4769 14.3586ZM17.5239 15.958H16.0747V13.9867H16.533V15.5862H17.5268L17.5239 15.958ZM14.4847 8.1204H18.7722V9.04133H17.1988V12.9986H16.061V9.04091H14.4876L14.4847 8.1204ZM14.8404 13.9867L15.7256 15.958H15.2445L15.0702 15.5353H14.1501L13.9758 15.958H13.5071L14.389 13.9867H14.8404ZM9.59179 9.25896C9.82551 8.87411 10.1601 8.56281 10.5582 8.35987C10.9901 8.13875 11.4686 8.02744 11.9523 8.03553C12.3537 8.02979 12.7523 8.10313 13.1262 8.25148C13.466 8.38683 13.7693 8.60193 14.0114 8.87916L13.2806 9.54885C13.1191 9.37232 12.9227 9.23231 12.7043 9.13796C12.4845 9.04289 12.2476 8.99524 12.0086 8.99806C11.7186 8.99243 11.4317 9.05923 11.1731 9.19258C10.935 9.31724 10.7372 9.50872 10.6033 9.74422C10.4701 9.99364 10.4003 10.2729 10.4003 10.5565C10.4003 10.8402 10.4701 11.1195 10.6033 11.3689C10.7373 11.6038 10.9335 11.7958 11.1698 11.923C11.424 12.0587 11.7078 12.1271 11.995 12.1218C12.3026 12.1263 12.6065 12.0542 12.8802 11.9117V10.4832H13.9207V12.4633C13.6404 12.6701 13.3267 12.8258 12.9937 12.9234C12.6496 13.0294 12.292 13.0836 11.9325 13.0843C11.454 13.092 10.9811 12.9806 10.5549 12.7599C10.1593 12.5554 9.82709 12.2438 9.59511 11.8596C9.36745 11.4652 9.24745 11.0164 9.24745 10.5593C9.24745 10.1022 9.36745 9.65337 9.59511 9.25896H9.59179ZM8.60096 14.4468C8.69462 14.2911 8.82929 14.1651 8.98976 14.0829C9.16332 13.994 9.35556 13.9492 9.54998 13.9523C9.71148 13.95 9.8719 13.9794 10.0224 14.0388C10.159 14.0934 10.2811 14.1798 10.3789 14.2909L10.0845 14.5615C10.0194 14.4907 9.9402 14.4348 9.85224 14.3972C9.76369 14.3595 9.66836 14.3409 9.57233 14.3426C9.45553 14.3406 9.34005 14.3679 9.23612 14.422C9.13982 14.4716 9.06004 14.5489 9.00673 14.6442C8.95295 14.745 8.92479 14.8578 8.92479 14.9724C8.92479 15.087 8.95295 15.1997 9.00673 15.3005C9.06021 15.3954 9.139 15.473 9.23405 15.5244C9.33599 15.5792 9.44997 15.6068 9.5653 15.6047C9.68933 15.606 9.81178 15.5763 9.9218 15.5181V14.9421H10.34V15.7404C10.2272 15.8236 10.1012 15.8864 9.96734 15.9261C9.82895 15.9688 9.68511 15.9906 9.54045 15.9908C9.34792 15.9936 9.15762 15.9488 8.98603 15.8601C8.82693 15.7771 8.69341 15.6512 8.60013 15.4963C8.50817 15.337 8.45969 15.1557 8.45969 14.9711C8.45969 14.7865 8.50817 14.6052 8.60013 14.4459L8.60096 14.4468ZM7.51696 13.9846H7.97242V15.9559H7.51696V13.9846ZM6.89298 15.4896C6.80023 15.6398 6.66685 15.7598 6.50873 15.8353C6.33059 15.92 6.13566 15.9619 5.93899 15.958H5.04049V13.9867H5.93982C6.13649 13.9828 6.33142 14.0248 6.50956 14.1094C6.66768 14.1849 6.80106 14.3049 6.89381 14.4552C6.98381 14.6129 7.03121 14.7918 7.03121 14.974C7.03121 15.1563 6.98381 15.3352 6.89381 15.4929L6.89298 15.4896Z" fill="white"/>
</g>
</g>
</svg>
