<svg width="108" height="28" viewBox="0 0 108 28" fill="none" xmlns="http://www.w3.org/2000/svg">
<path d="M0.611328 3.15807C0.611328 2.50806 1.11922 1.94283 2.07858 1.85805C2.72756 1.745 3.40475 1.68848 4.02551 1.68848C8.68122 1.68848 11.2489 3.92113 11.2489 7.73642C11.2489 12.0039 8.70944 13.8409 4.42054 13.8409C3.96908 13.8409 3.51762 13.7844 3.09437 13.6996V20.7649C3.09437 21.4432 2.55826 22.0084 1.85285 22.0084C1.14744 22.0084 0.611328 21.4715 0.611328 20.7649V3.15807ZM3.09437 11.5776C3.54583 11.7189 4.13838 11.7472 4.56163 11.7472C7.29862 11.7472 8.68122 10.0798 8.68122 7.73407C8.68122 5.38837 7.29862 3.77747 4.56163 3.77747C4.13838 3.77747 3.57405 3.77747 3.09437 3.91877V11.5776Z" fill="white"/>
<path d="M17.5129 20.2822C16.8357 21.4127 15.6224 22.0061 14.1269 22.0061C11.1642 22.0061 9.47119 19.7735 9.47119 16.9191C9.47119 14.0647 11.136 11.832 14.2115 11.832C15.707 11.832 16.8075 12.4538 17.4564 13.3581V12.9625C17.4564 12.3407 17.9079 11.832 18.6133 11.832C19.2059 11.832 19.6855 12.1994 19.6855 12.9625V20.8757C19.6855 21.6387 19.2341 22.0061 18.6133 22.0061C17.9925 22.0061 17.5129 21.667 17.5129 20.8757V20.2822ZM17.4282 16.9191C17.4282 15.2517 16.4406 13.8386 14.6348 13.8386C12.8289 13.8386 11.8132 15.2234 11.8132 16.9473C11.8132 18.6713 12.8572 19.9996 14.6066 19.9996C16.356 19.9996 17.4282 18.5865 17.4282 16.9191Z" fill="white"/>
<path d="M25.1314 18.8688C25.1314 19.858 25.5829 19.9993 25.9497 19.9993C26.3165 19.9993 26.5423 19.858 26.6834 19.8014C27.1912 19.6319 27.6145 20.2254 27.6145 20.7906C27.6145 21.0732 27.5016 21.3841 27.2477 21.5254C26.768 21.808 26.2319 22.0058 25.3572 22.0058C23.7206 22.0058 22.8741 21.271 22.8741 19.2079V14.0644H22.1405C21.548 14.0644 21.1812 13.7252 21.1812 13.1035C21.1812 12.4817 21.5762 12.1426 22.1405 12.1426H22.8741V10.786C22.8741 9.99472 23.4385 9.5708 24.0028 9.5708C24.5671 9.5708 25.1314 9.99472 25.1314 10.786V12.1426H26.4294C27.0784 12.1426 27.417 12.5665 27.417 13.1035C27.417 13.7535 27.0219 14.0644 26.4012 14.0644H25.1314V18.8688Z" fill="white"/>
<path d="M31.1977 17.4843C31.2824 19.0387 32.4392 20.2539 34.4144 20.2539C35.5713 20.2539 36.3613 19.9148 37.0667 19.4909C37.8004 19.1235 38.4493 19.6604 38.4493 20.2539C38.4493 20.5365 38.3082 20.8192 37.9979 21.017C37.1232 21.6105 35.7123 22.0061 34.1886 22.0061C30.4076 22.0061 28.7993 19.6039 28.7993 16.9756C28.7993 14.3473 30.5205 11.832 33.7936 11.832C36.8974 11.832 38.6468 13.9516 38.6468 16.4669C38.6468 17.0321 38.28 17.4843 37.4618 17.4843H31.1977ZM36.4742 15.9582C36.3613 14.743 35.4866 13.556 33.8501 13.556C32.2135 13.556 31.3388 14.743 31.2259 15.9582H36.4742Z" fill="white"/>
<path d="M40.8198 12.9907C40.8198 12.3407 41.2995 11.832 41.9485 11.832C42.4564 11.832 43.0207 12.1712 43.0207 12.9907V13.7538C43.6415 12.6234 44.883 11.832 46.3502 11.832C49.2283 11.832 51.0342 14.0647 51.0342 16.9191C51.0342 19.7735 49.2283 22.0344 46.3785 22.0344C44.9959 22.0344 43.7825 21.3279 43.0771 20.1409V25.9062C43.0771 26.7541 42.5128 27.0649 41.9485 27.0649C41.3841 27.0649 40.8198 26.7258 40.8198 25.9062V12.9907ZM48.7204 16.9473C48.7204 15.0256 47.5353 13.8669 45.8988 13.8669C44.2622 13.8669 43.0771 15.2799 43.0771 16.9756C43.0771 18.6713 44.234 20.0278 45.8988 20.0278C47.5635 20.0278 48.7204 18.8409 48.7204 16.9473Z" fill="white"/>
<path d="M52.8965 2.14059C52.8965 1.32101 53.4044 0.953613 53.9969 0.953613C54.5895 0.953613 55.1538 1.32101 55.1538 2.14059V18.756C55.1538 19.6038 55.2384 20.0842 55.9439 20.1408C56.2825 20.169 56.5364 20.3669 56.5364 21.0734C56.5364 21.7799 56.1696 22.006 55.3795 22.006C53.4326 22.006 52.8965 20.7625 52.8965 19.0668V2.14059Z" fill="white"/>
<path d="M65.5656 20.2822C64.8884 21.4127 63.6751 22.0061 62.1796 22.0061C59.2169 22.0061 57.5239 19.7735 57.5239 16.9191C57.5239 14.0647 59.1887 11.832 62.2643 11.832C63.7598 11.832 64.8602 12.4538 65.5092 13.3581V12.9625C65.5092 12.3407 65.9606 11.832 66.666 11.832C67.2586 11.832 67.7383 12.1994 67.7383 12.9625V20.8757C67.7383 21.6387 67.2868 22.0061 66.666 22.0061C66.0453 22.0061 65.5656 21.667 65.5656 20.8757V20.2822ZM65.481 16.9191C65.481 15.2517 64.4934 13.8386 62.6875 13.8386C60.8817 13.8386 59.8659 15.2234 59.8659 16.9473C59.8659 18.6713 60.9099 19.9996 62.6593 19.9996C64.4087 19.9996 65.481 18.5865 65.481 16.9191Z" fill="white"/>
<path d="M72.9582 21.13L69.6851 13.6973C69.6004 13.4995 69.4312 13.2168 69.4312 12.906C69.4312 12.3125 69.9108 11.832 70.5034 11.832C71.0959 11.832 71.4063 12.3407 71.632 12.906L74.2279 19.0952L76.7956 12.906C77.0214 12.3407 77.36 11.832 77.9525 11.832C78.5451 11.832 78.9683 12.256 78.9683 12.8212C78.9683 13.1603 78.8554 13.4995 78.7426 13.6973L73.2404 25.6801C72.7889 26.6128 72.3939 27.1497 71.8013 27.1497C71.2088 27.1497 70.7009 26.6975 70.7009 26.104C70.7009 25.7366 71.0113 25.1997 71.0959 24.9736L72.9582 21.13Z" fill="white"/>
<path d="M85.1738 11.7588H82.5426C81.769 11.7588 81.1436 12.3876 81.1436 13.1601C81.1436 13.975 81.8043 14.6367 82.6179 14.6367H85.2961C86.2484 20.3338 92.7523 24.1726 99.0328 20.3526C100.963 19.1774 102.529 16.3442 102.529 14.0833V11.7588H85.1761H85.1738Z" fill="#FFDF00"/>
<path d="M104.765 7.51019C103.754 2.82821 98.219 -0.18634 92.9872 3.31337C91.3883 4.38259 90.4478 6.20074 90.4478 8.12487V10.5765H106.242C107.133 10.5765 107.855 9.85353 107.855 8.96094C107.855 8.15784 107.206 7.50783 106.404 7.50783H104.765V7.51019ZM99.9849 8.38864C99.3124 8.38864 98.7669 7.84226 98.7669 7.16869C98.7669 6.49513 99.3124 5.94874 99.9849 5.94874C100.657 5.94874 101.203 6.49513 101.203 7.16869C101.203 7.84226 100.657 8.38864 99.9849 8.38864Z" fill="#FFDF00"/>
</svg>
