<svg width="68" height="19" viewBox="0 0 68 19" fill="none" xmlns="http://www.w3.org/2000/svg">
<path d="M15.056 10.7116L4.17319 13.6277C3.34586 13.8493 2.85363 14.7017 3.07532 15.5291C3.29702 16.3565 4.14943 16.8487 4.97686 16.627L15.8596 13.711C16.687 13.4893 17.1793 12.6368 16.9576 11.8093C16.7359 10.9819 15.8833 10.49 15.056 10.7116Z" fill="#FF0000" stroke="black"/>
<path d="M14.6984 10.2483L14.6982 10.2481C14.4092 9.96943 14.2029 9.61977 14.1005 9.23771L13.5028 7.0071C12.9042 4.77308 10.8871 3.25487 8.63574 3.23521C8.63038 3.12609 8.61336 3.01684 8.58448 2.90906C8.36276 2.08159 7.51013 1.58971 6.68283 1.81138C5.85558 2.03304 5.36339 2.8854 5.58508 3.71275C5.62184 3.84994 5.67709 3.97961 5.74819 4.09901C3.96093 5.29355 3.09515 7.51112 3.66633 9.6428L4.26402 11.8734C4.36636 12.2553 4.36254 12.6613 4.2516 13.0474C4.2516 13.0474 4.2516 13.0474 4.25159 13.0474L4.22884 13.1266L3.98458 13.9766L4.8388 13.7477L14.5399 11.1483L15.3939 10.9194L14.7577 10.3055L14.6984 10.2483Z" fill="#FF0000" stroke="black"/>
<path d="M12.2632 15.2001L12.2582 15.1453L12.204 14.5544L11.6308 14.708L8.84569 15.4543L8.27254 15.6079L8.52107 16.1467L8.5441 16.1966C8.54412 16.1966 8.54414 16.1967 8.54415 16.1967C8.54418 16.1968 8.5442 16.1968 8.54423 16.1969C8.94317 17.0628 9.90271 17.5132 10.8236 17.2664C11.7447 17.0196 12.3508 16.1497 12.2632 15.2001Z" fill="#FF0000" stroke="black"/>
<mask id="path-4-outside-1_1125_2319" maskUnits="userSpaceOnUse" x="18.2986" y="3.5" width="49" height="13" fill="black">
<rect fill="white" x="18.2986" y="3.5" width="49" height="13"/>
<path d="M24.2516 9.274H27.9436V14.097C27.4583 14.2617 26.9253 14.3917 26.3446 14.487C25.7726 14.5823 25.1529 14.63 24.4856 14.63C23.5669 14.63 22.7739 14.448 22.1066 14.084C21.4393 13.72 20.9236 13.1827 20.5596 12.472C20.1956 11.7613 20.0136 10.886 20.0136 9.846C20.0136 8.87533 20.1999 8.03467 20.5726 7.324C20.9539 6.61333 21.5043 6.063 22.2236 5.673C22.9429 5.283 23.8226 5.088 24.8626 5.088C25.4173 5.088 25.9416 5.14 26.4356 5.244C26.9383 5.348 27.3846 5.48667 27.7746 5.66L27.1116 7.246C26.7823 7.09 26.4269 6.96867 26.0456 6.882C25.6643 6.78667 25.2656 6.739 24.8496 6.739C24.2169 6.739 23.6926 6.87767 23.2766 7.155C22.8693 7.42367 22.5659 7.79633 22.3666 8.273C22.1673 8.741 22.0676 9.27833 22.0676 9.885C22.0676 10.5177 22.1629 11.068 22.3536 11.536C22.5529 11.9953 22.8476 12.3507 23.2376 12.602C23.6276 12.8533 24.1216 12.979 24.7196 12.979C24.9623 12.979 25.2049 12.966 25.4476 12.94C25.6903 12.9053 25.8896 12.8663 26.0456 12.823V10.86H24.2516V9.274ZM32.8102 5.218C33.6248 5.218 34.3008 5.322 34.8382 5.53C35.3755 5.72933 35.7742 6.02833 36.0342 6.427C36.3028 6.82567 36.4372 7.324 36.4372 7.922C36.4372 8.338 36.3635 8.70633 36.2162 9.027C36.0688 9.34767 35.8695 9.62067 35.6182 9.846C35.3668 10.0713 35.0808 10.2577 34.7602 10.405L37.3992 14.5H35.1242L33.0572 10.938H31.9522V14.5H29.9632V5.218H32.8102ZM32.7712 6.765H31.9522V9.404H32.7712C33.2998 9.404 33.7072 9.29567 33.9932 9.079C34.2792 8.86233 34.4222 8.507 34.4222 8.013C34.4222 7.73567 34.3615 7.506 34.2402 7.324C34.1275 7.142 33.9498 7.00333 33.7072 6.908C33.4645 6.81267 33.1525 6.765 32.7712 6.765ZM44.2404 14.5L43.5254 12.316H40.2494L39.5344 14.5H37.3894L40.6524 5.179H43.0964L46.3854 14.5H44.2404ZM42.4204 8.637C42.3857 8.507 42.3294 8.312 42.2514 8.052C42.1821 7.792 42.1127 7.52767 42.0434 7.259C41.9741 6.98167 41.9177 6.75633 41.8744 6.583C41.8397 6.78233 41.7877 7.012 41.7184 7.272C41.6577 7.532 41.5971 7.78333 41.5364 8.026C41.4757 8.26867 41.4237 8.47233 41.3804 8.637L40.7174 10.652H43.0704L42.4204 8.637ZM55.7504 14.5H53.2154L49.2114 7.506H49.1594C49.1767 7.70533 49.1897 7.94367 49.1984 8.221C49.2157 8.49833 49.2287 8.78433 49.2374 9.079C49.2547 9.37367 49.2634 9.65533 49.2634 9.924V14.5H47.4954V5.218H50.0174L54.0084 12.147H54.0604C54.0517 11.9737 54.0387 11.7527 54.0214 11.484C54.004 11.2067 53.991 10.9207 53.9824 10.626C53.9737 10.3227 53.9694 10.054 53.9694 9.82V5.218H55.7504V14.5ZM65.6653 9.703C65.6653 10.769 65.466 11.6573 65.0673 12.368C64.6687 13.0787 64.1053 13.6117 63.3773 13.967C62.658 14.3223 61.7957 14.5 60.7903 14.5H57.9563V5.218H61.0243C62.0037 5.218 62.8357 5.39133 63.5203 5.738C64.2137 6.076 64.7423 6.57867 65.1063 7.246C65.479 7.91333 65.6653 8.73233 65.6653 9.703ZM63.5853 9.781C63.5853 9.11367 63.4857 8.56333 63.2863 8.13C63.0957 7.69667 62.8053 7.376 62.4153 7.168C62.0253 6.95133 61.5443 6.843 60.9723 6.843H59.9453V12.862H60.7773C61.7307 12.862 62.437 12.6063 62.8963 12.095C63.3557 11.5837 63.5853 10.8123 63.5853 9.781Z"/>
</mask>
<path d="M24.2516 9.274H27.9436V14.097C27.4583 14.2617 26.9253 14.3917 26.3446 14.487C25.7726 14.5823 25.1529 14.63 24.4856 14.63C23.5669 14.63 22.7739 14.448 22.1066 14.084C21.4393 13.72 20.9236 13.1827 20.5596 12.472C20.1956 11.7613 20.0136 10.886 20.0136 9.846C20.0136 8.87533 20.1999 8.03467 20.5726 7.324C20.9539 6.61333 21.5043 6.063 22.2236 5.673C22.9429 5.283 23.8226 5.088 24.8626 5.088C25.4173 5.088 25.9416 5.14 26.4356 5.244C26.9383 5.348 27.3846 5.48667 27.7746 5.66L27.1116 7.246C26.7823 7.09 26.4269 6.96867 26.0456 6.882C25.6643 6.78667 25.2656 6.739 24.8496 6.739C24.2169 6.739 23.6926 6.87767 23.2766 7.155C22.8693 7.42367 22.5659 7.79633 22.3666 8.273C22.1673 8.741 22.0676 9.27833 22.0676 9.885C22.0676 10.5177 22.1629 11.068 22.3536 11.536C22.5529 11.9953 22.8476 12.3507 23.2376 12.602C23.6276 12.8533 24.1216 12.979 24.7196 12.979C24.9623 12.979 25.2049 12.966 25.4476 12.94C25.6903 12.9053 25.8896 12.8663 26.0456 12.823V10.86H24.2516V9.274ZM32.8102 5.218C33.6248 5.218 34.3008 5.322 34.8382 5.53C35.3755 5.72933 35.7742 6.02833 36.0342 6.427C36.3028 6.82567 36.4372 7.324 36.4372 7.922C36.4372 8.338 36.3635 8.70633 36.2162 9.027C36.0688 9.34767 35.8695 9.62067 35.6182 9.846C35.3668 10.0713 35.0808 10.2577 34.7602 10.405L37.3992 14.5H35.1242L33.0572 10.938H31.9522V14.5H29.9632V5.218H32.8102ZM32.7712 6.765H31.9522V9.404H32.7712C33.2998 9.404 33.7072 9.29567 33.9932 9.079C34.2792 8.86233 34.4222 8.507 34.4222 8.013C34.4222 7.73567 34.3615 7.506 34.2402 7.324C34.1275 7.142 33.9498 7.00333 33.7072 6.908C33.4645 6.81267 33.1525 6.765 32.7712 6.765ZM44.2404 14.5L43.5254 12.316H40.2494L39.5344 14.5H37.3894L40.6524 5.179H43.0964L46.3854 14.5H44.2404ZM42.4204 8.637C42.3857 8.507 42.3294 8.312 42.2514 8.052C42.1821 7.792 42.1127 7.52767 42.0434 7.259C41.9741 6.98167 41.9177 6.75633 41.8744 6.583C41.8397 6.78233 41.7877 7.012 41.7184 7.272C41.6577 7.532 41.5971 7.78333 41.5364 8.026C41.4757 8.26867 41.4237 8.47233 41.3804 8.637L40.7174 10.652H43.0704L42.4204 8.637ZM55.7504 14.5H53.2154L49.2114 7.506H49.1594C49.1767 7.70533 49.1897 7.94367 49.1984 8.221C49.2157 8.49833 49.2287 8.78433 49.2374 9.079C49.2547 9.37367 49.2634 9.65533 49.2634 9.924V14.5H47.4954V5.218H50.0174L54.0084 12.147H54.0604C54.0517 11.9737 54.0387 11.7527 54.0214 11.484C54.004 11.2067 53.991 10.9207 53.9824 10.626C53.9737 10.3227 53.9694 10.054 53.9694 9.82V5.218H55.7504V14.5ZM65.6653 9.703C65.6653 10.769 65.466 11.6573 65.0673 12.368C64.6687 13.0787 64.1053 13.6117 63.3773 13.967C62.658 14.3223 61.7957 14.5 60.7903 14.5H57.9563V5.218H61.0243C62.0037 5.218 62.8357 5.39133 63.5203 5.738C64.2137 6.076 64.7423 6.57867 65.1063 7.246C65.479 7.91333 65.6653 8.73233 65.6653 9.703ZM63.5853 9.781C63.5853 9.11367 63.4857 8.56333 63.2863 8.13C63.0957 7.69667 62.8053 7.376 62.4153 7.168C62.0253 6.95133 61.5443 6.843 60.9723 6.843H59.9453V12.862H60.7773C61.7307 12.862 62.437 12.6063 62.8963 12.095C63.3557 11.5837 63.5853 10.8123 63.5853 9.781Z" fill="#FF0000"/>
<path d="M24.2516 9.274V8.274H23.2516V9.274H24.2516ZM27.9436 9.274H28.9436V8.274H27.9436V9.274ZM27.9436 14.097L28.2649 15.044L28.9436 14.8137V14.097H27.9436ZM26.3446 14.487L26.1826 13.5002L26.1802 13.5006L26.3446 14.487ZM22.1066 14.084L21.6277 14.9619L21.6277 14.9619L22.1066 14.084ZM20.5596 12.472L19.6695 12.9279L19.6695 12.9279L20.5596 12.472ZM20.5726 7.324L19.6914 6.85116L19.687 6.85959L20.5726 7.324ZM22.2236 5.673L21.747 4.79389L21.747 4.79389L22.2236 5.673ZM26.4356 5.244L26.2296 6.22256L26.233 6.22326L26.4356 5.244ZM27.7746 5.66L28.6972 6.04569L29.0744 5.14338L28.1807 4.74619L27.7746 5.66ZM27.1116 7.246L26.6835 8.14974L27.6302 8.59817L28.0342 7.63169L27.1116 7.246ZM26.0456 6.882L25.803 7.85214L25.8135 7.85475L25.824 7.85713L26.0456 6.882ZM23.2766 7.155L23.8272 7.98978L23.8313 7.98705L23.2766 7.155ZM22.3666 8.273L23.2866 8.66487L23.2892 8.65881L22.3666 8.273ZM22.3536 11.536L21.4275 11.9133L21.4317 11.9237L21.4362 11.9341L22.3536 11.536ZM23.2376 12.602L22.6959 13.4426L22.6959 13.4426L23.2376 12.602ZM25.4476 12.94L25.5541 13.9343L25.5716 13.9324L25.589 13.9299L25.4476 12.94ZM26.0456 12.823L26.3132 13.7865L27.0456 13.5831V12.823H26.0456ZM26.0456 10.86H27.0456V9.86H26.0456V10.86ZM24.2516 10.86H23.2516V11.86H24.2516V10.86ZM24.2516 10.274H27.9436V8.274H24.2516V10.274ZM26.9436 9.274V14.097H28.9436V9.274H26.9436ZM27.6223 13.15C27.1958 13.2947 26.7169 13.4125 26.1826 13.5002L26.5066 15.4738C27.1336 15.3708 27.7207 15.2286 28.2649 15.044L27.6223 13.15ZM26.1802 13.5006C25.6699 13.5857 25.1059 13.63 24.4856 13.63V15.63C25.2 15.63 25.8753 15.579 26.509 15.4734L26.1802 13.5006ZM24.4856 13.63C23.6996 13.63 23.0782 13.4749 22.5854 13.2061L21.6277 14.9619C22.4697 15.4211 23.4343 15.63 24.4856 15.63V13.63ZM22.5854 13.2061C22.1036 12.9433 21.7269 12.5575 21.4496 12.0161L19.6695 12.9279C20.1202 13.8078 20.7749 14.4967 21.6277 14.9619L22.5854 13.2061ZM21.4496 12.0161C21.1764 11.4827 21.0136 10.7738 21.0136 9.846H19.0136C19.0136 10.9982 19.2148 12.04 19.6695 12.9279L21.4496 12.0161ZM21.0136 9.846C21.0136 9.00351 21.1749 8.32874 21.4582 7.78841L19.687 6.85959C19.225 7.74059 19.0136 8.74715 19.0136 9.846H21.0136ZM21.4537 7.79682C21.7414 7.26081 22.1498 6.8505 22.7002 6.55211L21.747 4.79389C20.8587 5.2755 20.1665 5.96586 19.6914 6.85118L21.4537 7.79682ZM22.7002 6.55211C23.2388 6.2601 23.9449 6.088 24.8626 6.088V4.088C23.7002 4.088 22.647 4.3059 21.747 4.79389L22.7002 6.55211ZM24.8626 6.088C25.3547 6.088 25.8096 6.13413 26.2296 6.22255L26.6416 4.26545C26.0736 4.14587 25.4798 4.088 24.8626 4.088V6.088ZM26.233 6.22326C26.6793 6.31559 27.0553 6.43465 27.3684 6.57381L28.1807 4.74619C27.7138 4.53869 27.1973 4.38041 26.6382 4.26474L26.233 6.22326ZM26.852 5.27431L26.189 6.86031L28.0342 7.63169L28.6972 6.04569L26.852 5.27431ZM27.5397 6.34226C27.1397 6.15281 26.7146 6.00855 26.2672 5.90687L25.824 7.85713C26.1392 7.92878 26.4248 8.02719 26.6835 8.14974L27.5397 6.34226ZM26.2881 5.91186C25.823 5.79557 25.3426 5.739 24.8496 5.739V7.739C25.1886 7.739 25.5055 7.77776 25.803 7.85214L26.2881 5.91186ZM24.8496 5.739C24.0718 5.739 23.3408 5.91031 22.7219 6.32295L23.8313 7.98705C24.0443 7.84502 24.3621 7.739 24.8496 7.739V5.739ZM22.726 6.32023C22.1428 6.70486 21.7152 7.2386 21.444 7.88719L23.2892 8.65881C23.4166 8.35406 23.5957 8.14247 23.8272 7.98977L22.726 6.32023ZM21.4466 7.88114C21.1853 8.4945 21.0676 9.16913 21.0676 9.885H23.0676C23.0676 9.38754 23.1492 8.9875 23.2866 8.66486L21.4466 7.88114ZM21.0676 9.885C21.0676 10.6156 21.1774 11.2995 21.4275 11.9133L23.2797 11.1587C23.1484 10.8365 23.0676 10.4197 23.0676 9.885H21.0676ZM21.4362 11.9341C21.7078 12.5598 22.1264 13.0756 22.6959 13.4426L23.7793 11.7614C23.5688 11.6258 23.3981 11.4309 23.2709 11.1379L21.4362 11.9341ZM22.6959 13.4426C23.288 13.8242 23.9843 13.979 24.7196 13.979V11.979C24.2589 11.979 23.9672 11.8825 23.7793 11.7614L22.6959 13.4426ZM24.7196 13.979C24.998 13.979 25.2763 13.9641 25.5541 13.9343L25.3411 11.9457C25.1336 11.9679 24.9265 11.979 24.7196 11.979V13.979ZM25.589 13.9299C25.855 13.8919 26.1005 13.8456 26.3132 13.7865L25.7779 11.8595C25.6787 11.8871 25.5255 11.9187 25.3062 11.9501L25.589 13.9299ZM27.0456 12.823V10.86H25.0456V12.823H27.0456ZM26.0456 9.86H24.2516V11.86H26.0456V9.86ZM25.2516 10.86V9.274H23.2516V10.86H25.2516ZM34.8382 5.53L34.4771 6.46266L34.4903 6.46757L34.8382 5.53ZM36.0342 6.427L35.1965 6.97327L35.2007 6.97959L35.2049 6.98585L36.0342 6.427ZM36.2162 9.027L37.1248 9.4445L37.1248 9.4445L36.2162 9.027ZM35.6182 9.846L36.2857 10.5906L36.2857 10.5906L35.6182 9.846ZM34.7602 10.405L34.3427 9.49632L33.2951 9.97764L33.9196 10.9467L34.7602 10.405ZM37.3992 14.5V15.5H39.2333L38.2397 13.9583L37.3992 14.5ZM35.1242 14.5L34.2592 15.0019L34.5483 15.5H35.1242V14.5ZM33.0572 10.938L33.9221 10.4361L33.633 9.938H33.0572V10.938ZM31.9522 10.938V9.938H30.9522V10.938H31.9522ZM31.9522 14.5V15.5H32.9522V14.5H31.9522ZM29.9632 14.5H28.9632V15.5H29.9632V14.5ZM29.9632 5.218V4.218H28.9632V5.218H29.9632ZM31.9522 6.765V5.765H30.9522V6.765H31.9522ZM31.9522 9.404H30.9522V10.404H31.9522V9.404ZM33.9932 9.079L33.3893 8.28191L33.3893 8.28191L33.9932 9.079ZM34.2402 7.324L33.3899 7.85035L33.3988 7.86468L33.4081 7.8787L34.2402 7.324ZM33.7072 6.908L34.0728 5.97725L34.0728 5.97725L33.7072 6.908ZM32.8102 6.218C33.5485 6.218 34.092 6.31347 34.4772 6.46257L35.1991 4.59743C34.5097 4.33053 33.7011 4.218 32.8102 4.218V6.218ZM34.4903 6.46757C34.8688 6.60795 35.076 6.78844 35.1965 6.97327L36.8718 5.88073C36.4723 5.26823 35.8822 4.85071 35.186 4.59243L34.4903 6.46757ZM35.2049 6.98585C35.3378 7.1831 35.4372 7.47434 35.4372 7.922H37.4372C37.4372 7.17366 37.2678 6.46823 36.8634 5.86815L35.2049 6.98585ZM35.4372 7.922C35.4372 8.21938 35.3848 8.44114 35.3075 8.6095L37.1248 9.4445C37.3421 8.97152 37.4372 8.45662 37.4372 7.922H35.4372ZM35.3075 8.6095C35.2146 8.81156 35.0954 8.97161 34.9506 9.10143L36.2857 10.5906C36.6436 10.2697 36.923 9.88378 37.1248 9.4445L35.3075 8.6095ZM34.9506 9.10143C34.7773 9.25684 34.5764 9.38894 34.3427 9.49632L35.1777 11.3137C35.5853 11.1264 35.9564 10.8858 36.2857 10.5906L34.9506 9.10143ZM33.9196 10.9467L36.5586 15.0417L38.2397 13.9583L35.6007 9.8633L33.9196 10.9467ZM37.3992 13.5H35.1242V15.5H37.3992V13.5ZM35.9891 13.9981L33.9221 10.4361L32.1922 11.4399L34.2592 15.0019L35.9891 13.9981ZM33.0572 9.938H31.9522V11.938H33.0572V9.938ZM30.9522 10.938V14.5H32.9522V10.938H30.9522ZM31.9522 13.5H29.9632V15.5H31.9522V13.5ZM30.9632 14.5V5.218H28.9632V14.5H30.9632ZM29.9632 6.218H32.8102V4.218H29.9632V6.218ZM32.7712 5.765H31.9522V7.765H32.7712V5.765ZM30.9522 6.765V9.404H32.9522V6.765H30.9522ZM31.9522 10.404H32.7712V8.404H31.9522V10.404ZM32.7712 10.404C33.4189 10.404 34.0721 10.2737 34.597 9.87609L33.3893 8.28191C33.3422 8.31762 33.1807 8.404 32.7712 8.404V10.404ZM34.597 9.87609C35.2184 9.40535 35.4222 8.69386 35.4222 8.013H33.4222C33.4222 8.16745 33.3993 8.24658 33.3872 8.27666C33.3786 8.29815 33.3782 8.29033 33.3893 8.28191L34.597 9.87609ZM35.4222 8.013C35.4222 7.59097 35.329 7.15455 35.0722 6.7693L33.4081 7.8787C33.3939 7.85745 33.4222 7.88036 33.4222 8.013H35.4222ZM35.0904 6.79764C34.8411 6.39494 34.4716 6.13392 34.0728 5.97725L33.3415 7.83875C33.3869 7.8566 33.405 7.87017 33.4071 7.87182C33.4081 7.87261 33.406 7.87106 33.4022 7.8668C33.3983 7.86248 33.3939 7.85686 33.3899 7.85035L35.0904 6.79764ZM34.0728 5.97725C33.673 5.82017 33.2249 5.765 32.7712 5.765V7.765C33.0801 7.765 33.256 7.80516 33.3415 7.83875L34.0728 5.97725ZM44.2404 14.5L43.29 14.8111L43.5156 15.5H44.2404V14.5ZM43.5254 12.316L44.4758 12.0049L44.2502 11.316H43.5254V12.316ZM40.2494 12.316V11.316H39.5246L39.299 12.0049L40.2494 12.316ZM39.5344 14.5V15.5H40.2592L40.4848 14.8111L39.5344 14.5ZM37.3894 14.5L36.4456 14.1696L35.9798 15.5H37.3894V14.5ZM40.6524 5.179V4.179H39.943L39.7086 4.84859L40.6524 5.179ZM43.0964 5.179L44.0394 4.84625L43.804 4.179H43.0964V5.179ZM46.3854 14.5V15.5H47.7987L47.3284 14.1672L46.3854 14.5ZM42.4204 8.637L41.4542 8.89466L41.4608 8.91952L41.4687 8.944L42.4204 8.637ZM42.2514 8.052L41.2852 8.30966L41.2891 8.32457L41.2936 8.33935L42.2514 8.052ZM42.0434 7.259L41.0732 7.50154L41.0751 7.50888L42.0434 7.259ZM41.8744 6.583L42.8445 6.34046L40.8892 6.41166L41.8744 6.583ZM41.7184 7.272L40.7522 7.01434L40.7481 7.02949L40.7446 7.04477L41.7184 7.272ZM41.5364 8.026L40.5663 7.78346L41.5364 8.026ZM41.3804 8.637L42.3303 8.94955L42.3398 8.92078L42.3475 8.89149L41.3804 8.637ZM40.7174 10.652L39.7675 10.3395L39.3356 11.652H40.7174V10.652ZM43.0704 10.652V11.652H44.4437L44.0221 10.345L43.0704 10.652ZM45.1908 14.1889L44.4758 12.0049L42.575 12.6271L43.29 14.8111L45.1908 14.1889ZM43.5254 11.316H40.2494V13.316H43.5254V11.316ZM39.299 12.0049L38.584 14.1889L40.4848 14.8111L41.1998 12.6271L39.299 12.0049ZM39.5344 13.5H37.3894V15.5H39.5344V13.5ZM38.3332 14.8304L41.5962 5.50941L39.7086 4.84859L36.4456 14.1696L38.3332 14.8304ZM40.6524 6.179H43.0964V4.179H40.6524V6.179ZM42.1534 5.51175L45.4424 14.8328L47.3284 14.1672L44.0394 4.84625L42.1534 5.51175ZM46.3854 13.5H44.2404V15.5H46.3854V13.5ZM43.3866 8.37934C43.3478 8.23383 43.2879 8.02674 43.2092 7.76465L41.2936 8.33935C41.371 8.59726 41.4236 8.78017 41.4542 8.89466L43.3866 8.37934ZM43.2176 7.79434C43.149 7.53701 43.0804 7.27527 43.0117 7.00912L41.0751 7.50888C41.1451 7.78006 41.2151 8.04699 41.2852 8.30966L43.2176 7.79434ZM43.0135 7.01646C42.9442 6.73913 42.8879 6.5138 42.8445 6.34046L40.9043 6.82554C40.9476 6.99887 41.0039 7.2242 41.0733 7.50153L43.0135 7.01646ZM40.8892 6.41166C40.8609 6.5743 40.8162 6.77417 40.7522 7.01434L42.6846 7.52966C42.7593 7.24983 42.8186 6.99037 42.8596 6.75434L40.8892 6.41166ZM40.7446 7.04477C40.685 7.3 40.6256 7.54622 40.5663 7.78346L42.5065 8.26854C42.5686 8.02045 42.6305 7.764 42.6922 7.49923L40.7446 7.04477ZM40.5663 7.78346C40.5062 8.0238 40.4553 8.22319 40.4133 8.38251L42.3475 8.89149C42.3922 8.72148 42.4453 8.51353 42.5065 8.26854L40.5663 7.78346ZM40.4305 8.32445L39.7675 10.3395L41.6673 10.9645L42.3303 8.94955L40.4305 8.32445ZM40.7174 11.652H43.0704V9.652H40.7174V11.652ZM44.0221 10.345L43.3721 8.33L41.4687 8.944L42.1187 10.959L44.0221 10.345ZM55.7504 14.5V15.5H56.7504V14.5H55.7504ZM53.2154 14.5L52.3475 14.9968L52.6356 15.5H53.2154V14.5ZM49.2114 7.506L50.0792 7.00917L49.7912 6.506H49.2114V7.506ZM49.1594 7.506V6.506H48.0687L48.1631 7.59263L49.1594 7.506ZM49.1984 8.221L48.1989 8.25223L48.1994 8.26782L48.2003 8.28338L49.1984 8.221ZM49.2374 9.079L48.2378 9.1084L48.2382 9.12307L48.2391 9.13772L49.2374 9.079ZM49.2634 14.5V15.5H50.2634V14.5H49.2634ZM47.4954 14.5H46.4954V15.5H47.4954V14.5ZM47.4954 5.218V4.218H46.4954V5.218H47.4954ZM50.0174 5.218L50.8839 4.71889L50.5954 4.218H50.0174V5.218ZM54.0084 12.147L53.1418 12.6461L53.4303 13.147H54.0084V12.147ZM54.0604 12.147V13.147H55.1116L55.0591 12.0971L54.0604 12.147ZM54.0214 11.484L53.0233 11.5464L53.0235 11.5484L54.0214 11.484ZM53.9824 10.626L52.9828 10.6546L52.9828 10.6554L53.9824 10.626ZM53.9694 5.218V4.218H52.9694V5.218H53.9694ZM55.7504 5.218H56.7504V4.218H55.7504V5.218ZM55.7504 13.5H53.2154V15.5H55.7504V13.5ZM54.0832 14.0032L50.0792 7.00917L48.3435 8.00283L52.3475 14.9968L54.0832 14.0032ZM49.2114 6.506H49.1594V8.506H49.2114V6.506ZM48.1631 7.59263C48.1784 7.76804 48.1906 7.98691 48.1989 8.25223L50.1979 8.18977C50.1889 7.90042 50.175 7.64263 50.1556 7.41937L48.1631 7.59263ZM48.2003 8.28338C48.2169 8.54909 48.2295 8.82407 48.2378 9.1084L50.2369 9.0496C50.228 8.74459 50.2145 8.44758 50.1964 8.15862L48.2003 8.28338ZM48.2391 9.13772C48.2554 9.41472 48.2634 9.67672 48.2634 9.924H50.2634C50.2634 9.63395 50.254 9.33261 50.2357 9.02028L48.2391 9.13772ZM48.2634 9.924V14.5H50.2634V9.924H48.2634ZM49.2634 13.5H47.4954V15.5H49.2634V13.5ZM48.4954 14.5V5.218H46.4954V14.5H48.4954ZM47.4954 6.218H50.0174V4.218H47.4954V6.218ZM49.1508 5.71711L53.1418 12.6461L54.8749 11.6479L50.8839 4.71889L49.1508 5.71711ZM54.0084 13.147H54.0604V11.147H54.0084V13.147ZM55.0591 12.0971C55.0501 11.9171 55.0368 11.6908 55.0193 11.4196L53.0235 11.5484C53.0406 11.8145 53.0533 12.0303 53.0616 12.1969L55.0591 12.0971ZM55.0194 11.4216C55.0028 11.1559 54.9903 10.8809 54.9819 10.5966L52.9828 10.6554C52.9918 10.9604 53.0053 11.2574 53.0233 11.5464L55.0194 11.4216ZM54.982 10.5974C54.9735 10.301 54.9694 10.0422 54.9694 9.82H52.9694C52.9694 10.0658 52.9739 10.3443 52.9828 10.6546L54.982 10.5974ZM54.9694 9.82V5.218H52.9694V9.82H54.9694ZM53.9694 6.218H55.7504V4.218H53.9694V6.218ZM54.7504 5.218V14.5H56.7504V5.218H54.7504ZM63.3773 13.967L62.9387 13.0683L62.9344 13.0704L63.3773 13.967ZM57.9563 14.5H56.9563V15.5H57.9563V14.5ZM57.9563 5.218V4.218H56.9563V5.218H57.9563ZM63.5203 5.738L63.0686 6.63016L63.0753 6.63357L63.0821 6.63688L63.5203 5.738ZM65.1063 7.246L64.2284 7.72488L64.2332 7.73357L65.1063 7.246ZM63.2863 8.13L62.371 8.53274L62.3744 8.54035L62.3778 8.54791L63.2863 8.13ZM62.4153 7.168L61.9297 8.04216L61.9372 8.04632L61.9447 8.05035L62.4153 7.168ZM59.9453 6.843V5.843H58.9453V6.843H59.9453ZM59.9453 12.862H58.9453V13.862H59.9453V12.862ZM62.8963 12.095L63.6402 12.7633L63.6402 12.7633L62.8963 12.095ZM64.6653 9.703C64.6653 10.6489 64.4881 11.3566 64.1952 11.8787L65.9395 12.8573C66.4439 11.958 66.6653 10.8891 66.6653 9.703H64.6653ZM64.1952 11.8787C63.8954 12.4132 63.4828 12.8028 62.9387 13.0683L63.816 14.8657C64.7279 14.4206 65.4419 13.7442 65.9395 12.8573L64.1952 11.8787ZM62.9344 13.0704C62.3832 13.3427 61.68 13.5 60.7903 13.5V15.5C61.9114 15.5 62.9328 15.302 63.8202 14.8636L62.9344 13.0704ZM60.7903 13.5H57.9563V15.5H60.7903V13.5ZM58.9563 14.5V5.218H56.9563V14.5H58.9563ZM57.9563 6.218H61.0243V4.218H57.9563V6.218ZM61.0243 6.218C61.8888 6.218 62.5572 6.37123 63.0686 6.63016L63.972 4.84584C63.1141 4.41144 62.1185 4.218 61.0243 4.218V6.218ZM63.0821 6.63688C63.5918 6.88534 63.9654 7.24263 64.2284 7.72485L65.9842 6.76715C65.5192 5.91471 64.8355 5.26666 63.9585 4.83912L63.0821 6.63688ZM64.2332 7.73357C64.5031 8.21687 64.6653 8.85786 64.6653 9.703H66.6653C66.6653 8.60681 66.4548 7.6098 65.9794 6.75843L64.2332 7.73357ZM64.5853 9.781C64.5853 9.02321 64.4735 8.31788 64.1948 7.71209L62.3778 8.54791C62.4978 8.80878 62.5853 9.20412 62.5853 9.781H64.5853ZM64.2016 7.72726C63.9275 7.10433 63.4883 6.6069 62.8859 6.28565L61.9447 8.05035C62.1224 8.1451 62.2638 8.289 62.371 8.53274L64.2016 7.72726ZM62.901 6.29384C62.3262 5.97455 61.6674 5.843 60.9723 5.843V7.843C61.4212 7.843 61.7244 7.92811 61.9297 8.04216L62.901 6.29384ZM60.9723 5.843H59.9453V7.843H60.9723V5.843ZM58.9453 6.843V12.862H60.9453V6.843H58.9453ZM59.9453 13.862H60.7773V11.862H59.9453V13.862ZM60.7773 13.862C61.9007 13.862 62.9266 13.5577 63.6402 12.7633L62.1524 11.4267C61.9474 11.655 61.5606 11.862 60.7773 11.862V13.862ZM63.6402 12.7633C64.3301 11.9953 64.5853 10.939 64.5853 9.781H62.5853C62.5853 10.6857 62.3812 11.1721 62.1524 11.4267L63.6402 12.7633Z" fill="black" mask="url(#path-4-outside-1_1125_2319)"/>
</svg>
