<?xml version="1.0" encoding="UTF-8"?>
<svg id="Layer_2" data-name="Layer 2" xmlns="http://www.w3.org/2000/svg" viewBox="0 0 22 22.3">
  <defs>
    <style>
      .cls-1 {
        fill: none;
        stroke: #fc9502;
      }
    </style>
  </defs>
  <g id="Layer_1-2" data-name="Layer 1">
    <g id="Vector">
      <path d="M21,12.92c0,1.11-.39,2.18-1.1,3.02-.71,.85-1.69,1.42-2.78,1.62-1.09,.2-2.21,0-3.17-.54-.96-.55-1.7-1.41-2.09-2.45,0,3.1,.2,5.17,3.14,6.73H6.99c2.95-1.56,3.14-3.62,3.14-6.73-.32,.86-.89,1.61-1.64,2.15-.75,.54-1.63,.85-2.55,.9-.92,.04-1.83-.18-2.63-.65-.79-.47-1.43-1.16-1.83-1.99-.4-.83-.56-1.76-.44-2.67,.12-.91,.5-1.77,1.11-2.47,.6-.7,1.4-1.2,2.28-1.46,.89-.25,1.83-.24,2.71,.04-.49-.71-.79-1.54-.84-2.4s.12-1.72,.52-2.49c.4-.77,1-1.41,1.74-1.85,.74-.45,1.58-.68,2.45-.68s1.71,.24,2.45,.68c.74,.45,1.34,1.09,1.74,1.85,.4,.77,.58,1.63,.52,2.49-.06,.86-.35,1.69-.84,2.4,.71-.22,1.46-.28,2.19-.16,.73,.12,1.42,.41,2.02,.85,.6,.44,1.08,1.01,1.42,1.67,.34,.66,.51,1.39,.51,2.13Z"/>
      <path class="cls-1" d="M21.5,12.92h0c0-.82-.19-1.63-.56-2.36s-.91-1.36-1.57-1.85c-.66-.48-1.43-.81-2.24-.94-.44-.07-.88-.09-1.32-.05,.22-.53,.35-1.09,.39-1.67,.06-.95-.14-1.9-.58-2.75-.44-.85-1.11-1.56-1.92-2.05l-.25,.42,.25-.42c-.82-.5-1.75-.76-2.71-.76s-1.89,.26-2.71,.76c-.82,.5-1.48,1.2-1.92,2.05-.44,.85-.64,1.8-.58,2.75,.04,.58,.17,1.14,.39,1.67-.63-.06-1.27,0-1.89,.18-.98,.28-1.86,.84-2.52,1.61-.67,.77-1.09,1.72-1.22,2.73-.13,1.01,.04,2.04,.48,2.95,.45,.92,1.15,1.68,2.03,2.2,.88,.52,1.89,.77,2.91,.72,1.02-.05,2-.39,2.82-.99,.29-.21,.56-.45,.79-.71-.06,.72-.17,1.35-.38,1.92-.37,.97-1.06,1.79-2.44,2.52l.23,.94H15.01l.23-.94c-1.38-.73-2.08-1.55-2.44-2.52-.21-.57-.33-1.2-.38-1.92,.37,.41,.8,.76,1.29,1.03,1.06,.6,2.3,.81,3.51,.6,1.2-.22,2.29-.85,3.07-1.79,.78-.94,1.21-2.12,1.21-3.34Z"/>
    </g>
  </g>
</svg>