<?xml version="1.0" encoding="UTF-8"?>
<svg id="Layer_2" data-name="Layer 2" xmlns="http://www.w3.org/2000/svg" viewBox="0 0 21 21">
  <defs>
    <style>
      .cls-1 {
        fill: #b1070a;
      }

      .cls-2 {
        fill: none;
        stroke: #fc9502;
      }
    </style>
  </defs>
  <g id="Layer_1-2" data-name="Layer 1">
    <g id="Vector">
      <path class="cls-1" d="M15.22,11.12c-2.64,1.62-5.25,4.86-6.73,8.6-1.47-3.75-4.09-6.99-6.73-8.6,2.64-1.62,5.25-4.86,6.73-8.6,1.47,3.75,4.09,6.99,6.73,8.6Z"/>
      <path class="cls-2" d="M15.44,11.48l.59-.36-.59-.36c-2.55-1.56-5.11-4.72-6.55-8.4l-.39-1-.39,1c-1.45,3.68-4.01,6.84-6.55,8.4l-.59,.36,.59,.36c2.55,1.56,5.11,4.72,6.55,8.4l.39,1,.39-1c1.45-3.68,4.01-6.84,6.55-8.4Z"/>
    </g>
  </g>
</svg>