<svg width="85" height="17" viewBox="0 0 85 17" fill="none" xmlns="http://www.w3.org/2000/svg">
<path d="M6.984 13H0.36V1.576H6.984V3.576H2.808V6.072H6.712V8.072H2.808V10.968H6.984V13ZM13.9241 6.568H18.4681V12.504C17.8708 12.7067 17.2148 12.8667 16.5001 12.984C15.7961 13.1013 15.0335 13.16 14.2121 13.16C13.0815 13.16 12.1055 12.936 11.2841 12.488C10.4628 12.04 9.82813 11.3787 9.38013 10.504C8.93213 9.62933 8.70813 8.552 8.70813 7.272C8.70813 6.07733 8.93746 5.04267 9.39613 4.168C9.86546 3.29333 10.5428 2.616 11.4281 2.136C12.3135 1.656 13.3961 1.416 14.6761 1.416C15.3588 1.416 16.0041 1.48 16.6121 1.608C17.2308 1.736 17.7801 1.90667 18.2601 2.12L17.4441 4.072C17.0388 3.88 16.6015 3.73067 16.1321 3.624C15.6628 3.50667 15.1721 3.448 14.6601 3.448C13.8815 3.448 13.2361 3.61867 12.7241 3.96C12.2228 4.29067 11.8495 4.74933 11.6041 5.336C11.3588 5.912 11.2361 6.57333 11.2361 7.32C11.2361 8.09867 11.3535 8.776 11.5881 9.352C11.8335 9.91733 12.1961 10.3547 12.6761 10.664C13.1561 10.9733 13.7641 11.128 14.5001 11.128C14.7988 11.128 15.0975 11.112 15.3961 11.08C15.6948 11.0373 15.9401 10.9893 16.1321 10.936V8.52H13.9241V6.568ZM25.4338 13H22.9858V3.608H19.8978V1.576H28.5218V3.608H25.4338V13ZM43.8324 7.096C43.8324 8.408 43.587 9.50133 43.0964 10.376C42.6057 11.2507 41.9124 11.9067 41.0164 12.344C40.131 12.7813 39.0697 13 37.8324 13H34.3444V1.576H38.1204C39.3257 1.576 40.3497 1.78933 41.1924 2.216C42.0457 2.632 42.6964 3.25067 43.1444 4.072C43.603 4.89333 43.8324 5.90133 43.8324 7.096ZM41.2724 7.192C41.2724 6.37067 41.1497 5.69333 40.9044 5.16C40.6697 4.62667 40.3124 4.232 39.8324 3.976C39.3524 3.70933 38.7604 3.576 38.0564 3.576H36.7924V10.984H37.8164C38.9897 10.984 39.859 10.6693 40.4244 10.04C40.9897 9.41067 41.2724 8.46133 41.2724 7.192ZM48.3031 4.264V13H45.8871V4.264H48.3031ZM47.1031 0.823999C47.4551 0.823999 47.7591 0.909333 48.0151 1.08C48.2818 1.24 48.4151 1.54933 48.4151 2.008C48.4151 2.44533 48.2818 2.74933 48.0151 2.92C47.7591 3.09067 47.4551 3.176 47.1031 3.176C46.7405 3.176 46.4311 3.09067 46.1751 2.92C45.9191 2.74933 45.7911 2.44533 45.7911 2.008C45.7911 1.54933 45.9191 1.24 46.1751 1.08C46.4311 0.909333 46.7405 0.823999 47.1031 0.823999ZM53.5644 4.104C54.1724 4.104 54.679 4.22133 55.0844 4.456C55.4897 4.68 55.8257 4.984 56.0924 5.368H56.1724L56.3804 4.264H58.4284V13.064C58.4284 13.8853 58.2684 14.5733 57.9484 15.128C57.6284 15.6933 57.143 16.12 56.4924 16.408C55.8524 16.696 55.0364 16.84 54.0444 16.84C53.3724 16.84 52.7697 16.7973 52.2364 16.712C51.703 16.6373 51.2017 16.504 50.7324 16.312V14.264C51.2124 14.4773 51.703 14.6427 52.2044 14.76C52.7164 14.8773 53.303 14.936 53.9644 14.936C54.6364 14.936 55.143 14.7813 55.4844 14.472C55.8364 14.1627 56.0124 13.736 56.0124 13.192V12.952C56.0124 12.824 56.0177 12.6533 56.0284 12.44C56.0497 12.2267 56.071 12.04 56.0924 11.88H56.0124C55.767 12.264 55.4417 12.5733 55.0364 12.808C54.6417 13.0427 54.1457 13.16 53.5484 13.16C52.5457 13.16 51.7404 12.7707 51.1324 11.992C50.535 11.2133 50.2364 10.0987 50.2364 8.648C50.2364 7.19733 50.5404 6.07733 51.1484 5.288C51.7564 4.49867 52.5617 4.104 53.5644 4.104ZM54.3484 6.008C53.9964 6.008 53.6924 6.10933 53.4364 6.312C53.191 6.51467 53.0044 6.81333 52.8764 7.208C52.759 7.60267 52.7004 8.09333 52.7004 8.68C52.7004 9.55467 52.839 10.2053 53.1164 10.632C53.4044 11.0587 53.831 11.272 54.3964 11.272C54.7164 11.272 54.9884 11.224 55.2124 11.128C55.4364 11.032 55.6177 10.8933 55.7564 10.712C55.895 10.52 55.9964 10.28 56.0604 9.992C56.135 9.704 56.1724 9.36267 56.1724 8.968V8.616C56.1724 8.02933 56.1137 7.544 55.9964 7.16C55.879 6.776 55.687 6.488 55.4204 6.296C55.1537 6.104 54.7964 6.008 54.3484 6.008ZM63.1938 4.264V13H60.7778V4.264H63.1938ZM61.9938 0.823999C62.3458 0.823999 62.6498 0.909333 62.9058 1.08C63.1724 1.24 63.3058 1.54933 63.3058 2.008C63.3058 2.44533 63.1724 2.74933 62.9058 2.92C62.6498 3.09067 62.3458 3.176 61.9938 3.176C61.6311 3.176 61.3218 3.09067 61.0658 2.92C60.8098 2.74933 60.6818 2.44533 60.6818 2.008C60.6818 1.54933 60.8098 1.24 61.0658 1.08C61.3218 0.909333 61.6311 0.823999 61.9938 0.823999ZM69.319 11.24C69.5643 11.24 69.799 11.2133 70.023 11.16C70.2577 11.1067 70.4763 11.048 70.679 10.984V12.76C70.423 12.8773 70.1243 12.9733 69.783 13.048C69.4523 13.1227 69.0577 13.16 68.599 13.16C68.0763 13.16 67.607 13.0747 67.191 12.904C66.7857 12.7333 66.4603 12.44 66.215 12.024C65.9803 11.5973 65.863 11.0053 65.863 10.248V6.072H64.727V5.048L66.039 4.248L66.743 2.408H68.279V4.264H70.567V6.072H68.279V10.104C68.279 10.488 68.3697 10.776 68.551 10.968C68.743 11.1493 68.999 11.24 69.319 11.24ZM76.1814 4.104C77.28 4.104 78.1174 4.36533 78.6934 4.888C79.2694 5.4 79.5574 6.16267 79.5574 7.176V13H77.8774L77.4134 11.816H77.3494C77.104 12.1253 76.848 12.3813 76.5814 12.584C76.3254 12.7867 76.0267 12.9307 75.6854 13.016C75.344 13.112 74.928 13.16 74.4374 13.16C73.9254 13.16 73.4667 13.064 73.0614 12.872C72.656 12.6693 72.336 12.3653 72.1014 11.96C71.8667 11.5547 71.7494 11.0427 71.7494 10.424C71.7494 9.50667 72.08 8.81867 72.7414 8.36C73.4027 7.90133 74.3894 7.64533 75.7014 7.592L77.1574 7.544V7.272C77.1574 6.74933 77.04 6.38667 76.8054 6.184C76.5707 5.97067 76.24 5.864 75.8134 5.864C75.4187 5.864 75.0134 5.928 74.5974 6.056C74.1814 6.184 73.7707 6.33867 73.3654 6.52L72.6614 4.872C73.12 4.63733 73.6427 4.45067 74.2294 4.312C74.8267 4.17333 75.4774 4.104 76.1814 4.104ZM76.2454 9C75.488 9.02133 74.96 9.144 74.6614 9.368C74.3627 9.592 74.2134 9.90667 74.2134 10.312C74.2134 10.6853 74.3147 10.9627 74.5174 11.144C74.7307 11.3147 75.008 11.4 75.3494 11.4C75.8614 11.4 76.288 11.2507 76.6294 10.952C76.9814 10.6533 77.1574 10.2267 77.1574 9.672V8.952L76.2454 9ZM84.2715 13H81.8555V0.839999H84.2715V13Z" fill="white"/>
</svg>
