<svg width="68" height="19" viewBox="0 0 68 19" fill="none" xmlns="http://www.w3.org/2000/svg">
<path d="M15.056 10.7116L4.17319 13.6277C3.34586 13.8493 2.85363 14.7017 3.07532 15.5291C3.29702 16.3565 4.14943 16.8487 4.97686 16.627L15.8596 13.711C16.687 13.4893 17.1793 12.6368 16.9576 11.8093C16.7359 10.9819 15.8833 10.49 15.056 10.7116Z" fill="#008AFF" stroke="black"/>
<path d="M14.6984 10.2483L14.6982 10.2481C14.4092 9.96943 14.2029 9.61977 14.1005 9.23771L13.5028 7.0071C12.9042 4.77308 10.8871 3.25487 8.63574 3.23521C8.63038 3.12609 8.61336 3.01684 8.58448 2.90906C8.36276 2.08159 7.51013 1.58971 6.68283 1.81138C5.85558 2.03304 5.36339 2.8854 5.58508 3.71275C5.62184 3.84994 5.67709 3.97961 5.74819 4.09901C3.96093 5.29355 3.09515 7.51112 3.66633 9.6428L4.26402 11.8734C4.36636 12.2553 4.36254 12.6613 4.2516 13.0474C4.2516 13.0474 4.2516 13.0474 4.25159 13.0474L4.22884 13.1266L3.98458 13.9766L4.8388 13.7477L14.5399 11.1483L15.3939 10.9194L14.7577 10.3055L14.6984 10.2483Z" fill="#008AFF" stroke="black"/>
<path d="M12.2632 15.2001L12.2582 15.1453L12.204 14.5544L11.6308 14.708L8.84569 15.4543L8.27254 15.6079L8.52107 16.1467L8.5441 16.1966C8.54412 16.1966 8.54414 16.1967 8.54415 16.1967C8.54418 16.1968 8.5442 16.1968 8.54423 16.1969C8.94317 17.0628 9.90271 17.5132 10.8236 17.2664C11.7447 17.0196 12.3508 16.1497 12.2632 15.2001Z" fill="#008AFF" stroke="black"/>
<mask id="path-4-outside-1_1125_2265" maskUnits="userSpaceOnUse" x="19.2986" y="3.5" width="49" height="13" fill="black">
<rect fill="white" x="19.2986" y="3.5" width="49" height="13"/>
<path d="M24.4596 14.5L22.1196 7.246H22.0676C22.0849 7.41933 22.0979 7.649 22.1066 7.935C22.1239 8.221 22.1369 8.533 22.1456 8.871C22.1629 9.20033 22.1716 9.52533 22.1716 9.846V14.5H20.4036V5.218H23.1076L25.4086 12.199H25.4606L27.7616 5.218H30.4656V14.5H28.6066V9.794C28.6066 9.49067 28.6109 9.183 28.6196 8.871C28.6283 8.55033 28.6413 8.247 28.6586 7.961C28.6759 7.675 28.6889 7.441 28.6976 7.259H28.6456L26.2926 14.5H24.4596ZM36.307 14.5H32.043V13.369L33.174 12.992V6.713L32.043 6.349V5.218H36.307V6.349L35.176 6.713V12.992L36.307 13.369V14.5ZM46.1527 14.5H43.6177L39.6137 7.506H39.5617C39.5791 7.70533 39.5921 7.94367 39.6007 8.221C39.6181 8.49833 39.6311 8.78433 39.6397 9.079C39.6571 9.37367 39.6657 9.65533 39.6657 9.924V14.5H37.8977V5.218H40.4197L44.4107 12.147H44.4627C44.4541 11.9737 44.4411 11.7527 44.4237 11.484C44.4064 11.2067 44.3934 10.9207 44.3847 10.626C44.3761 10.3227 44.3717 10.054 44.3717 9.82V5.218H46.1527V14.5ZM56.8087 9.846C56.8087 10.5653 56.7177 11.2197 56.5357 11.809C56.3623 12.3897 56.0937 12.8923 55.7297 13.317C55.3743 13.7417 54.9193 14.0667 54.3647 14.292C53.81 14.5173 53.1513 14.63 52.3887 14.63C51.6347 14.63 50.976 14.5173 50.4127 14.292C49.858 14.0667 49.3987 13.7417 49.0347 13.317C48.6793 12.8923 48.4107 12.3897 48.2287 11.809C48.0553 11.2197 47.9687 10.561 47.9687 9.833C47.9687 8.871 48.1247 8.03467 48.4367 7.324C48.7573 6.61333 49.2427 6.063 49.8927 5.673C50.5513 5.27433 51.3877 5.075 52.4017 5.075C53.407 5.075 54.2347 5.27433 54.8847 5.673C55.5433 6.063 56.0287 6.61767 56.3407 7.337C56.6527 8.04767 56.8087 8.884 56.8087 9.846ZM50.0617 9.846C50.0617 10.4873 50.1397 11.042 50.2957 11.51C50.4603 11.978 50.716 12.3377 51.0627 12.589C51.4093 12.8317 51.8513 12.953 52.3887 12.953C52.9433 12.953 53.3897 12.8317 53.7277 12.589C54.0743 12.3377 54.3257 11.978 54.4817 11.51C54.6377 11.042 54.7157 10.4873 54.7157 9.846C54.7157 8.87533 54.538 8.11267 54.1827 7.558C53.8273 7.00333 53.2337 6.726 52.4017 6.726C51.8557 6.726 51.4093 6.85167 51.0627 7.103C50.716 7.35433 50.4603 7.714 50.2957 8.182C50.1397 8.64133 50.0617 9.196 50.0617 9.846ZM61.4889 5.218C62.3035 5.218 62.9795 5.322 63.5169 5.53C64.0542 5.72933 64.4529 6.02833 64.7129 6.427C64.9815 6.82567 65.1159 7.324 65.1159 7.922C65.1159 8.338 65.0422 8.70633 64.8949 9.027C64.7475 9.34767 64.5482 9.62067 64.2969 9.846C64.0455 10.0713 63.7595 10.2577 63.4389 10.405L66.0779 14.5H63.8029L61.7359 10.938H60.6309V14.5H58.6419V5.218H61.4889ZM61.4499 6.765H60.6309V9.404H61.4499C61.9785 9.404 62.3859 9.29567 62.6719 9.079C62.9579 8.86233 63.1009 8.507 63.1009 8.013C63.1009 7.73567 63.0402 7.506 62.9189 7.324C62.8062 7.142 62.6285 7.00333 62.3859 6.908C62.1432 6.81267 61.8312 6.765 61.4499 6.765Z"/>
</mask>
<path d="M24.4596 14.5L22.1196 7.246H22.0676C22.0849 7.41933 22.0979 7.649 22.1066 7.935C22.1239 8.221 22.1369 8.533 22.1456 8.871C22.1629 9.20033 22.1716 9.52533 22.1716 9.846V14.5H20.4036V5.218H23.1076L25.4086 12.199H25.4606L27.7616 5.218H30.4656V14.5H28.6066V9.794C28.6066 9.49067 28.6109 9.183 28.6196 8.871C28.6283 8.55033 28.6413 8.247 28.6586 7.961C28.6759 7.675 28.6889 7.441 28.6976 7.259H28.6456L26.2926 14.5H24.4596ZM36.307 14.5H32.043V13.369L33.174 12.992V6.713L32.043 6.349V5.218H36.307V6.349L35.176 6.713V12.992L36.307 13.369V14.5ZM46.1527 14.5H43.6177L39.6137 7.506H39.5617C39.5791 7.70533 39.5921 7.94367 39.6007 8.221C39.6181 8.49833 39.6311 8.78433 39.6397 9.079C39.6571 9.37367 39.6657 9.65533 39.6657 9.924V14.5H37.8977V5.218H40.4197L44.4107 12.147H44.4627C44.4541 11.9737 44.4411 11.7527 44.4237 11.484C44.4064 11.2067 44.3934 10.9207 44.3847 10.626C44.3761 10.3227 44.3717 10.054 44.3717 9.82V5.218H46.1527V14.5ZM56.8087 9.846C56.8087 10.5653 56.7177 11.2197 56.5357 11.809C56.3623 12.3897 56.0937 12.8923 55.7297 13.317C55.3743 13.7417 54.9193 14.0667 54.3647 14.292C53.81 14.5173 53.1513 14.63 52.3887 14.63C51.6347 14.63 50.976 14.5173 50.4127 14.292C49.858 14.0667 49.3987 13.7417 49.0347 13.317C48.6793 12.8923 48.4107 12.3897 48.2287 11.809C48.0553 11.2197 47.9687 10.561 47.9687 9.833C47.9687 8.871 48.1247 8.03467 48.4367 7.324C48.7573 6.61333 49.2427 6.063 49.8927 5.673C50.5513 5.27433 51.3877 5.075 52.4017 5.075C53.407 5.075 54.2347 5.27433 54.8847 5.673C55.5433 6.063 56.0287 6.61767 56.3407 7.337C56.6527 8.04767 56.8087 8.884 56.8087 9.846ZM50.0617 9.846C50.0617 10.4873 50.1397 11.042 50.2957 11.51C50.4603 11.978 50.716 12.3377 51.0627 12.589C51.4093 12.8317 51.8513 12.953 52.3887 12.953C52.9433 12.953 53.3897 12.8317 53.7277 12.589C54.0743 12.3377 54.3257 11.978 54.4817 11.51C54.6377 11.042 54.7157 10.4873 54.7157 9.846C54.7157 8.87533 54.538 8.11267 54.1827 7.558C53.8273 7.00333 53.2337 6.726 52.4017 6.726C51.8557 6.726 51.4093 6.85167 51.0627 7.103C50.716 7.35433 50.4603 7.714 50.2957 8.182C50.1397 8.64133 50.0617 9.196 50.0617 9.846ZM61.4889 5.218C62.3035 5.218 62.9795 5.322 63.5169 5.53C64.0542 5.72933 64.4529 6.02833 64.7129 6.427C64.9815 6.82567 65.1159 7.324 65.1159 7.922C65.1159 8.338 65.0422 8.70633 64.8949 9.027C64.7475 9.34767 64.5482 9.62067 64.2969 9.846C64.0455 10.0713 63.7595 10.2577 63.4389 10.405L66.0779 14.5H63.8029L61.7359 10.938H60.6309V14.5H58.6419V5.218H61.4889ZM61.4499 6.765H60.6309V9.404H61.4499C61.9785 9.404 62.3859 9.29567 62.6719 9.079C62.9579 8.86233 63.1009 8.507 63.1009 8.013C63.1009 7.73567 63.0402 7.506 62.9189 7.324C62.8062 7.142 62.6285 7.00333 62.3859 6.908C62.1432 6.81267 61.8312 6.765 61.4499 6.765Z" fill="#008AFF"/>
<path d="M24.4596 14.5L23.5079 14.807L23.7314 15.5H24.4596V14.5ZM22.1196 7.246L23.0713 6.939L22.8477 6.246H22.1196V7.246ZM22.0676 7.246V6.246H20.9626L21.0725 7.3455L22.0676 7.246ZM22.1066 7.935L21.107 7.96529L21.1075 7.9804L21.1084 7.9955L22.1066 7.935ZM22.1456 8.871L21.1459 8.89663L21.1463 8.9101L21.147 8.92356L22.1456 8.871ZM22.1716 14.5V15.5H23.1716V14.5H22.1716ZM20.4036 14.5H19.4036V15.5H20.4036V14.5ZM20.4036 5.218V4.218H19.4036V5.218H20.4036ZM23.1076 5.218L24.0573 4.90496L23.8309 4.218H23.1076V5.218ZM25.4086 12.199L24.4588 12.512L24.6853 13.199H25.4086V12.199ZM25.4606 12.199V13.199H26.1839L26.4103 12.512L25.4606 12.199ZM27.7616 5.218V4.218H27.0383L26.8118 4.90496L27.7616 5.218ZM30.4656 5.218H31.4656V4.218H30.4656V5.218ZM30.4656 14.5V15.5H31.4656V14.5H30.4656ZM28.6066 14.5H27.6066V15.5H28.6066V14.5ZM28.6196 8.871L29.6192 8.89877L29.6192 8.89802L28.6196 8.871ZM28.6586 7.961L27.6604 7.9005L27.6604 7.90051L28.6586 7.961ZM28.6976 7.259L29.6965 7.30656L29.7463 6.259H28.6976V7.259ZM28.6456 7.259V6.259H27.9191L27.6945 6.94995L28.6456 7.259ZM26.2926 14.5V15.5H27.0191L27.2436 14.809L26.2926 14.5ZM25.4113 14.193L23.0713 6.939L21.1679 7.553L23.5079 14.807L25.4113 14.193ZM22.1196 6.246H22.0676V8.246H22.1196V6.246ZM21.0725 7.3455C21.0866 7.48598 21.0987 7.68979 21.107 7.96529L23.1061 7.90471C23.0971 7.60821 23.0832 7.35268 23.0626 7.1465L21.0725 7.3455ZM21.1084 7.9955C21.1249 8.26804 21.1375 8.56826 21.1459 8.89663L23.1453 8.84537C23.1363 8.49774 23.1229 8.17395 23.1048 7.8745L21.1084 7.9955ZM21.147 8.92356C21.1634 9.23588 21.1716 9.54335 21.1716 9.846H23.1716C23.1716 9.50732 23.1624 9.16478 23.1442 8.81844L21.147 8.92356ZM21.1716 9.846V14.5H23.1716V9.846H21.1716ZM22.1716 13.5H20.4036V15.5H22.1716V13.5ZM21.4036 14.5V5.218H19.4036V14.5H21.4036ZM20.4036 6.218H23.1076V4.218H20.4036V6.218ZM22.1578 5.53104L24.4588 12.512L26.3583 11.886L24.0573 4.90496L22.1578 5.53104ZM25.4086 13.199H25.4606V11.199H25.4086V13.199ZM26.4103 12.512L28.7113 5.53104L26.8118 4.90496L24.5108 11.886L26.4103 12.512ZM27.7616 6.218H30.4656V4.218H27.7616V6.218ZM29.4656 5.218V14.5H31.4656V5.218H29.4656ZM30.4656 13.5H28.6066V15.5H30.4656V13.5ZM29.6066 14.5V9.794H27.6066V14.5H29.6066ZM29.6066 9.794C29.6066 9.50019 29.6108 9.20178 29.6192 8.89877L27.62 8.84323C27.6111 9.16422 27.6066 9.48115 27.6066 9.794H29.6066ZM29.6192 8.89802C29.6276 8.58722 29.6402 8.29512 29.6568 8.02149L27.6604 7.90051C27.6423 8.19888 27.6289 8.51344 27.6199 8.84398L29.6192 8.89802ZM29.6568 8.0215C29.6742 7.73332 29.6875 7.49458 29.6965 7.30656L27.6987 7.21143C27.6903 7.38742 27.6776 7.61668 27.6604 7.9005L29.6568 8.0215ZM28.6976 6.259H28.6456V8.259H28.6976V6.259ZM27.6945 6.94995L25.3415 14.191L27.2436 14.809L29.5966 7.56805L27.6945 6.94995ZM26.2926 13.5H24.4596V15.5H26.2926V13.5ZM36.307 14.5V15.5H37.307V14.5H36.307ZM32.043 14.5H31.043V15.5H32.043V14.5ZM32.043 13.369L31.7267 12.4203L31.043 12.6482V13.369H32.043ZM33.174 12.992L33.4902 13.9407L34.174 13.7128V12.992H33.174ZM33.174 6.713H34.174V5.98432L33.4803 5.76108L33.174 6.713ZM32.043 6.349H31.043V7.07767L31.7366 7.30091L32.043 6.349ZM32.043 5.218V4.218H31.043V5.218H32.043ZM36.307 5.218H37.307V4.218H36.307V5.218ZM36.307 6.349L36.6133 7.30091L37.307 7.07767V6.349H36.307ZM35.176 6.713L34.8696 5.76108L34.176 5.98432V6.713H35.176ZM35.176 12.992H34.176V13.7128L34.8597 13.9407L35.176 12.992ZM36.307 13.369H37.307V12.6482L36.6232 12.4203L36.307 13.369ZM36.307 13.5H32.043V15.5H36.307V13.5ZM33.043 14.5V13.369H31.043V14.5H33.043ZM32.3592 14.3177L33.4902 13.9407L32.8577 12.0433L31.7267 12.4203L32.3592 14.3177ZM34.174 12.992V6.713H32.174V12.992H34.174ZM33.4803 5.76108L32.3493 5.39708L31.7366 7.30091L32.8676 7.66491L33.4803 5.76108ZM33.043 6.349V5.218H31.043V6.349H33.043ZM32.043 6.218H36.307V4.218H32.043V6.218ZM35.307 5.218V6.349H37.307V5.218H35.307ZM36.0006 5.39708L34.8696 5.76108L35.4823 7.66491L36.6133 7.30091L36.0006 5.39708ZM34.176 6.713V12.992H36.176V6.713H34.176ZM34.8597 13.9407L35.9907 14.3177L36.6232 12.4203L35.4922 12.0433L34.8597 13.9407ZM35.307 13.369V14.5H37.307V13.369H35.307ZM46.1527 14.5V15.5H47.1527V14.5H46.1527ZM43.6177 14.5L42.7499 14.9968L43.0379 15.5H43.6177V14.5ZM39.6137 7.506L40.4816 7.00917L40.1935 6.506H39.6137V7.506ZM39.5617 7.506V6.506H38.471L38.5655 7.59263L39.5617 7.506ZM39.6007 8.221L38.6012 8.25223L38.6017 8.26782L38.6027 8.28338L39.6007 8.221ZM39.6397 9.079L38.6402 9.1084L38.6406 9.12307L38.6415 9.13772L39.6397 9.079ZM39.6657 14.5V15.5H40.6657V14.5H39.6657ZM37.8977 14.5H36.8977V15.5H37.8977V14.5ZM37.8977 5.218V4.218H36.8977V5.218H37.8977ZM40.4197 5.218L41.2863 4.71889L40.9978 4.218H40.4197V5.218ZM44.4107 12.147L43.5442 12.6461L43.8327 13.147H44.4107V12.147ZM44.4627 12.147V13.147H45.514L45.4615 12.0971L44.4627 12.147ZM44.4237 11.484L43.4257 11.5464L43.4258 11.5484L44.4237 11.484ZM44.3847 10.626L43.3851 10.6546L43.3852 10.6554L44.3847 10.626ZM44.3717 5.218V4.218H43.3717V5.218H44.3717ZM46.1527 5.218H47.1527V4.218H46.1527V5.218ZM46.1527 13.5H43.6177V15.5H46.1527V13.5ZM44.4856 14.0032L40.4816 7.00917L38.7459 8.00283L42.7499 14.9968L44.4856 14.0032ZM39.6137 6.506H39.5617V8.506H39.6137V6.506ZM38.5655 7.59263C38.5807 7.76804 38.5929 7.98691 38.6012 8.25223L40.6002 8.18977C40.5912 7.90042 40.5774 7.64263 40.558 7.41937L38.5655 7.59263ZM38.6027 8.28338C38.6193 8.54909 38.6318 8.82407 38.6402 9.1084L40.6393 9.0496C40.6303 8.74459 40.6168 8.44758 40.5988 8.15862L38.6027 8.28338ZM38.6415 9.13772C38.6577 9.41472 38.6657 9.67672 38.6657 9.924H40.6657C40.6657 9.63395 40.6564 9.33261 40.638 9.02028L38.6415 9.13772ZM38.6657 9.924V14.5H40.6657V9.924H38.6657ZM39.6657 13.5H37.8977V15.5H39.6657V13.5ZM38.8977 14.5V5.218H36.8977V14.5H38.8977ZM37.8977 6.218H40.4197V4.218H37.8977V6.218ZM39.5532 5.71711L43.5442 12.6461L45.2773 11.6479L41.2863 4.71889L39.5532 5.71711ZM44.4107 13.147H44.4627V11.147H44.4107V13.147ZM45.4615 12.0971C45.4525 11.9171 45.4391 11.6908 45.4217 11.4196L43.4258 11.5484C43.443 11.8145 43.4556 12.0303 43.464 12.1969L45.4615 12.0971ZM45.4218 11.4216C45.4052 11.1559 45.3927 10.8809 45.3843 10.5966L43.3852 10.6554C43.3941 10.9604 43.4076 11.2574 43.4257 11.5464L45.4218 11.4216ZM45.3843 10.5974C45.3758 10.301 45.3717 10.0422 45.3717 9.82H43.3717C43.3717 10.0658 43.3763 10.3443 43.3851 10.6546L45.3843 10.5974ZM45.3717 9.82V5.218H43.3717V9.82H45.3717ZM44.3717 6.218H46.1527V4.218H44.3717V6.218ZM45.1527 5.218V14.5H47.1527V5.218H45.1527ZM56.5357 11.809L55.5801 11.5139L55.5774 11.523L56.5357 11.809ZM55.7297 13.317L54.9704 12.6662L54.9627 12.6753L55.7297 13.317ZM54.3647 14.292L54.741 15.2185L54.741 15.2185L54.3647 14.292ZM50.4127 14.292L50.0363 15.2185L50.0413 15.2205L50.4127 14.292ZM49.0347 13.317L48.2677 13.9588L48.2754 13.9678L49.0347 13.317ZM48.2287 11.809L47.2693 12.0912L47.2718 12.0996L47.2744 12.1081L48.2287 11.809ZM48.4367 7.324L47.5251 6.91269L47.521 6.92201L48.4367 7.324ZM49.8927 5.673L50.4072 6.5305L50.4105 6.5285L49.8927 5.673ZM54.8847 5.673L54.3618 6.52544L54.3685 6.52951L54.3752 6.53348L54.8847 5.673ZM56.3407 7.337L55.4232 7.73492L55.425 7.73899L56.3407 7.337ZM50.2957 11.51L49.347 11.8262L49.3496 11.8341L49.3523 11.8419L50.2957 11.51ZM51.0627 12.589L50.4757 13.3986L50.4824 13.4035L50.4892 13.4082L51.0627 12.589ZM53.7277 12.589L54.3109 13.4013L54.3146 13.3986L53.7277 12.589ZM54.4817 11.51L55.4303 11.8262L55.4303 11.8262L54.4817 11.51ZM54.1827 7.558L55.0247 7.01857L55.0247 7.01857L54.1827 7.558ZM51.0627 7.103L51.6496 7.91261L51.6496 7.91261L51.0627 7.103ZM50.2957 8.182L49.3523 7.85007L49.3488 7.86042L50.2957 8.182ZM55.8087 9.846C55.8087 10.4815 55.7282 11.0345 55.5802 11.5139L57.4911 12.1041C57.7071 11.4048 57.8087 10.6492 57.8087 9.846H55.8087ZM55.5774 11.523C55.4408 11.9808 55.2359 12.3565 54.9704 12.6662L56.4889 13.9678C56.9514 13.4282 57.2839 12.7985 57.4939 12.095L55.5774 11.523ZM54.9627 12.6753C54.7207 12.9645 54.4041 13.1966 53.9883 13.3655L54.741 15.2185C55.4346 14.9367 56.0279 14.5189 56.4966 13.9587L54.9627 12.6753ZM53.9883 13.3655C53.581 13.531 53.0562 13.63 52.3887 13.63V15.63C53.2465 15.63 54.039 15.5037 54.741 15.2185L53.9883 13.3655ZM52.3887 13.63C51.7321 13.63 51.2044 13.5317 50.7841 13.3635L50.0413 15.2205C50.7476 15.503 51.5373 15.63 52.3887 15.63V13.63ZM50.789 13.3655C50.3715 13.1959 50.0469 12.9613 49.7939 12.6662L48.2754 13.9678C48.7505 14.522 49.3445 14.9374 50.0363 15.2185L50.789 13.3655ZM49.8016 12.6753C49.5386 12.361 49.3295 11.9776 49.1829 11.5099L47.2744 12.1081C47.4918 12.8017 47.8201 13.4237 48.2677 13.9587L49.8016 12.6753ZM49.188 11.5268C49.0461 11.0442 48.9687 10.4826 48.9687 9.833H46.9687C46.9687 10.6394 47.0646 11.3951 47.2693 12.0912L49.188 11.5268ZM48.9687 9.833C48.9687 8.97719 49.1076 8.28345 49.3523 7.72599L47.521 6.92201C47.1418 7.78588 46.9687 8.76481 46.9687 9.833H48.9687ZM49.3482 7.73529C49.5876 7.20468 49.9371 6.81253 50.4072 6.53049L49.3782 4.81551C48.5482 5.31347 47.9271 6.02199 47.5252 6.91271L49.3482 7.73529ZM50.4105 6.5285C50.8709 6.24984 51.5138 6.075 52.4017 6.075V4.075C51.2615 4.075 50.2318 4.29883 49.3749 4.8175L50.4105 6.5285ZM52.4017 6.075C53.2798 6.075 53.9118 6.24939 54.3618 6.52544L55.4075 4.82056C54.5576 4.29927 53.5342 4.075 52.4017 4.075V6.075ZM54.3752 6.53348C54.8479 6.81335 55.1929 7.20386 55.4232 7.73492L57.2581 6.93908C56.8644 6.03147 56.2388 5.31265 55.3942 4.81252L54.3752 6.53348ZM55.425 7.73899C55.6698 8.29645 55.8087 8.99019 55.8087 9.846H57.8087C57.8087 8.77781 57.6356 7.79888 57.2563 6.93501L55.425 7.73899ZM49.0617 9.846C49.0617 10.5644 49.1485 11.2309 49.347 11.8262L51.2443 11.1938C51.1308 10.8531 51.0617 10.4103 51.0617 9.846H49.0617ZM49.3523 11.8419C49.5735 12.4703 49.9395 13.0098 50.4757 13.3986L51.6496 11.7794C51.4925 11.6655 51.3472 11.4857 51.239 11.1781L49.3523 11.8419ZM50.4892 13.4082C51.0443 13.7968 51.7016 13.953 52.3887 13.953V11.953C52.001 11.953 51.7744 11.8665 51.6361 11.7698L50.4892 13.4082ZM52.3887 13.953C53.0837 13.953 53.7544 13.8008 54.3109 13.4013L53.1445 11.7767C53.0249 11.8625 52.8029 11.953 52.3887 11.953V13.953ZM54.3146 13.3986C54.8553 13.0066 55.2187 12.4612 55.4303 11.8262L53.533 11.1938C53.4326 11.4948 53.2934 11.6687 53.1407 11.7794L54.3146 13.3986ZM55.4303 11.8262C55.6288 11.2309 55.7157 10.5644 55.7157 9.846H53.7157C53.7157 10.4103 53.6465 10.8531 53.533 11.1938L55.4303 11.8262ZM55.7157 9.846C55.7157 8.76933 55.5211 7.79347 55.0247 7.01857L53.3406 8.09743C53.5549 8.43186 53.7157 8.98134 53.7157 9.846H55.7157ZM55.0247 7.01857C54.4365 6.10044 53.4725 5.726 52.4017 5.726V7.726C52.9949 7.726 53.2181 7.90623 53.3406 8.09743L55.0247 7.01857ZM52.4017 5.726C51.7031 5.726 51.0348 5.888 50.4757 6.29339L51.6496 7.91261C51.7838 7.81533 52.0082 7.726 52.4017 7.726V5.726ZM50.4757 6.29339C49.9395 6.68215 49.5735 7.22167 49.3523 7.85009L51.239 8.51391C51.3472 8.20632 51.4925 8.02651 51.6496 7.91261L50.4757 6.29339ZM49.3488 7.86042C49.1479 8.45179 49.0617 9.1214 49.0617 9.846H51.0617C51.0617 9.2706 51.1314 8.83088 51.2425 8.50358L49.3488 7.86042ZM63.5169 5.53L63.1558 6.46266L63.1691 6.46757L63.5169 5.53ZM64.7129 6.427L63.8753 6.97327L63.8794 6.97959L63.8836 6.98585L64.7129 6.427ZM64.8949 9.027L65.8035 9.4445L65.8035 9.4445L64.8949 9.027ZM64.2969 9.846L64.9644 10.5906L64.9644 10.5906L64.2969 9.846ZM63.4389 10.405L63.0214 9.49632L61.9738 9.97764L62.5983 10.9467L63.4389 10.405ZM66.0779 14.5V15.5H67.912L66.9184 13.9583L66.0779 14.5ZM63.8029 14.5L62.9379 15.0019L63.227 15.5H63.8029V14.5ZM61.7359 10.938L62.6008 10.4361L62.3117 9.938H61.7359V10.938ZM60.6309 10.938V9.938H59.6309V10.938H60.6309ZM60.6309 14.5V15.5H61.6309V14.5H60.6309ZM58.6419 14.5H57.6419V15.5H58.6419V14.5ZM58.6419 5.218V4.218H57.6419V5.218H58.6419ZM60.6309 6.765V5.765H59.6309V6.765H60.6309ZM60.6309 9.404H59.6309V10.404H60.6309V9.404ZM62.6719 9.079L62.068 8.28191L62.068 8.28191L62.6719 9.079ZM62.9189 7.324L62.0686 7.85035L62.0775 7.86468L62.0868 7.8787L62.9189 7.324ZM62.3859 6.908L62.7515 5.97725L62.7515 5.97725L62.3859 6.908ZM61.4889 6.218C62.2272 6.218 62.7707 6.31347 63.1559 6.46257L63.8779 4.59743C63.1884 4.33053 62.3799 4.218 61.4889 4.218V6.218ZM63.1691 6.46757C63.5475 6.60795 63.7547 6.78844 63.8753 6.97327L65.5505 5.88073C65.151 5.26823 64.5609 4.85071 63.8647 4.59243L63.1691 6.46757ZM63.8836 6.98585C64.0165 7.1831 64.1159 7.47434 64.1159 7.922H66.1159C66.1159 7.17366 65.9465 6.46823 65.5421 5.86815L63.8836 6.98585ZM64.1159 7.922C64.1159 8.21938 64.0635 8.44114 63.9862 8.6095L65.8035 9.4445C66.0209 8.97152 66.1159 8.45662 66.1159 7.922H64.1159ZM63.9862 8.6095C63.8934 8.81156 63.7741 8.97161 63.6293 9.10143L64.9644 10.5906C65.3223 10.2697 65.6017 9.88378 65.8035 9.4445L63.9862 8.6095ZM63.6293 9.10143C63.456 9.25684 63.2551 9.38894 63.0214 9.49632L63.8564 11.3137C64.264 11.1264 64.6351 10.8858 64.9644 10.5906L63.6293 9.10143ZM62.5983 10.9467L65.2373 15.0417L66.9184 13.9583L64.2794 9.8633L62.5983 10.9467ZM66.0779 13.5H63.8029V15.5H66.0779V13.5ZM64.6678 13.9981L62.6008 10.4361L60.8709 11.4399L62.9379 15.0019L64.6678 13.9981ZM61.7359 9.938H60.6309V11.938H61.7359V9.938ZM59.6309 10.938V14.5H61.6309V10.938H59.6309ZM60.6309 13.5H58.6419V15.5H60.6309V13.5ZM59.6419 14.5V5.218H57.6419V14.5H59.6419ZM58.6419 6.218H61.4889V4.218H58.6419V6.218ZM61.4499 5.765H60.6309V7.765H61.4499V5.765ZM59.6309 6.765V9.404H61.6309V6.765H59.6309ZM60.6309 10.404H61.4499V8.404H60.6309V10.404ZM61.4499 10.404C62.0976 10.404 62.7509 10.2737 63.2757 9.87609L62.068 8.28191C62.0209 8.31762 61.8594 8.404 61.4499 8.404V10.404ZM63.2757 9.87609C63.8971 9.40535 64.1009 8.69386 64.1009 8.013H62.1009C62.1009 8.16745 62.078 8.24658 62.0659 8.27666C62.0573 8.29815 62.0569 8.29033 62.068 8.28191L63.2757 9.87609ZM64.1009 8.013C64.1009 7.59097 64.0077 7.15455 63.7509 6.7693L62.0868 7.8787C62.0726 7.85745 62.1009 7.88036 62.1009 8.013H64.1009ZM63.7691 6.79764C63.5198 6.39494 63.1503 6.13392 62.7515 5.97725L62.0202 7.83875C62.0656 7.8566 62.0837 7.87017 62.0858 7.87182C62.0869 7.87261 62.0847 7.87106 62.0809 7.8668C62.077 7.86248 62.0726 7.85686 62.0686 7.85035L63.7691 6.79764ZM62.7515 5.97725C62.3517 5.82017 61.9036 5.765 61.4499 5.765V7.765C61.7588 7.765 61.9347 7.80516 62.0202 7.83875L62.7515 5.97725Z" fill="black" mask="url(#path-4-outside-1_1125_2265)"/>
</svg>
