<svg width="67" height="19" viewBox="0 0 67 19" fill="none" xmlns="http://www.w3.org/2000/svg">
<path d="M15.056 10.7116L4.17319 13.6277C3.34586 13.8493 2.85363 14.7017 3.07532 15.5291C3.29702 16.3565 4.14943 16.8487 4.97686 16.627L15.8596 13.711C16.687 13.4893 17.1793 12.6368 16.9576 11.8093C16.7359 10.9819 15.8833 10.49 15.056 10.7116Z" fill="#3EDB00" stroke="black"/>
<path d="M14.6984 10.2483L14.6982 10.2481C14.4092 9.96943 14.2029 9.61977 14.1005 9.23771L13.5028 7.0071C12.9042 4.77308 10.8871 3.25487 8.63574 3.23521C8.63038 3.12609 8.61336 3.01684 8.58448 2.90906C8.36276 2.08159 7.51013 1.58971 6.68283 1.81138C5.85558 2.03304 5.36339 2.8854 5.58508 3.71275C5.62184 3.84994 5.67709 3.97961 5.74819 4.09901C3.96093 5.29355 3.09515 7.51112 3.66633 9.6428L4.26402 11.8734C4.36636 12.2553 4.36254 12.6613 4.2516 13.0474C4.2516 13.0474 4.2516 13.0474 4.25159 13.0474L4.22884 13.1266L3.98458 13.9766L4.8388 13.7477L14.5399 11.1483L15.3939 10.9194L14.7577 10.3055L14.6984 10.2483Z" fill="#3EDB00" stroke="black"/>
<path d="M12.2632 15.2001L12.2582 15.1453L12.204 14.5544L11.6308 14.708L8.84569 15.4543L8.27254 15.6079L8.52107 16.1467L8.5441 16.1966C8.54412 16.1966 8.54414 16.1967 8.54415 16.1967C8.54418 16.1968 8.5442 16.1968 8.54423 16.1969C8.94317 17.0628 9.90271 17.5132 10.8236 17.2664C11.7447 17.0196 12.3508 16.1497 12.2632 15.2001Z" fill="#3EDB00" stroke="black"/>
<mask id="path-4-outside-1_1125_2292" maskUnits="userSpaceOnUse" x="19.2986" y="3.5" width="47" height="15" fill="black">
<rect fill="white" x="19.2986" y="3.5" width="47" height="15"/>
<path d="M24.4596 14.5L22.1196 7.246H22.0676C22.0849 7.41933 22.0979 7.649 22.1066 7.935C22.1239 8.221 22.1369 8.533 22.1456 8.871C22.1629 9.20033 22.1716 9.52533 22.1716 9.846V14.5H20.4036V5.218H23.1076L25.4086 12.199H25.4606L27.7616 5.218H30.4656V14.5H28.6066V9.794C28.6066 9.49067 28.6109 9.183 28.6196 8.871C28.6283 8.55033 28.6413 8.247 28.6586 7.961C28.6759 7.675 28.6889 7.441 28.6976 7.259H28.6456L26.2926 14.5H24.4596ZM38.426 14.5L37.711 12.316H34.435L33.72 14.5H31.575L34.838 5.179H37.282L40.571 14.5H38.426ZM36.606 8.637C36.5713 8.507 36.515 8.312 36.437 8.052C36.3676 7.792 36.2983 7.52767 36.229 7.259C36.1596 6.98167 36.1033 6.75633 36.06 6.583C36.0253 6.78233 35.9733 7.012 35.904 7.272C35.8433 7.532 35.7826 7.78333 35.722 8.026C35.6613 8.26867 35.6093 8.47233 35.566 8.637L34.903 10.652H37.256L36.606 8.637ZM41.3664 17.243C41.1151 17.243 40.8941 17.2257 40.7034 17.191C40.5127 17.165 40.3437 17.1347 40.1964 17.1V15.514C40.3351 15.5487 40.4824 15.579 40.6384 15.605C40.7944 15.631 40.9591 15.644 41.1324 15.644C41.4011 15.644 41.6221 15.592 41.7954 15.488C41.9774 15.384 42.1117 15.2107 42.1984 14.968C42.2851 14.734 42.3284 14.4307 42.3284 14.058V5.218H44.3304V13.889C44.3304 14.6863 44.2047 15.332 43.9534 15.826C43.7021 16.32 43.3554 16.6797 42.9134 16.905C42.4714 17.1303 41.9557 17.243 41.3664 17.243ZM54.9551 9.846C54.9551 10.5653 54.8641 11.2197 54.6821 11.809C54.5088 12.3897 54.2401 12.8923 53.8761 13.317C53.5208 13.7417 53.0658 14.0667 52.5111 14.292C51.9565 14.5173 51.2978 14.63 50.5351 14.63C49.7811 14.63 49.1225 14.5173 48.5591 14.292C48.0045 14.0667 47.5451 13.7417 47.1811 13.317C46.8258 12.8923 46.5571 12.3897 46.3751 11.809C46.2018 11.2197 46.1151 10.561 46.1151 9.833C46.1151 8.871 46.2711 8.03467 46.5831 7.324C46.9038 6.61333 47.3891 6.063 48.0391 5.673C48.6978 5.27433 49.5341 5.075 50.5481 5.075C51.5535 5.075 52.3811 5.27433 53.0311 5.673C53.6898 6.063 54.1751 6.61767 54.4871 7.337C54.7991 8.04767 54.9551 8.884 54.9551 9.846ZM48.2081 9.846C48.2081 10.4873 48.2861 11.042 48.4421 11.51C48.6068 11.978 48.8625 12.3377 49.2091 12.589C49.5558 12.8317 49.9978 12.953 50.5351 12.953C51.0898 12.953 51.5361 12.8317 51.8741 12.589C52.2208 12.3377 52.4721 11.978 52.6281 11.51C52.7841 11.042 52.8621 10.4873 52.8621 9.846C52.8621 8.87533 52.6845 8.11267 52.3291 7.558C51.9738 7.00333 51.3801 6.726 50.5481 6.726C50.0021 6.726 49.5558 6.85167 49.2091 7.103C48.8625 7.35433 48.6068 7.714 48.4421 8.182C48.2861 8.64133 48.2081 9.196 48.2081 9.846ZM59.6353 5.218C60.45 5.218 61.126 5.322 61.6633 5.53C62.2007 5.72933 62.5993 6.02833 62.8594 6.427C63.128 6.82567 63.2623 7.324 63.2623 7.922C63.2623 8.338 63.1887 8.70633 63.0414 9.027C62.894 9.34767 62.6947 9.62067 62.4434 9.846C62.192 10.0713 61.906 10.2577 61.5853 10.405L64.2243 14.5H61.9493L59.8823 10.938H58.7773V14.5H56.7883V5.218H59.6353ZM59.5963 6.765H58.7773V9.404H59.5963C60.125 9.404 60.5323 9.29567 60.8183 9.079C61.1043 8.86233 61.2474 8.507 61.2474 8.013C61.2474 7.73567 61.1867 7.506 61.0654 7.324C60.9527 7.142 60.775 7.00333 60.5323 6.908C60.2897 6.81267 59.9777 6.765 59.5963 6.765Z"/>
</mask>
<path d="M24.4596 14.5L22.1196 7.246H22.0676C22.0849 7.41933 22.0979 7.649 22.1066 7.935C22.1239 8.221 22.1369 8.533 22.1456 8.871C22.1629 9.20033 22.1716 9.52533 22.1716 9.846V14.5H20.4036V5.218H23.1076L25.4086 12.199H25.4606L27.7616 5.218H30.4656V14.5H28.6066V9.794C28.6066 9.49067 28.6109 9.183 28.6196 8.871C28.6283 8.55033 28.6413 8.247 28.6586 7.961C28.6759 7.675 28.6889 7.441 28.6976 7.259H28.6456L26.2926 14.5H24.4596ZM38.426 14.5L37.711 12.316H34.435L33.72 14.5H31.575L34.838 5.179H37.282L40.571 14.5H38.426ZM36.606 8.637C36.5713 8.507 36.515 8.312 36.437 8.052C36.3676 7.792 36.2983 7.52767 36.229 7.259C36.1596 6.98167 36.1033 6.75633 36.06 6.583C36.0253 6.78233 35.9733 7.012 35.904 7.272C35.8433 7.532 35.7826 7.78333 35.722 8.026C35.6613 8.26867 35.6093 8.47233 35.566 8.637L34.903 10.652H37.256L36.606 8.637ZM41.3664 17.243C41.1151 17.243 40.8941 17.2257 40.7034 17.191C40.5127 17.165 40.3437 17.1347 40.1964 17.1V15.514C40.3351 15.5487 40.4824 15.579 40.6384 15.605C40.7944 15.631 40.9591 15.644 41.1324 15.644C41.4011 15.644 41.6221 15.592 41.7954 15.488C41.9774 15.384 42.1117 15.2107 42.1984 14.968C42.2851 14.734 42.3284 14.4307 42.3284 14.058V5.218H44.3304V13.889C44.3304 14.6863 44.2047 15.332 43.9534 15.826C43.7021 16.32 43.3554 16.6797 42.9134 16.905C42.4714 17.1303 41.9557 17.243 41.3664 17.243ZM54.9551 9.846C54.9551 10.5653 54.8641 11.2197 54.6821 11.809C54.5088 12.3897 54.2401 12.8923 53.8761 13.317C53.5208 13.7417 53.0658 14.0667 52.5111 14.292C51.9565 14.5173 51.2978 14.63 50.5351 14.63C49.7811 14.63 49.1225 14.5173 48.5591 14.292C48.0045 14.0667 47.5451 13.7417 47.1811 13.317C46.8258 12.8923 46.5571 12.3897 46.3751 11.809C46.2018 11.2197 46.1151 10.561 46.1151 9.833C46.1151 8.871 46.2711 8.03467 46.5831 7.324C46.9038 6.61333 47.3891 6.063 48.0391 5.673C48.6978 5.27433 49.5341 5.075 50.5481 5.075C51.5535 5.075 52.3811 5.27433 53.0311 5.673C53.6898 6.063 54.1751 6.61767 54.4871 7.337C54.7991 8.04767 54.9551 8.884 54.9551 9.846ZM48.2081 9.846C48.2081 10.4873 48.2861 11.042 48.4421 11.51C48.6068 11.978 48.8625 12.3377 49.2091 12.589C49.5558 12.8317 49.9978 12.953 50.5351 12.953C51.0898 12.953 51.5361 12.8317 51.8741 12.589C52.2208 12.3377 52.4721 11.978 52.6281 11.51C52.7841 11.042 52.8621 10.4873 52.8621 9.846C52.8621 8.87533 52.6845 8.11267 52.3291 7.558C51.9738 7.00333 51.3801 6.726 50.5481 6.726C50.0021 6.726 49.5558 6.85167 49.2091 7.103C48.8625 7.35433 48.6068 7.714 48.4421 8.182C48.2861 8.64133 48.2081 9.196 48.2081 9.846ZM59.6353 5.218C60.45 5.218 61.126 5.322 61.6633 5.53C62.2007 5.72933 62.5993 6.02833 62.8594 6.427C63.128 6.82567 63.2623 7.324 63.2623 7.922C63.2623 8.338 63.1887 8.70633 63.0414 9.027C62.894 9.34767 62.6947 9.62067 62.4434 9.846C62.192 10.0713 61.906 10.2577 61.5853 10.405L64.2243 14.5H61.9493L59.8823 10.938H58.7773V14.5H56.7883V5.218H59.6353ZM59.5963 6.765H58.7773V9.404H59.5963C60.125 9.404 60.5323 9.29567 60.8183 9.079C61.1043 8.86233 61.2474 8.507 61.2474 8.013C61.2474 7.73567 61.1867 7.506 61.0654 7.324C60.9527 7.142 60.775 7.00333 60.5323 6.908C60.2897 6.81267 59.9777 6.765 59.5963 6.765Z" fill="#3EDB00"/>
<path d="M24.4596 14.5L23.5079 14.807L23.7314 15.5H24.4596V14.5ZM22.1196 7.246L23.0713 6.939L22.8477 6.246H22.1196V7.246ZM22.0676 7.246V6.246H20.9626L21.0725 7.3455L22.0676 7.246ZM22.1066 7.935L21.107 7.96529L21.1075 7.9804L21.1084 7.9955L22.1066 7.935ZM22.1456 8.871L21.1459 8.89663L21.1463 8.9101L21.147 8.92356L22.1456 8.871ZM22.1716 14.5V15.5H23.1716V14.5H22.1716ZM20.4036 14.5H19.4036V15.5H20.4036V14.5ZM20.4036 5.218V4.218H19.4036V5.218H20.4036ZM23.1076 5.218L24.0573 4.90496L23.8309 4.218H23.1076V5.218ZM25.4086 12.199L24.4588 12.512L24.6853 13.199H25.4086V12.199ZM25.4606 12.199V13.199H26.1839L26.4103 12.512L25.4606 12.199ZM27.7616 5.218V4.218H27.0383L26.8118 4.90496L27.7616 5.218ZM30.4656 5.218H31.4656V4.218H30.4656V5.218ZM30.4656 14.5V15.5H31.4656V14.5H30.4656ZM28.6066 14.5H27.6066V15.5H28.6066V14.5ZM28.6196 8.871L29.6192 8.89877L29.6192 8.89802L28.6196 8.871ZM28.6586 7.961L27.6604 7.9005L27.6604 7.90051L28.6586 7.961ZM28.6976 7.259L29.6965 7.30656L29.7463 6.259H28.6976V7.259ZM28.6456 7.259V6.259H27.9191L27.6945 6.94995L28.6456 7.259ZM26.2926 14.5V15.5H27.0191L27.2436 14.809L26.2926 14.5ZM25.4113 14.193L23.0713 6.939L21.1679 7.553L23.5079 14.807L25.4113 14.193ZM22.1196 6.246H22.0676V8.246H22.1196V6.246ZM21.0725 7.3455C21.0866 7.48598 21.0987 7.68979 21.107 7.96529L23.1061 7.90471C23.0971 7.60821 23.0832 7.35268 23.0626 7.1465L21.0725 7.3455ZM21.1084 7.9955C21.1249 8.26804 21.1375 8.56826 21.1459 8.89663L23.1453 8.84537C23.1363 8.49774 23.1229 8.17395 23.1048 7.8745L21.1084 7.9955ZM21.147 8.92356C21.1634 9.23588 21.1716 9.54335 21.1716 9.846H23.1716C23.1716 9.50732 23.1624 9.16478 23.1442 8.81844L21.147 8.92356ZM21.1716 9.846V14.5H23.1716V9.846H21.1716ZM22.1716 13.5H20.4036V15.5H22.1716V13.5ZM21.4036 14.5V5.218H19.4036V14.5H21.4036ZM20.4036 6.218H23.1076V4.218H20.4036V6.218ZM22.1578 5.53104L24.4588 12.512L26.3583 11.886L24.0573 4.90496L22.1578 5.53104ZM25.4086 13.199H25.4606V11.199H25.4086V13.199ZM26.4103 12.512L28.7113 5.53104L26.8118 4.90496L24.5108 11.886L26.4103 12.512ZM27.7616 6.218H30.4656V4.218H27.7616V6.218ZM29.4656 5.218V14.5H31.4656V5.218H29.4656ZM30.4656 13.5H28.6066V15.5H30.4656V13.5ZM29.6066 14.5V9.794H27.6066V14.5H29.6066ZM29.6066 9.794C29.6066 9.50019 29.6108 9.20178 29.6192 8.89877L27.62 8.84323C27.6111 9.16422 27.6066 9.48115 27.6066 9.794H29.6066ZM29.6192 8.89802C29.6276 8.58722 29.6402 8.29512 29.6568 8.02149L27.6604 7.90051C27.6423 8.19888 27.6289 8.51344 27.6199 8.84398L29.6192 8.89802ZM29.6568 8.0215C29.6742 7.73332 29.6875 7.49458 29.6965 7.30656L27.6987 7.21143C27.6903 7.38742 27.6776 7.61668 27.6604 7.9005L29.6568 8.0215ZM28.6976 6.259H28.6456V8.259H28.6976V6.259ZM27.6945 6.94995L25.3415 14.191L27.2436 14.809L29.5966 7.56805L27.6945 6.94995ZM26.2926 13.5H24.4596V15.5H26.2926V13.5ZM38.426 14.5L37.4756 14.8111L37.7011 15.5H38.426V14.5ZM37.711 12.316L38.6613 12.0049L38.4358 11.316H37.711V12.316ZM34.435 12.316V11.316H33.7101L33.4846 12.0049L34.435 12.316ZM33.72 14.5V15.5H34.4448L34.6703 14.8111L33.72 14.5ZM31.575 14.5L30.6311 14.1696L30.1654 15.5H31.575V14.5ZM34.838 5.179V4.179H34.1285L33.8941 4.84859L34.838 5.179ZM37.282 5.179L38.225 4.84625L37.9895 4.179H37.282V5.179ZM40.571 14.5V15.5H41.9842L41.514 14.1672L40.571 14.5ZM36.606 8.637L35.6397 8.89466L35.6463 8.91952L35.6542 8.944L36.606 8.637ZM36.437 8.052L35.4707 8.30966L35.4747 8.32457L35.4791 8.33935L36.437 8.052ZM36.229 7.259L35.2588 7.50154L35.2607 7.50888L36.229 7.259ZM36.06 6.583L37.0301 6.34046L35.0747 6.41166L36.06 6.583ZM35.904 7.272L34.9377 7.01434L34.9337 7.02949L34.9301 7.04477L35.904 7.272ZM35.722 8.026L34.7518 7.78346L35.722 8.026ZM35.566 8.637L36.5159 8.94955L36.5253 8.92078L36.533 8.89149L35.566 8.637ZM34.903 10.652L33.953 10.3395L33.5212 11.652H34.903V10.652ZM37.256 10.652V11.652H38.6293L38.2077 10.345L37.256 10.652ZM39.3763 14.1889L38.6613 12.0049L36.7606 12.6271L37.4756 14.8111L39.3763 14.1889ZM37.711 11.316H34.435V13.316H37.711V11.316ZM33.4846 12.0049L32.7696 14.1889L34.6703 14.8111L35.3853 12.6271L33.4846 12.0049ZM33.72 13.5H31.575V15.5H33.72V13.5ZM32.5188 14.8304L35.7818 5.50941L33.8941 4.84859L30.6311 14.1696L32.5188 14.8304ZM34.838 6.179H37.282V4.179H34.838V6.179ZM36.3389 5.51175L39.6279 14.8328L41.514 14.1672L38.225 4.84625L36.3389 5.51175ZM40.571 13.5H38.426V15.5H40.571V13.5ZM37.5722 8.37934C37.5334 8.23383 37.4734 8.02674 37.3948 7.76465L35.4791 8.33935C35.5565 8.59726 35.6092 8.78017 35.6397 8.89466L37.5722 8.37934ZM37.4032 7.79434C37.3346 7.53701 37.2659 7.27527 37.1972 7.00912L35.2607 7.50888C35.3307 7.78006 35.4007 8.04699 35.4707 8.30966L37.4032 7.79434ZM37.1991 7.01646C37.1298 6.73913 37.0734 6.5138 37.0301 6.34046L35.0898 6.82554C35.1331 6.99887 35.1895 7.2242 35.2588 7.50153L37.1991 7.01646ZM35.0747 6.41166C35.0465 6.5743 35.0018 6.77417 34.9377 7.01434L36.8702 7.52966C36.9448 7.24983 37.0041 6.99037 37.0452 6.75434L35.0747 6.41166ZM34.9301 7.04477C34.8706 7.3 34.8111 7.54622 34.7518 7.78346L36.6921 8.26854C36.7541 8.02045 36.816 7.764 36.8778 7.49923L34.9301 7.04477ZM34.7518 7.78346C34.6917 8.0238 34.6408 8.22319 34.5989 8.38251L36.533 8.89149C36.5778 8.72148 36.6308 8.51353 36.6921 8.26854L34.7518 7.78346ZM34.616 8.32445L33.953 10.3395L35.8529 10.9645L36.5159 8.94955L34.616 8.32445ZM34.903 11.652H37.256V9.652H34.903V11.652ZM38.2077 10.345L37.5577 8.33L35.6542 8.944L36.3042 10.959L38.2077 10.345ZM40.7034 17.191L40.8823 16.2071L40.8605 16.2032L40.8385 16.2002L40.7034 17.191ZM40.1964 17.1H39.1964V17.892L39.9673 18.0734L40.1964 17.1ZM40.1964 15.514L40.4389 14.5439L39.1964 14.2332V15.514H40.1964ZM40.6384 15.605L40.8028 14.6186L40.8028 14.6186L40.6384 15.605ZM41.7954 15.488L41.2992 14.6198L41.29 14.625L41.2809 14.6305L41.7954 15.488ZM42.1984 14.968L41.2606 14.6207L41.2566 14.6317L42.1984 14.968ZM42.3284 5.218V4.218H41.3284V5.218H42.3284ZM44.3304 5.218H45.3304V4.218H44.3304V5.218ZM42.9134 16.905L42.4592 16.0141L42.4592 16.0141L42.9134 16.905ZM41.3664 16.243C41.1584 16.243 40.9996 16.2285 40.8823 16.2071L40.5245 18.1749C40.7886 18.2229 41.0717 18.243 41.3664 18.243V16.243ZM40.8385 16.2002C40.6714 16.1774 40.5348 16.1523 40.4254 16.1266L39.9673 18.0734C40.1527 18.117 40.354 18.1526 40.5683 18.1818L40.8385 16.2002ZM41.1964 17.1V15.514H39.1964V17.1H41.1964ZM39.9539 16.4841C40.1209 16.5259 40.2945 16.5615 40.474 16.5914L40.8028 14.6186C40.6703 14.5965 40.5492 14.5714 40.4389 14.5439L39.9539 16.4841ZM40.474 16.5914C40.6892 16.6273 40.9092 16.644 41.1324 16.644V14.644C41.0089 14.644 40.8996 14.6347 40.8028 14.6186L40.474 16.5914ZM41.1324 16.644C41.5244 16.644 41.938 16.5686 42.3099 16.3455L41.2809 14.6305C41.3061 14.6154 41.2777 14.644 41.1324 14.644V16.644ZM42.2915 16.3562C42.7253 16.1084 42.9923 15.7183 43.1401 15.3043L41.2566 14.6317C41.2428 14.6705 41.2345 14.6774 41.2422 14.6674C41.2462 14.6624 41.2532 14.6543 41.2637 14.6451C41.2743 14.6358 41.2864 14.6271 41.2992 14.6198L42.2915 16.3562ZM43.1361 15.3153C43.279 14.9296 43.3284 14.4964 43.3284 14.058H41.3284C41.3284 14.3649 41.2911 14.5384 41.2606 14.6207L43.1361 15.3153ZM43.3284 14.058V5.218H41.3284V14.058H43.3284ZM42.3284 6.218H44.3304V4.218H42.3284V6.218ZM43.3304 5.218V13.889H45.3304V5.218H43.3304ZM43.3304 13.889C43.3304 14.5931 43.2176 15.0669 43.0621 15.3725L44.8447 16.2795C45.1918 15.5971 45.3304 14.7796 45.3304 13.889H43.3304ZM43.0621 15.3725C42.8948 15.7013 42.6911 15.8959 42.4592 16.0141L43.3676 17.7959C44.0197 17.4635 44.5093 16.9387 44.8447 16.2795L43.0621 15.3725ZM42.4592 16.0141C42.182 16.1554 41.8273 16.243 41.3664 16.243V18.243C42.0841 18.243 42.7608 18.1052 43.3676 17.7959L42.4592 16.0141ZM54.6821 11.809L53.7266 11.5139L53.7239 11.523L54.6821 11.809ZM53.8761 13.317L53.1168 12.6662L53.1092 12.6753L53.8761 13.317ZM52.5111 14.292L52.8875 15.2185L52.8875 15.2185L52.5111 14.292ZM48.5591 14.292L48.1828 15.2185L48.1878 15.2205L48.5591 14.292ZM47.1811 13.317L46.4142 13.9588L46.4219 13.9678L47.1811 13.317ZM46.3751 11.809L45.4158 12.0912L45.4183 12.0996L45.4209 12.1081L46.3751 11.809ZM46.5831 7.324L45.6716 6.91269L45.6675 6.92201L46.5831 7.324ZM48.0391 5.673L48.5536 6.5305L48.5569 6.5285L48.0391 5.673ZM53.0311 5.673L52.5083 6.52544L52.515 6.52951L52.5217 6.53348L53.0311 5.673ZM54.4871 7.337L53.5697 7.73492L53.5715 7.73899L54.4871 7.337ZM48.4421 11.51L47.4935 11.8262L47.4961 11.8341L47.4988 11.8419L48.4421 11.51ZM49.2091 12.589L48.6222 13.3986L48.6289 13.4035L48.6357 13.4082L49.2091 12.589ZM51.8741 12.589L52.4574 13.4013L52.4611 13.3986L51.8741 12.589ZM52.6281 11.51L53.5768 11.8262L53.5768 11.8262L52.6281 11.51ZM52.3291 7.558L53.1712 7.01857L53.1712 7.01857L52.3291 7.558ZM49.2091 7.103L49.7961 7.91261L49.7961 7.91261L49.2091 7.103ZM48.4421 8.182L47.4988 7.85007L47.4953 7.86042L48.4421 8.182ZM53.9551 9.846C53.9551 10.4815 53.8747 11.0345 53.7267 11.5139L55.6376 12.1041C55.8536 11.4048 55.9551 10.6492 55.9551 9.846H53.9551ZM53.7239 11.523C53.5873 11.9808 53.3824 12.3565 53.1169 12.6662L54.6354 13.9678C55.0979 13.4282 55.4304 12.7985 55.6404 12.095L53.7239 11.523ZM53.1092 12.6753C52.8672 12.9645 52.5505 13.1966 52.1348 13.3655L52.8875 15.2185C53.5811 14.9367 54.1744 14.5189 54.6431 13.9587L53.1092 12.6753ZM52.1348 13.3655C51.7275 13.531 51.2027 13.63 50.5351 13.63V15.63C51.393 15.63 52.1855 15.5037 52.8875 15.2185L52.1348 13.3655ZM50.5351 13.63C49.8785 13.63 49.3509 13.5317 48.9305 13.3635L48.1878 15.2205C48.8941 15.503 49.6838 15.63 50.5351 15.63V13.63ZM48.9355 13.3655C48.518 13.1959 48.1933 12.9613 47.9404 12.6662L46.4219 13.9678C46.8969 14.522 47.491 14.9374 48.1828 15.2185L48.9355 13.3655ZM47.9481 12.6753C47.6851 12.361 47.476 11.9776 47.3294 11.5099L45.4209 12.1081C45.6383 12.8017 45.9665 13.4237 46.4142 13.9587L47.9481 12.6753ZM47.3345 11.5268C47.1926 11.0442 47.1151 10.4826 47.1151 9.833H45.1151C45.1151 10.6394 45.2111 11.3951 45.4158 12.0912L47.3345 11.5268ZM47.1151 9.833C47.1151 8.97719 47.2541 8.28345 47.4988 7.72599L45.6675 6.92201C45.2882 7.78588 45.1151 8.76481 45.1151 9.833H47.1151ZM47.4947 7.73529C47.7341 7.20468 48.0836 6.81253 48.5536 6.53049L47.5247 4.81551C46.6947 5.31347 46.0736 6.02199 45.6716 6.91271L47.4947 7.73529ZM48.5569 6.5285C49.0173 6.24984 49.6603 6.075 50.5481 6.075V4.075C49.408 4.075 48.3783 4.29883 47.5213 4.8175L48.5569 6.5285ZM50.5481 6.075C51.4263 6.075 52.0582 6.24939 52.5083 6.52544L53.554 4.82056C52.704 4.29927 51.6807 4.075 50.5481 4.075V6.075ZM52.5217 6.53348C52.9943 6.81335 53.3394 7.20386 53.5697 7.73492L55.4046 6.93908C55.0109 6.03147 54.3853 5.31265 53.5406 4.81252L52.5217 6.53348ZM53.5715 7.73899C53.8162 8.29645 53.9551 8.99019 53.9551 9.846H55.9551C55.9551 8.77781 55.7821 7.79888 55.4028 6.93501L53.5715 7.73899ZM47.2081 9.846C47.2081 10.5644 47.295 11.2309 47.4935 11.8262L49.3908 11.1938C49.2773 10.8531 49.2081 10.4103 49.2081 9.846H47.2081ZM47.4988 11.8419C47.7199 12.4703 48.086 13.0098 48.6222 13.3986L49.7961 11.7794C49.639 11.6655 49.4937 11.4857 49.3855 11.1781L47.4988 11.8419ZM48.6357 13.4082C49.1908 13.7968 49.8481 13.953 50.5351 13.953V11.953C50.1475 11.953 49.9209 11.8665 49.7826 11.7698L48.6357 13.4082ZM50.5351 13.953C51.2302 13.953 51.9009 13.8008 52.4574 13.4013L51.2909 11.7767C51.1714 11.8625 50.9494 11.953 50.5351 11.953V13.953ZM52.4611 13.3986C53.0018 13.0066 53.3652 12.4612 53.5768 11.8262L51.6795 11.1938C51.5791 11.4948 51.4399 11.6687 51.2872 11.7794L52.4611 13.3986ZM53.5768 11.8262C53.7753 11.2309 53.8621 10.5644 53.8621 9.846H51.8621C51.8621 10.4103 51.793 10.8531 51.6795 11.1938L53.5768 11.8262ZM53.8621 9.846C53.8621 8.76933 53.6676 7.79347 53.1712 7.01857L51.4871 8.09743C51.7014 8.43186 51.8621 8.98134 51.8621 9.846H53.8621ZM53.1712 7.01857C52.583 6.10044 51.6189 5.726 50.5481 5.726V7.726C51.1413 7.726 51.3646 7.90623 51.4871 8.09743L53.1712 7.01857ZM50.5481 5.726C49.8496 5.726 49.1813 5.888 48.6222 6.29339L49.7961 7.91261C49.9303 7.81533 50.1547 7.726 50.5481 7.726V5.726ZM48.6222 6.29339C48.086 6.68215 47.7199 7.22167 47.4988 7.85009L49.3855 8.51391C49.4937 8.20632 49.639 8.02651 49.7961 7.91261L48.6222 6.29339ZM47.4953 7.86042C47.2944 8.45179 47.2081 9.1214 47.2081 9.846H49.2081C49.2081 9.2706 49.2779 8.83088 49.389 8.50358L47.4953 7.86042ZM61.6633 5.53L61.3023 6.46266L61.3155 6.46757L61.6633 5.53ZM62.8594 6.427L62.0217 6.97327L62.0259 6.97959L62.0301 6.98585L62.8594 6.427ZM63.0414 9.027L63.95 9.4445L63.95 9.4445L63.0414 9.027ZM62.4434 9.846L63.1109 10.5906L63.1109 10.5906L62.4434 9.846ZM61.5853 10.405L61.1678 9.49632L60.1203 9.97764L60.7448 10.9467L61.5853 10.405ZM64.2243 14.5V15.5H66.0585L65.0649 13.9583L64.2243 14.5ZM61.9493 14.5L61.0844 15.0019L61.3735 15.5H61.9493V14.5ZM59.8823 10.938L60.7473 10.4361L60.4582 9.938H59.8823V10.938ZM58.7773 10.938V9.938H57.7773V10.938H58.7773ZM58.7773 14.5V15.5H59.7773V14.5H58.7773ZM56.7883 14.5H55.7883V15.5H56.7883V14.5ZM56.7883 5.218V4.218H55.7883V5.218H56.7883ZM58.7773 6.765V5.765H57.7773V6.765H58.7773ZM58.7773 9.404H57.7773V10.404H58.7773V9.404ZM60.8183 9.079L60.2145 8.28191L60.2145 8.28191L60.8183 9.079ZM61.0654 7.324L60.2151 7.85035L60.224 7.86468L60.2333 7.8787L61.0654 7.324ZM60.5323 6.908L60.898 5.97725L60.898 5.97725L60.5323 6.908ZM59.6353 6.218C60.3737 6.218 60.9172 6.31347 61.3024 6.46257L62.0243 4.59743C61.3349 4.33053 60.5263 4.218 59.6353 4.218V6.218ZM61.3155 6.46757C61.694 6.60795 61.9012 6.78844 62.0217 6.97327L63.697 5.88073C63.2975 5.26823 62.7074 4.85071 62.0112 4.59243L61.3155 6.46757ZM62.0301 6.98585C62.163 7.1831 62.2623 7.47434 62.2623 7.922H64.2623C64.2623 7.17366 64.093 6.46823 63.6886 5.86815L62.0301 6.98585ZM62.2623 7.922C62.2623 8.21938 62.21 8.44114 62.1327 8.6095L63.95 9.4445C64.1673 8.97152 64.2623 8.45662 64.2623 7.922H62.2623ZM62.1327 8.6095C62.0398 8.81156 61.9206 8.97161 61.7758 9.10143L63.1109 10.5906C63.4688 10.2697 63.7482 9.88378 63.95 9.4445L62.1327 8.6095ZM61.7758 9.10143C61.6025 9.25684 61.4016 9.38894 61.1678 9.49632L62.0028 11.3137C62.4105 11.1264 62.7816 10.8858 63.1109 10.5906L61.7758 9.10143ZM60.7448 10.9467L63.3838 15.0417L65.0649 13.9583L62.4259 9.8633L60.7448 10.9467ZM64.2243 13.5H61.9493V15.5H64.2243V13.5ZM62.8143 13.9981L60.7473 10.4361L59.0174 11.4399L61.0844 15.0019L62.8143 13.9981ZM59.8823 9.938H58.7773V11.938H59.8823V9.938ZM57.7773 10.938V14.5H59.7773V10.938H57.7773ZM58.7773 13.5H56.7883V15.5H58.7773V13.5ZM57.7883 14.5V5.218H55.7883V14.5H57.7883ZM56.7883 6.218H59.6353V4.218H56.7883V6.218ZM59.5963 5.765H58.7773V7.765H59.5963V5.765ZM57.7773 6.765V9.404H59.7773V6.765H57.7773ZM58.7773 10.404H59.5963V8.404H58.7773V10.404ZM59.5963 10.404C60.2441 10.404 60.8973 10.2737 61.4222 9.87609L60.2145 8.28191C60.1674 8.31762 60.0059 8.404 59.5963 8.404V10.404ZM61.4222 9.87609C62.0436 9.40535 62.2474 8.69386 62.2474 8.013H60.2474C60.2474 8.16745 60.2245 8.24658 60.2124 8.27666C60.2038 8.29815 60.2034 8.29033 60.2145 8.28191L61.4222 9.87609ZM62.2474 8.013C62.2474 7.59097 62.1542 7.15455 61.8974 6.7693L60.2333 7.8787C60.2191 7.85745 60.2474 7.88036 60.2474 8.013H62.2474ZM61.9156 6.79764C61.6663 6.39494 61.2968 6.13392 60.898 5.97725L60.1667 7.83875C60.2121 7.8566 60.2302 7.87017 60.2323 7.87182C60.2333 7.87261 60.2312 7.87106 60.2274 7.8668C60.2235 7.86248 60.2191 7.85686 60.2151 7.85035L61.9156 6.79764ZM60.898 5.97725C60.4982 5.82017 60.05 5.765 59.5963 5.765V7.765C59.9053 7.765 60.0812 7.80516 60.1667 7.83875L60.898 5.97725Z" fill="black" mask="url(#path-4-outside-1_1125_2292)"/>
</svg>
