<svg width="145" height="32" viewBox="0 0 145 32" fill="none" xmlns="http://www.w3.org/2000/svg">
<path d="M19.2672 24.9883C14.5614 26.5627 9.65073 27.4176 4.69678 27.5248C6.79421 29.5235 9.37736 30.9209 12.1819 31.5739C14.9987 32.2323 17.9367 32.1274 20.701 31.2697C23.4496 30.4201 25.9256 28.8429 27.8742 26.7002C29.8024 24.5789 31.1242 21.9643 31.6973 19.1377C27.8343 21.6503 23.6527 23.6185 19.2672 24.9883Z" fill="white"/>
<path d="M19.4917 19.2471L19.0732 20.2554H19.9096L19.4917 19.2471Z" fill="white"/>
<path d="M7.895 19.1471H7.3374V20.7773H7.895C8.12543 20.789 8.35144 20.7102 8.52603 20.5571C8.67745 20.3972 8.76201 20.184 8.76201 19.9622C8.76201 19.7404 8.67745 19.5272 8.52603 19.3673C8.35144 19.2143 8.12543 19.1354 7.895 19.1471Z" fill="white"/>
<path d="M13.2908 6.75546C17.6662 5.30322 22.2148 4.45643 26.8134 4.23798C24.673 2.28524 22.0601 0.944043 19.2416 0.351405C16.4117 -0.246764 13.4766 -0.0790719 10.7308 0.837647C8.00154 1.74579 5.56031 3.37591 3.65863 5.56002C1.77692 7.72155 0.511973 10.363 0 13.1999C4.08771 10.3894 8.56782 8.2171 13.2908 6.75546Z" fill="white"/>
<path d="M22.197 22.4837C25.5807 21.4179 28.8262 19.944 31.8639 18.0935C32.1764 15.7202 31.9498 13.3059 31.2014 11.0351C30.4471 8.7504 29.1931 6.66849 27.5334 4.94531C23.9978 5.21896 20.5069 5.91871 17.1344 7.02977C14.1161 7.98783 11.2045 9.26281 8.44689 10.834H11.676V12.0434H8.23103V13.4568H11.2763V14.6281H8.23103V16.1278H11.798V17.3361H6.71889V11.8967C2.18908 14.8998 -0.314049 18.2811 0.549403 20.9179C1.94616 25.1871 11.6385 25.8879 22.197 22.4837ZM15.1535 21.2776H14.5424V18.6492H15.1535V21.2776ZM17.9692 19.1449H17.125V21.2776H16.5177V19.1449H15.667V18.6492H17.9664L17.9692 19.1449ZM23.3652 21.2776H21.4329V18.6492H22.044V20.7818H23.369L23.3652 21.2776ZM19.3129 10.8273H25.0297V12.0552H22.9318V17.3316H21.4147V12.0546H19.3168L19.3129 10.8273ZM19.7871 18.6492L20.9675 21.2776H20.326L20.0936 20.714H18.8668L18.6344 21.2776H18.0095L19.1854 18.6492H19.7871ZM12.789 12.3454C13.1006 11.8322 13.5468 11.4172 14.0775 11.1466C14.6535 10.8517 15.2914 10.7033 15.9364 10.7141C16.4716 10.7065 17.0031 10.8043 17.5015 11.0021C17.9546 11.1825 18.3591 11.4693 18.6819 11.839L17.7075 12.7319C17.4921 12.4965 17.2302 12.3099 16.939 12.1841C16.6459 12.0573 16.33 11.9938 16.0115 11.9975C15.6248 11.99 15.2422 12.0791 14.8974 12.2569C14.5799 12.4231 14.3162 12.6784 14.1377 12.9924C13.9601 13.325 13.8671 13.6973 13.8671 14.0755C13.8671 14.4538 13.9601 14.8261 14.1377 15.1586C14.3163 15.4718 14.578 15.7279 14.893 15.8975C15.2319 16.0785 15.6104 16.1696 15.9933 16.1625C16.4034 16.1685 16.8087 16.0724 17.1736 15.8824V13.9778H18.561V16.6179C18.1872 16.8937 17.7689 17.1013 17.3249 17.2313C16.8661 17.3727 16.3894 17.445 15.9099 17.4459C15.272 17.4561 14.6414 17.3077 14.0731 17.0134C13.5456 16.7407 13.1027 16.3252 12.7934 15.8129C12.4899 15.2871 12.3299 14.6886 12.3299 14.0792C12.3299 13.4697 12.4899 12.8713 12.7934 12.3454H12.789ZM11.4679 19.2626C11.5928 19.055 11.7723 18.887 11.9863 18.7775C12.2177 18.6589 12.474 18.5991 12.7332 18.6032C12.9486 18.6002 13.1625 18.6394 13.3632 18.7186C13.5453 18.7915 13.7081 18.9066 13.8385 19.0547L13.446 19.4155C13.3591 19.3212 13.2535 19.2465 13.1363 19.1965C13.0182 19.1462 12.8911 19.1214 12.763 19.1236C12.6073 19.121 12.4533 19.1574 12.3148 19.2295C12.1864 19.2957 12.08 19.3988 12.0089 19.5259C11.9372 19.6602 11.8996 19.8106 11.8996 19.9634C11.8996 20.1162 11.9372 20.2665 12.0089 20.4009C12.0802 20.5274 12.1853 20.6309 12.312 20.6995C12.4479 20.7725 12.5999 20.8093 12.7537 20.8065C12.919 20.8082 13.0823 20.7686 13.229 20.6911V19.923H13.7866V20.9874C13.6363 21.0983 13.4682 21.1821 13.2897 21.235C13.1052 21.292 12.9134 21.321 12.7205 21.3213C12.4638 21.3251 12.2101 21.2653 11.9813 21.147C11.7692 21.0363 11.5911 20.8685 11.4668 20.6619C11.3441 20.4495 11.2795 20.2078 11.2795 19.9617C11.2795 19.7155 11.3441 19.4738 11.4668 19.2615L11.4679 19.2626ZM10.0225 18.6464H10.6298V21.2748H10.0225V18.6464ZM9.19054 20.653C9.06688 20.8533 8.88903 21.0134 8.67821 21.114C8.44069 21.2269 8.18078 21.2828 7.91855 21.2776H6.72054V18.6492H7.91966C8.18189 18.6439 8.4418 18.6999 8.67932 18.8127C8.89014 18.9134 9.06798 19.0734 9.19165 19.2738C9.31166 19.484 9.37486 19.7227 9.37486 19.9656C9.37486 20.2086 9.31166 20.4472 9.19165 20.6574L9.19054 20.653Z" fill="white"/>
<path d="M45.98 23.5005H37.7V9.22049H45.98V11.7205H40.76V14.8405H45.64V17.3405H40.76V20.9605H45.98V23.5005ZM54.6552 15.4605H60.3352V22.8805C59.5885 23.1338 58.7685 23.3338 57.8752 23.4805C56.9952 23.6272 56.0418 23.7005 55.0152 23.7005C53.6018 23.7005 52.3818 23.4205 51.3552 22.8605C50.3285 22.3005 49.5352 21.4738 48.9752 20.3805C48.4152 19.2872 48.1352 17.9405 48.1352 16.3405C48.1352 14.8472 48.4218 13.5538 48.9952 12.4605C49.5818 11.3672 50.4285 10.5205 51.5352 9.92049C52.6418 9.32049 53.9952 9.02049 55.5952 9.02049C56.4485 9.02049 57.2552 9.10049 58.0152 9.26049C58.7885 9.42049 59.4752 9.63382 60.0752 9.90049L59.0552 12.3405C58.5485 12.1005 58.0018 11.9138 57.4152 11.7805C56.8285 11.6338 56.2152 11.5605 55.5752 11.5605C54.6018 11.5605 53.7952 11.7738 53.1552 12.2005C52.5285 12.6138 52.0618 13.1872 51.7552 13.9205C51.4485 14.6405 51.2952 15.4672 51.2952 16.4005C51.2952 17.3738 51.4418 18.2205 51.7352 18.9405C52.0418 19.6472 52.4952 20.1938 53.0952 20.5805C53.6952 20.9672 54.4552 21.1605 55.3752 21.1605C55.7485 21.1605 56.1218 21.1405 56.4952 21.1005C56.8685 21.0472 57.1752 20.9872 57.4152 20.9205V17.9005H54.6552V15.4605ZM69.0422 23.5005H65.9822V11.7605H62.1222V9.22049H72.9022V11.7605H69.0422V23.5005ZM92.0405 16.1205C92.0405 17.7605 91.7338 19.1272 91.1205 20.2205C90.5071 21.3138 89.6405 22.1338 88.5205 22.6805C87.4138 23.2272 86.0871 23.5005 84.5405 23.5005H80.1805V9.22049H84.9005C86.4071 9.22049 87.6871 9.48715 88.7405 10.0205C89.8071 10.5405 90.6205 11.3138 91.1805 12.3405C91.7538 13.3672 92.0405 14.6272 92.0405 16.1205ZM88.8405 16.2405C88.8405 15.2138 88.6871 14.3672 88.3805 13.7005C88.0871 13.0338 87.6405 12.5405 87.0405 12.2205C86.4405 11.8872 85.7005 11.7205 84.8205 11.7205H83.2405V20.9805H84.5205C85.9871 20.9805 87.0738 20.5872 87.7805 19.8005C88.4871 19.0138 88.8405 17.8272 88.8405 16.2405ZM97.6289 12.5805V23.5005H94.6089V12.5805H97.6289ZM96.1289 8.28049C96.5689 8.28049 96.9489 8.38715 97.2689 8.60049C97.6022 8.80049 97.7689 9.18715 97.7689 9.76049C97.7689 10.3072 97.6022 10.6872 97.2689 10.9005C96.9489 11.1138 96.5689 11.2205 96.1289 11.2205C95.6756 11.2205 95.2889 11.1138 94.9689 10.9005C94.6489 10.6872 94.4889 10.3072 94.4889 9.76049C94.4889 9.18715 94.6489 8.80049 94.9689 8.60049C95.2889 8.38715 95.6756 8.28049 96.1289 8.28049ZM104.205 12.3805C104.965 12.3805 105.599 12.5272 106.105 12.8205C106.612 13.1005 107.032 13.4805 107.365 13.9605H107.465L107.725 12.5805H110.285V23.5805C110.285 24.6072 110.085 25.4672 109.685 26.1605C109.285 26.8672 108.679 27.4005 107.865 27.7605C107.065 28.1205 106.045 28.3005 104.805 28.3005C103.965 28.3005 103.212 28.2472 102.545 28.1405C101.879 28.0472 101.252 27.8805 100.665 27.6405V25.0805C101.265 25.3472 101.879 25.5538 102.505 25.7005C103.145 25.8472 103.879 25.9205 104.705 25.9205C105.545 25.9205 106.179 25.7272 106.605 25.3405C107.045 24.9538 107.265 24.4205 107.265 23.7405V23.4405C107.265 23.2805 107.272 23.0672 107.285 22.8005C107.312 22.5338 107.339 22.3005 107.365 22.1005H107.265C106.959 22.5805 106.552 22.9672 106.045 23.2605C105.552 23.5538 104.932 23.7005 104.185 23.7005C102.932 23.7005 101.925 23.2138 101.165 22.2405C100.419 21.2672 100.045 19.8738 100.045 18.0605C100.045 16.2472 100.425 14.8472 101.185 13.8605C101.945 12.8738 102.952 12.3805 104.205 12.3805ZM105.185 14.7605C104.745 14.7605 104.365 14.8872 104.045 15.1405C103.739 15.3938 103.505 15.7672 103.345 16.2605C103.199 16.7538 103.125 17.3672 103.125 18.1005C103.125 19.1938 103.299 20.0072 103.645 20.5405C104.005 21.0738 104.539 21.3405 105.245 21.3405C105.645 21.3405 105.985 21.2805 106.265 21.1605C106.545 21.0405 106.772 20.8672 106.945 20.6405C107.119 20.4005 107.245 20.1005 107.325 19.7405C107.419 19.3805 107.465 18.9538 107.465 18.4605V18.0205C107.465 17.2872 107.392 16.6805 107.245 16.2005C107.099 15.7205 106.859 15.3605 106.525 15.1205C106.192 14.8805 105.745 14.7605 105.185 14.7605ZM116.242 12.5805V23.5005H113.222V12.5805H116.242ZM114.742 8.28049C115.182 8.28049 115.562 8.38715 115.882 8.60049C116.216 8.80049 116.382 9.18715 116.382 9.76049C116.382 10.3072 116.216 10.6872 115.882 10.9005C115.562 11.1138 115.182 11.2205 114.742 11.2205C114.289 11.2205 113.902 11.1138 113.582 10.9005C113.262 10.6872 113.102 10.3072 113.102 9.76049C113.102 9.18715 113.262 8.80049 113.582 8.60049C113.902 8.38715 114.289 8.28049 114.742 8.28049ZM123.899 21.3005C124.205 21.3005 124.499 21.2672 124.779 21.2005C125.072 21.1338 125.345 21.0605 125.599 20.9805V23.2005C125.279 23.3472 124.905 23.4672 124.479 23.5605C124.065 23.6538 123.572 23.7005 122.999 23.7005C122.345 23.7005 121.759 23.5938 121.239 23.3805C120.732 23.1672 120.325 22.8005 120.019 22.2805C119.725 21.7472 119.579 21.0072 119.579 20.0605V14.8405H118.159V13.5605L119.799 12.5605L120.679 10.2605H122.599V12.5805H125.459V14.8405H122.599V19.8805C122.599 20.3605 122.712 20.7205 122.939 20.9605C123.179 21.1872 123.499 21.3005 123.899 21.3005ZM132.477 12.3805C133.85 12.3805 134.897 12.7072 135.617 13.3605C136.337 14.0005 136.697 14.9538 136.697 16.2205V23.5005H134.597L134.017 22.0205H133.937C133.63 22.4072 133.31 22.7272 132.977 22.9805C132.657 23.2338 132.283 23.4138 131.857 23.5205C131.43 23.6405 130.91 23.7005 130.297 23.7005C129.657 23.7005 129.083 23.5805 128.577 23.3405C128.07 23.0872 127.67 22.7072 127.377 22.2005C127.083 21.6938 126.937 21.0538 126.937 20.2805C126.937 19.1338 127.35 18.2738 128.177 17.7005C129.003 17.1272 130.237 16.8072 131.877 16.7405L133.697 16.6805V16.3405C133.697 15.6872 133.55 15.2338 133.257 14.9805C132.963 14.7138 132.55 14.5805 132.017 14.5805C131.523 14.5805 131.017 14.6605 130.497 14.8205C129.977 14.9805 129.463 15.1738 128.957 15.4005L128.077 13.3405C128.65 13.0472 129.303 12.8138 130.037 12.6405C130.783 12.4672 131.597 12.3805 132.477 12.3805ZM132.557 18.5005C131.61 18.5272 130.95 18.6805 130.577 18.9605C130.203 19.2405 130.017 19.6338 130.017 20.1405C130.017 20.6072 130.143 20.9538 130.397 21.1805C130.663 21.3938 131.01 21.5005 131.437 21.5005C132.077 21.5005 132.61 21.3138 133.037 20.9405C133.477 20.5672 133.697 20.0338 133.697 19.3405V18.4405L132.557 18.5005ZM142.589 23.5005H139.569V8.30049H142.589V23.5005Z" fill="white"/>
</svg>
