<svg width="34" height="12" viewBox="0 0 34 12" fill="none" xmlns="http://www.w3.org/2000/svg">
<mask id="path-1-outside-1_1137_1390" maskUnits="userSpaceOnUse" x="0" y="-0.5" width="34" height="12" fill="black">
<rect fill="white" y="-0.5" width="34" height="12"/>
<path d="M5.096 10.5L2.86 3.22H2.808C2.81667 3.39333 2.82967 3.65333 2.847 4C2.86433 4.34667 2.88167 4.71933 2.899 5.118C2.91633 5.508 2.925 5.86333 2.925 6.184V10.5H1.17V1.218H3.848L6.045 8.316H6.084L8.411 1.218H11.089V10.5H9.256V6.106C9.256 5.81133 9.26033 5.47333 9.269 5.092C9.28633 4.71067 9.29933 4.351 9.308 4.013C9.32533 3.66633 9.33833 3.40633 9.347 3.233H9.295L6.903 10.5H5.096ZM16.9047 10.5H12.6797V9.382L13.8107 8.862V2.856L12.6797 2.336V1.218H16.9047V2.336L15.7737 2.856V8.862L16.9047 9.382V10.5ZM26.7154 10.5H24.2194L20.1764 3.48H20.1244C20.1417 3.77467 20.1547 4.06933 20.1634 4.364C20.1807 4.65867 20.1937 4.95333 20.2024 5.248C20.2197 5.54267 20.2327 5.83733 20.2414 6.132V10.5H18.4864V1.218H20.9694L24.9994 8.173H25.0384C25.0297 7.887 25.0211 7.601 25.0124 7.315C25.0037 7.029 24.9907 6.74733 24.9734 6.47C24.9647 6.184 24.9561 5.898 24.9474 5.612V1.218H26.7154V10.5ZM32.5326 10.5H28.3076V9.382L29.4386 8.862V2.856L28.3076 2.336V1.218H32.5326V2.336L31.4016 2.856V8.862L32.5326 9.382V10.5Z"/>
</mask>
<path d="M5.096 10.5L2.86 3.22H2.808C2.81667 3.39333 2.82967 3.65333 2.847 4C2.86433 4.34667 2.88167 4.71933 2.899 5.118C2.91633 5.508 2.925 5.86333 2.925 6.184V10.5H1.17V1.218H3.848L6.045 8.316H6.084L8.411 1.218H11.089V10.5H9.256V6.106C9.256 5.81133 9.26033 5.47333 9.269 5.092C9.28633 4.71067 9.29933 4.351 9.308 4.013C9.32533 3.66633 9.33833 3.40633 9.347 3.233H9.295L6.903 10.5H5.096ZM16.9047 10.5H12.6797V9.382L13.8107 8.862V2.856L12.6797 2.336V1.218H16.9047V2.336L15.7737 2.856V8.862L16.9047 9.382V10.5ZM26.7154 10.5H24.2194L20.1764 3.48H20.1244C20.1417 3.77467 20.1547 4.06933 20.1634 4.364C20.1807 4.65867 20.1937 4.95333 20.2024 5.248C20.2197 5.54267 20.2327 5.83733 20.2414 6.132V10.5H18.4864V1.218H20.9694L24.9994 8.173H25.0384C25.0297 7.887 25.0211 7.601 25.0124 7.315C25.0037 7.029 24.9907 6.74733 24.9734 6.47C24.9647 6.184 24.9561 5.898 24.9474 5.612V1.218H26.7154V10.5ZM32.5326 10.5H28.3076V9.382L29.4386 8.862V2.856L28.3076 2.336V1.218H32.5326V2.336L31.4016 2.856V8.862L32.5326 9.382V10.5Z" fill="white"/>
<path d="M5.096 10.5L4.14007 10.7936L4.35704 11.5H5.096V10.5ZM2.86 3.22L3.81593 2.92639L3.59896 2.22H2.86V3.22ZM2.808 3.22V2.22H1.75675L1.80925 3.26994L2.808 3.22ZM2.847 4L1.84825 4.04994L1.84825 4.04994L2.847 4ZM2.899 5.118L1.89994 5.16144L1.89999 5.1624L2.899 5.118ZM2.925 10.5V11.5H3.925V10.5H2.925ZM1.17 10.5H0.17V11.5H1.17V10.5ZM1.17 1.218V0.217999H0.17V1.218H1.17ZM3.848 1.218L4.80329 0.922316L4.58528 0.217999H3.848V1.218ZM6.045 8.316L5.08971 8.61168L5.30772 9.316H6.045V8.316ZM6.084 8.316V9.316H6.80853L7.03424 8.62752L6.084 8.316ZM8.411 1.218V0.217999H7.68647L7.46076 0.906475L8.411 1.218ZM11.089 1.218H12.089V0.217999H11.089V1.218ZM11.089 10.5V11.5H12.089V10.5H11.089ZM9.256 10.5H8.256V11.5H9.256V10.5ZM9.269 5.092L8.27003 5.04659L8.26952 5.05793L8.26926 5.06928L9.269 5.092ZM9.308 4.013L8.30925 3.96306L8.30864 3.97521L8.30833 3.98737L9.308 4.013ZM9.347 3.233L10.3458 3.28294L10.3982 2.233H9.347V3.233ZM9.295 3.233V2.233H8.57138L8.34513 2.92034L9.295 3.233ZM6.903 10.5V11.5H7.62662L7.85287 10.8127L6.903 10.5ZM6.05193 10.2064L3.81593 2.92639L1.90407 3.51361L4.14007 10.7936L6.05193 10.2064ZM2.86 2.22H2.808V4.22H2.86V2.22ZM1.80925 3.26994C1.81791 3.44327 1.83091 3.70327 1.84825 4.04994L3.84575 3.95006C3.82842 3.6034 3.81542 3.3434 3.80675 3.17006L1.80925 3.26994ZM1.84825 4.04994C1.86546 4.39415 1.88269 4.76463 1.89994 5.16144L3.89806 5.07456C3.88064 4.67404 3.86321 4.29919 3.84575 3.95006L1.84825 4.04994ZM1.89999 5.1624C1.9168 5.54065 1.925 5.8809 1.925 6.184H3.925C3.925 5.84577 3.91587 5.47535 3.89801 5.0736L1.89999 5.1624ZM1.925 6.184V10.5H3.925V6.184H1.925ZM2.925 9.5H1.17V11.5H2.925V9.5ZM2.17 10.5V1.218H0.17V10.5H2.17ZM1.17 2.218H3.848V0.217999H1.17V2.218ZM2.89271 1.51368L5.08971 8.61168L7.00029 8.02032L4.80329 0.922316L2.89271 1.51368ZM6.045 9.316H6.084V7.316H6.045V9.316ZM7.03424 8.62752L9.36124 1.52952L7.46076 0.906475L5.13376 8.00447L7.03424 8.62752ZM8.411 2.218H11.089V0.217999H8.411V2.218ZM10.089 1.218V10.5H12.089V1.218H10.089ZM11.089 9.5H9.256V11.5H11.089V9.5ZM10.256 10.5V6.106H8.256V10.5H10.256ZM10.256 6.106C10.256 5.82073 10.2602 5.49055 10.2687 5.11472L8.26926 5.06928C8.26047 5.45612 8.256 5.80194 8.256 6.106H10.256ZM10.268 5.13741C10.2856 4.75031 10.2988 4.384 10.3077 4.03863L8.30833 3.98737C8.29985 4.318 8.2871 4.67103 8.27003 5.04659L10.268 5.13741ZM10.3068 4.06294C10.3241 3.71627 10.3371 3.45627 10.3458 3.28294L8.34825 3.18306C8.33958 3.3564 8.32658 3.61639 8.30925 3.96306L10.3068 4.06294ZM9.347 2.233H9.295V4.233H9.347V2.233ZM8.34513 2.92034L5.95313 10.1873L7.85287 10.8127L10.2449 3.54566L8.34513 2.92034ZM6.903 9.5H5.096V11.5H6.903V9.5ZM16.9047 10.5V11.5H17.9047V10.5H16.9047ZM12.6797 10.5H11.6797V11.5H12.6797V10.5ZM12.6797 9.382L12.2619 8.47343L11.6797 8.74114V9.382H12.6797ZM13.8107 8.862L14.2284 9.77057L14.8107 9.50286V8.862H13.8107ZM13.8107 2.856H14.8107V2.21514L14.2284 1.94743L13.8107 2.856ZM12.6797 2.336H11.6797V2.97686L12.2619 3.24457L12.6797 2.336ZM12.6797 1.218V0.217999H11.6797V1.218H12.6797ZM16.9047 1.218H17.9047V0.217999H16.9047V1.218ZM16.9047 2.336L17.3224 3.24457L17.9047 2.97686V2.336H16.9047ZM15.7737 2.856L15.3559 1.94743L14.7737 2.21514V2.856H15.7737ZM15.7737 8.862H14.7737V9.50286L15.3559 9.77057L15.7737 8.862ZM16.9047 9.382H17.9047V8.74114L17.3224 8.47343L16.9047 9.382ZM16.9047 9.5H12.6797V11.5H16.9047V9.5ZM13.6797 10.5V9.382H11.6797V10.5H13.6797ZM13.0974 10.2906L14.2284 9.77057L13.3929 7.95343L12.2619 8.47343L13.0974 10.2906ZM14.8107 8.862V2.856H12.8107V8.862H14.8107ZM14.2284 1.94743L13.0974 1.42743L12.2619 3.24457L13.3929 3.76457L14.2284 1.94743ZM13.6797 2.336V1.218H11.6797V2.336H13.6797ZM12.6797 2.218H16.9047V0.217999H12.6797V2.218ZM15.9047 1.218V2.336H17.9047V1.218H15.9047ZM16.4869 1.42743L15.3559 1.94743L16.1914 3.76457L17.3224 3.24457L16.4869 1.42743ZM14.7737 2.856V8.862H16.7737V2.856H14.7737ZM15.3559 9.77057L16.4869 10.2906L17.3224 8.47343L16.1914 7.95343L15.3559 9.77057ZM15.9047 9.382V10.5H17.9047V9.382H15.9047ZM26.7154 10.5V11.5H27.7154V10.5H26.7154ZM24.2194 10.5L23.3528 10.9991L23.6413 11.5H24.2194V10.5ZM20.1764 3.48L21.043 2.98093L20.7545 2.48H20.1764V3.48ZM20.1244 3.48V2.48H19.0639L19.1261 3.53872L20.1244 3.48ZM20.1634 4.364L19.1638 4.3934L19.1643 4.40807L19.1651 4.42272L20.1634 4.364ZM20.2024 5.248L19.2028 5.2774L19.2033 5.29207L19.2041 5.30672L20.2024 5.248ZM20.2414 6.132H21.2414V6.1173L21.241 6.1026L20.2414 6.132ZM20.2414 10.5V11.5H21.2414V10.5H20.2414ZM18.4864 10.5H17.4864V11.5H18.4864V10.5ZM18.4864 1.218V0.217999H17.4864V1.218H18.4864ZM20.9694 1.218L21.8346 0.716644L21.5457 0.217999H20.9694V1.218ZM24.9994 8.173L24.1342 8.67435L24.4231 9.173H24.9994V8.173ZM25.0384 8.173V9.173H26.0692L26.0379 8.14271L25.0384 8.173ZM25.0124 7.315L24.0129 7.34529L24.0129 7.34529L25.0124 7.315ZM24.9734 6.47L23.9739 6.50029L23.9744 6.51635L23.9754 6.53238L24.9734 6.47ZM24.9474 5.612H23.9474V5.62715L23.9479 5.64229L24.9474 5.612ZM24.9474 1.218V0.217999H23.9474V1.218H24.9474ZM26.7154 1.218H27.7154V0.217999H26.7154V1.218ZM26.7154 9.5H24.2194V11.5H26.7154V9.5ZM25.086 10.0009L21.043 2.98093L19.3098 3.97907L23.3528 10.9991L25.086 10.0009ZM20.1764 2.48H20.1244V4.48H20.1764V2.48ZM19.1261 3.53872C19.1429 3.82363 19.1555 4.10852 19.1638 4.3934L21.163 4.3346C21.154 4.03014 21.1406 3.7257 21.1227 3.42128L19.1261 3.53872ZM19.1651 4.42272C19.1819 4.70763 19.1945 4.99252 19.2028 5.2774L21.202 5.2186C21.193 4.91414 21.1796 4.6097 21.1617 4.30528L19.1651 4.42272ZM19.2041 5.30672C19.2209 5.59163 19.2335 5.87652 19.2418 6.1614L21.241 6.1026C21.232 5.79814 21.2186 5.4937 21.2007 5.18928L19.2041 5.30672ZM19.2414 6.132V10.5H21.2414V6.132H19.2414ZM20.2414 9.5H18.4864V11.5H20.2414V9.5ZM19.4864 10.5V1.218H17.4864V10.5H19.4864ZM18.4864 2.218H20.9694V0.217999H18.4864V2.218ZM20.1042 1.71935L24.1342 8.67435L25.8646 7.67164L21.8346 0.716644L20.1042 1.71935ZM24.9994 9.173H25.0384V7.173H24.9994V9.173ZM26.0379 8.14271C26.0293 7.85671 26.0206 7.57071 26.0119 7.28471L24.0129 7.34529C24.0215 7.63129 24.0302 7.91729 24.0389 8.20329L26.0379 8.14271ZM26.0119 7.28471C26.003 6.98832 25.9895 6.69595 25.9715 6.40762L23.9754 6.53238C23.992 6.79871 24.0045 7.06968 24.0129 7.34529L26.0119 7.28471ZM25.9729 6.43971C25.9643 6.15371 25.9556 5.86771 25.9469 5.58171L23.9479 5.64229C23.9565 5.92829 23.9652 6.21429 23.9739 6.50029L25.9729 6.43971ZM25.9474 5.612V1.218H23.9474V5.612H25.9474ZM24.9474 2.218H26.7154V0.217999H24.9474V2.218ZM25.7154 1.218V10.5H27.7154V1.218H25.7154ZM32.5326 10.5V11.5H33.5326V10.5H32.5326ZM28.3076 10.5H27.3076V11.5H28.3076V10.5ZM28.3076 9.382L27.8899 8.47343L27.3076 8.74114V9.382H28.3076ZM29.4386 8.862L29.8563 9.77057L30.4386 9.50286V8.862H29.4386ZM29.4386 2.856H30.4386V2.21514L29.8563 1.94743L29.4386 2.856ZM28.3076 2.336H27.3076V2.97686L27.8899 3.24457L28.3076 2.336ZM28.3076 1.218V0.217999H27.3076V1.218H28.3076ZM32.5326 1.218H33.5326V0.217999H32.5326V1.218ZM32.5326 2.336L32.9503 3.24457L33.5326 2.97686V2.336H32.5326ZM31.4016 2.856L30.9839 1.94743L30.4016 2.21514V2.856H31.4016ZM31.4016 8.862H30.4016V9.50286L30.9839 9.77057L31.4016 8.862ZM32.5326 9.382H33.5326V8.74114L32.9503 8.47343L32.5326 9.382ZM32.5326 9.5H28.3076V11.5H32.5326V9.5ZM29.3076 10.5V9.382H27.3076V10.5H29.3076ZM28.7253 10.2906L29.8563 9.77057L29.0209 7.95343L27.8899 8.47343L28.7253 10.2906ZM30.4386 8.862V2.856H28.4386V8.862H30.4386ZM29.8563 1.94743L28.7253 1.42743L27.8899 3.24457L29.0209 3.76457L29.8563 1.94743ZM29.3076 2.336V1.218H27.3076V2.336H29.3076ZM28.3076 2.218H32.5326V0.217999H28.3076V2.218ZM31.5326 1.218V2.336H33.5326V1.218H31.5326ZM32.1149 1.42743L30.9839 1.94743L31.8193 3.76457L32.9503 3.24457L32.1149 1.42743ZM30.4016 2.856V8.862H32.4016V2.856H30.4016ZM30.9839 9.77057L32.1149 10.2906L32.9503 8.47343L31.8193 7.95343L30.9839 9.77057ZM31.5326 9.382V10.5H33.5326V9.382H31.5326Z" fill="black" mask="url(#path-1-outside-1_1137_1390)"/>
</svg>
