<svg width="49" height="12" viewBox="0 0 49 12" fill="none" xmlns="http://www.w3.org/2000/svg">
<mask id="path-1-outside-1_1137_1384" maskUnits="userSpaceOnUse" x="0" y="-0.5" width="49" height="13" fill="black">
<rect fill="white" y="-0.5" width="49" height="13"/>
<path d="M5.096 10.5L2.86 3.22H2.808C2.81667 3.39333 2.82967 3.65333 2.847 4C2.86433 4.34667 2.88167 4.71933 2.899 5.118C2.91633 5.508 2.925 5.86333 2.925 6.184V10.5H1.17V1.218H3.848L6.045 8.316H6.084L8.411 1.218H11.089V10.5H9.256V6.106C9.256 5.81133 9.26033 5.47333 9.269 5.092C9.28633 4.71067 9.29933 4.351 9.308 4.013C9.32533 3.66633 9.33833 3.40633 9.347 3.233H9.295L6.903 10.5H5.096ZM16.9047 10.5H12.6797V9.382L13.8107 8.862V2.856L12.6797 2.336V1.218H16.9047V2.336L15.7737 2.856V8.862L16.9047 9.382V10.5ZM26.7154 10.5H24.2194L20.1764 3.48H20.1244C20.1417 3.77467 20.1547 4.06933 20.1634 4.364C20.1807 4.65867 20.1937 4.95333 20.2024 5.248C20.2197 5.54267 20.2327 5.83733 20.2414 6.132V10.5H18.4864V1.218H20.9694L24.9994 8.173H25.0384C25.0297 7.887 25.0211 7.601 25.0124 7.315C25.0037 7.029 24.9907 6.74733 24.9734 6.47C24.9647 6.184 24.9561 5.898 24.9474 5.612V1.218H26.7154V10.5ZM37.4856 5.846C37.4856 6.56533 37.3946 7.21967 37.2126 7.809C37.0393 8.38967 36.7706 8.89233 36.4066 9.317C36.0513 9.74167 35.5919 10.0667 35.0286 10.292C34.4739 10.5173 33.8196 10.63 33.0656 10.63C32.3116 10.63 31.6529 10.5173 31.0896 10.292C30.5349 10.058 30.0756 9.733 29.7116 9.317C29.3563 8.89233 29.0876 8.38533 28.9056 7.796C28.7323 7.20667 28.6456 6.55233 28.6456 5.833C28.6456 4.871 28.8016 4.03467 29.1136 3.324C29.4343 2.61333 29.9196 2.063 30.5696 1.673C31.2283 1.27433 32.0646 1.075 33.0786 1.075C34.0839 1.075 34.9116 1.27433 35.5616 1.673C36.2116 2.063 36.6926 2.61767 37.0046 3.337C37.3253 4.04767 37.4856 4.884 37.4856 5.846ZM30.7126 5.846C30.7126 6.496 30.7949 7.055 30.9596 7.523C31.1243 7.991 31.3799 8.35067 31.7266 8.602C32.0733 8.85333 32.5196 8.979 33.0656 8.979C33.6289 8.979 34.0796 8.85333 34.4176 8.602C34.7643 8.35067 35.0156 7.991 35.1716 7.523C35.3363 7.055 35.4186 6.496 35.4186 5.846C35.4186 4.86667 35.2366 4.09967 34.8726 3.545C34.5086 2.99033 33.9106 2.713 33.0786 2.713C32.5239 2.713 32.0733 2.83867 31.7266 3.09C31.3799 3.34133 31.1243 3.701 30.9596 4.169C30.7949 4.637 30.7126 5.196 30.7126 5.846ZM42.1123 1.218C42.9529 1.218 43.6463 1.322 44.1923 1.53C44.7383 1.72933 45.1456 2.037 45.4143 2.453C45.6829 2.86033 45.8173 3.376 45.8173 4C45.8173 4.42467 45.7349 4.79733 45.5703 5.118C45.4143 5.43 45.2019 5.69867 44.9333 5.924C44.6733 6.14067 44.3916 6.31833 44.0883 6.457L46.8183 10.5H44.6343L42.4243 6.938H41.3713V10.5H39.4083V1.218H42.1123ZM41.9693 2.83H41.3713V5.339H42.0083C42.6583 5.339 43.1219 5.23067 43.3993 5.014C43.6853 4.79733 43.8283 4.47667 43.8283 4.052C43.8283 3.75733 43.7589 3.52333 43.6203 3.35C43.4903 3.168 43.2866 3.038 43.0093 2.96C42.7406 2.87333 42.3939 2.83 41.9693 2.83Z"/>
</mask>
<path d="M5.096 10.5L2.86 3.22H2.808C2.81667 3.39333 2.82967 3.65333 2.847 4C2.86433 4.34667 2.88167 4.71933 2.899 5.118C2.91633 5.508 2.925 5.86333 2.925 6.184V10.5H1.17V1.218H3.848L6.045 8.316H6.084L8.411 1.218H11.089V10.5H9.256V6.106C9.256 5.81133 9.26033 5.47333 9.269 5.092C9.28633 4.71067 9.29933 4.351 9.308 4.013C9.32533 3.66633 9.33833 3.40633 9.347 3.233H9.295L6.903 10.5H5.096ZM16.9047 10.5H12.6797V9.382L13.8107 8.862V2.856L12.6797 2.336V1.218H16.9047V2.336L15.7737 2.856V8.862L16.9047 9.382V10.5ZM26.7154 10.5H24.2194L20.1764 3.48H20.1244C20.1417 3.77467 20.1547 4.06933 20.1634 4.364C20.1807 4.65867 20.1937 4.95333 20.2024 5.248C20.2197 5.54267 20.2327 5.83733 20.2414 6.132V10.5H18.4864V1.218H20.9694L24.9994 8.173H25.0384C25.0297 7.887 25.0211 7.601 25.0124 7.315C25.0037 7.029 24.9907 6.74733 24.9734 6.47C24.9647 6.184 24.9561 5.898 24.9474 5.612V1.218H26.7154V10.5ZM37.4856 5.846C37.4856 6.56533 37.3946 7.21967 37.2126 7.809C37.0393 8.38967 36.7706 8.89233 36.4066 9.317C36.0513 9.74167 35.5919 10.0667 35.0286 10.292C34.4739 10.5173 33.8196 10.63 33.0656 10.63C32.3116 10.63 31.6529 10.5173 31.0896 10.292C30.5349 10.058 30.0756 9.733 29.7116 9.317C29.3563 8.89233 29.0876 8.38533 28.9056 7.796C28.7323 7.20667 28.6456 6.55233 28.6456 5.833C28.6456 4.871 28.8016 4.03467 29.1136 3.324C29.4343 2.61333 29.9196 2.063 30.5696 1.673C31.2283 1.27433 32.0646 1.075 33.0786 1.075C34.0839 1.075 34.9116 1.27433 35.5616 1.673C36.2116 2.063 36.6926 2.61767 37.0046 3.337C37.3253 4.04767 37.4856 4.884 37.4856 5.846ZM30.7126 5.846C30.7126 6.496 30.7949 7.055 30.9596 7.523C31.1243 7.991 31.3799 8.35067 31.7266 8.602C32.0733 8.85333 32.5196 8.979 33.0656 8.979C33.6289 8.979 34.0796 8.85333 34.4176 8.602C34.7643 8.35067 35.0156 7.991 35.1716 7.523C35.3363 7.055 35.4186 6.496 35.4186 5.846C35.4186 4.86667 35.2366 4.09967 34.8726 3.545C34.5086 2.99033 33.9106 2.713 33.0786 2.713C32.5239 2.713 32.0733 2.83867 31.7266 3.09C31.3799 3.34133 31.1243 3.701 30.9596 4.169C30.7949 4.637 30.7126 5.196 30.7126 5.846ZM42.1123 1.218C42.9529 1.218 43.6463 1.322 44.1923 1.53C44.7383 1.72933 45.1456 2.037 45.4143 2.453C45.6829 2.86033 45.8173 3.376 45.8173 4C45.8173 4.42467 45.7349 4.79733 45.5703 5.118C45.4143 5.43 45.2019 5.69867 44.9333 5.924C44.6733 6.14067 44.3916 6.31833 44.0883 6.457L46.8183 10.5H44.6343L42.4243 6.938H41.3713V10.5H39.4083V1.218H42.1123ZM41.9693 2.83H41.3713V5.339H42.0083C42.6583 5.339 43.1219 5.23067 43.3993 5.014C43.6853 4.79733 43.8283 4.47667 43.8283 4.052C43.8283 3.75733 43.7589 3.52333 43.6203 3.35C43.4903 3.168 43.2866 3.038 43.0093 2.96C42.7406 2.87333 42.3939 2.83 41.9693 2.83Z" fill="white"/>
<path d="M5.096 10.5L4.14007 10.7936L4.35704 11.5H5.096V10.5ZM2.86 3.22L3.81593 2.92639L3.59896 2.22H2.86V3.22ZM2.808 3.22V2.22H1.75675L1.80925 3.26994L2.808 3.22ZM2.847 4L1.84825 4.04994L1.84825 4.04994L2.847 4ZM2.899 5.118L1.89994 5.16144L1.89999 5.1624L2.899 5.118ZM2.925 10.5V11.5H3.925V10.5H2.925ZM1.17 10.5H0.17V11.5H1.17V10.5ZM1.17 1.218V0.217999H0.17V1.218H1.17ZM3.848 1.218L4.80329 0.922316L4.58528 0.217999H3.848V1.218ZM6.045 8.316L5.08971 8.61168L5.30772 9.316H6.045V8.316ZM6.084 8.316V9.316H6.80853L7.03424 8.62752L6.084 8.316ZM8.411 1.218V0.217999H7.68647L7.46076 0.906475L8.411 1.218ZM11.089 1.218H12.089V0.217999H11.089V1.218ZM11.089 10.5V11.5H12.089V10.5H11.089ZM9.256 10.5H8.256V11.5H9.256V10.5ZM9.269 5.092L8.27003 5.04659L8.26952 5.05793L8.26926 5.06928L9.269 5.092ZM9.308 4.013L8.30925 3.96306L8.30864 3.97521L8.30833 3.98737L9.308 4.013ZM9.347 3.233L10.3458 3.28294L10.3982 2.233H9.347V3.233ZM9.295 3.233V2.233H8.57138L8.34513 2.92034L9.295 3.233ZM6.903 10.5V11.5H7.62662L7.85287 10.8127L6.903 10.5ZM6.05193 10.2064L3.81593 2.92639L1.90407 3.51361L4.14007 10.7936L6.05193 10.2064ZM2.86 2.22H2.808V4.22H2.86V2.22ZM1.80925 3.26994C1.81791 3.44327 1.83091 3.70327 1.84825 4.04994L3.84575 3.95006C3.82842 3.6034 3.81542 3.3434 3.80675 3.17006L1.80925 3.26994ZM1.84825 4.04994C1.86546 4.39415 1.88269 4.76463 1.89994 5.16144L3.89806 5.07456C3.88064 4.67404 3.86321 4.29919 3.84575 3.95006L1.84825 4.04994ZM1.89999 5.1624C1.9168 5.54065 1.925 5.8809 1.925 6.184H3.925C3.925 5.84577 3.91587 5.47535 3.89801 5.0736L1.89999 5.1624ZM1.925 6.184V10.5H3.925V6.184H1.925ZM2.925 9.5H1.17V11.5H2.925V9.5ZM2.17 10.5V1.218H0.17V10.5H2.17ZM1.17 2.218H3.848V0.217999H1.17V2.218ZM2.89271 1.51368L5.08971 8.61168L7.00029 8.02032L4.80329 0.922316L2.89271 1.51368ZM6.045 9.316H6.084V7.316H6.045V9.316ZM7.03424 8.62752L9.36124 1.52952L7.46076 0.906475L5.13376 8.00447L7.03424 8.62752ZM8.411 2.218H11.089V0.217999H8.411V2.218ZM10.089 1.218V10.5H12.089V1.218H10.089ZM11.089 9.5H9.256V11.5H11.089V9.5ZM10.256 10.5V6.106H8.256V10.5H10.256ZM10.256 6.106C10.256 5.82073 10.2602 5.49055 10.2687 5.11472L8.26926 5.06928C8.26047 5.45612 8.256 5.80194 8.256 6.106H10.256ZM10.268 5.13741C10.2856 4.75031 10.2988 4.384 10.3077 4.03863L8.30833 3.98737C8.29985 4.318 8.2871 4.67103 8.27003 5.04659L10.268 5.13741ZM10.3068 4.06294C10.3241 3.71627 10.3371 3.45627 10.3458 3.28294L8.34825 3.18306C8.33958 3.3564 8.32658 3.61639 8.30925 3.96306L10.3068 4.06294ZM9.347 2.233H9.295V4.233H9.347V2.233ZM8.34513 2.92034L5.95313 10.1873L7.85287 10.8127L10.2449 3.54566L8.34513 2.92034ZM6.903 9.5H5.096V11.5H6.903V9.5ZM16.9047 10.5V11.5H17.9047V10.5H16.9047ZM12.6797 10.5H11.6797V11.5H12.6797V10.5ZM12.6797 9.382L12.2619 8.47343L11.6797 8.74114V9.382H12.6797ZM13.8107 8.862L14.2284 9.77057L14.8107 9.50286V8.862H13.8107ZM13.8107 2.856H14.8107V2.21514L14.2284 1.94743L13.8107 2.856ZM12.6797 2.336H11.6797V2.97686L12.2619 3.24457L12.6797 2.336ZM12.6797 1.218V0.217999H11.6797V1.218H12.6797ZM16.9047 1.218H17.9047V0.217999H16.9047V1.218ZM16.9047 2.336L17.3224 3.24457L17.9047 2.97686V2.336H16.9047ZM15.7737 2.856L15.3559 1.94743L14.7737 2.21514V2.856H15.7737ZM15.7737 8.862H14.7737V9.50286L15.3559 9.77057L15.7737 8.862ZM16.9047 9.382H17.9047V8.74114L17.3224 8.47343L16.9047 9.382ZM16.9047 9.5H12.6797V11.5H16.9047V9.5ZM13.6797 10.5V9.382H11.6797V10.5H13.6797ZM13.0974 10.2906L14.2284 9.77057L13.3929 7.95343L12.2619 8.47343L13.0974 10.2906ZM14.8107 8.862V2.856H12.8107V8.862H14.8107ZM14.2284 1.94743L13.0974 1.42743L12.2619 3.24457L13.3929 3.76457L14.2284 1.94743ZM13.6797 2.336V1.218H11.6797V2.336H13.6797ZM12.6797 2.218H16.9047V0.217999H12.6797V2.218ZM15.9047 1.218V2.336H17.9047V1.218H15.9047ZM16.4869 1.42743L15.3559 1.94743L16.1914 3.76457L17.3224 3.24457L16.4869 1.42743ZM14.7737 2.856V8.862H16.7737V2.856H14.7737ZM15.3559 9.77057L16.4869 10.2906L17.3224 8.47343L16.1914 7.95343L15.3559 9.77057ZM15.9047 9.382V10.5H17.9047V9.382H15.9047ZM26.7154 10.5V11.5H27.7154V10.5H26.7154ZM24.2194 10.5L23.3528 10.9991L23.6413 11.5H24.2194V10.5ZM20.1764 3.48L21.043 2.98093L20.7545 2.48H20.1764V3.48ZM20.1244 3.48V2.48H19.0639L19.1261 3.53872L20.1244 3.48ZM20.1634 4.364L19.1638 4.3934L19.1643 4.40807L19.1651 4.42272L20.1634 4.364ZM20.2024 5.248L19.2028 5.2774L19.2033 5.29207L19.2041 5.30672L20.2024 5.248ZM20.2414 6.132H21.2414V6.1173L21.241 6.1026L20.2414 6.132ZM20.2414 10.5V11.5H21.2414V10.5H20.2414ZM18.4864 10.5H17.4864V11.5H18.4864V10.5ZM18.4864 1.218V0.217999H17.4864V1.218H18.4864ZM20.9694 1.218L21.8346 0.716644L21.5457 0.217999H20.9694V1.218ZM24.9994 8.173L24.1342 8.67435L24.4231 9.173H24.9994V8.173ZM25.0384 8.173V9.173H26.0692L26.0379 8.14271L25.0384 8.173ZM25.0124 7.315L24.0129 7.34529L24.0129 7.34529L25.0124 7.315ZM24.9734 6.47L23.9739 6.50029L23.9744 6.51635L23.9754 6.53238L24.9734 6.47ZM24.9474 5.612H23.9474V5.62715L23.9479 5.64229L24.9474 5.612ZM24.9474 1.218V0.217999H23.9474V1.218H24.9474ZM26.7154 1.218H27.7154V0.217999H26.7154V1.218ZM26.7154 9.5H24.2194V11.5H26.7154V9.5ZM25.086 10.0009L21.043 2.98093L19.3098 3.97907L23.3528 10.9991L25.086 10.0009ZM20.1764 2.48H20.1244V4.48H20.1764V2.48ZM19.1261 3.53872C19.1429 3.82363 19.1555 4.10852 19.1638 4.3934L21.163 4.3346C21.154 4.03014 21.1406 3.7257 21.1227 3.42128L19.1261 3.53872ZM19.1651 4.42272C19.1819 4.70763 19.1945 4.99252 19.2028 5.2774L21.202 5.2186C21.193 4.91414 21.1796 4.6097 21.1617 4.30528L19.1651 4.42272ZM19.2041 5.30672C19.2209 5.59163 19.2335 5.87652 19.2418 6.1614L21.241 6.1026C21.232 5.79814 21.2186 5.4937 21.2007 5.18928L19.2041 5.30672ZM19.2414 6.132V10.5H21.2414V6.132H19.2414ZM20.2414 9.5H18.4864V11.5H20.2414V9.5ZM19.4864 10.5V1.218H17.4864V10.5H19.4864ZM18.4864 2.218H20.9694V0.217999H18.4864V2.218ZM20.1042 1.71935L24.1342 8.67435L25.8646 7.67164L21.8346 0.716644L20.1042 1.71935ZM24.9994 9.173H25.0384V7.173H24.9994V9.173ZM26.0379 8.14271C26.0293 7.85671 26.0206 7.57071 26.0119 7.28471L24.0129 7.34529C24.0215 7.63129 24.0302 7.91729 24.0389 8.20329L26.0379 8.14271ZM26.0119 7.28471C26.003 6.98832 25.9895 6.69595 25.9715 6.40762L23.9754 6.53238C23.992 6.79871 24.0045 7.06968 24.0129 7.34529L26.0119 7.28471ZM25.9729 6.43971C25.9643 6.15371 25.9556 5.86771 25.9469 5.58171L23.9479 5.64229C23.9565 5.92829 23.9652 6.21429 23.9739 6.50029L25.9729 6.43971ZM25.9474 5.612V1.218H23.9474V5.612H25.9474ZM24.9474 2.218H26.7154V0.217999H24.9474V2.218ZM25.7154 1.218V10.5H27.7154V1.218H25.7154ZM37.2126 7.809L36.2571 7.51391L36.2544 7.52296L37.2126 7.809ZM36.4066 9.317L35.6473 8.66616L35.6397 8.67528L36.4066 9.317ZM35.0286 10.292L34.6572 9.36351L34.6522 9.36553L35.0286 10.292ZM31.0896 10.292L30.7009 11.2134L30.7095 11.217L30.7182 11.2205L31.0896 10.292ZM29.7116 9.317L28.9447 9.95872L28.9518 9.96719L28.959 9.9755L29.7116 9.317ZM28.9056 7.796L27.9461 8.07819L27.9501 8.09107L28.9056 7.796ZM29.1136 3.324L28.202 2.91269L28.198 2.92201L29.1136 3.324ZM30.5696 1.673L31.0841 2.5305L31.0874 2.5285L30.5696 1.673ZM35.5616 1.673L35.0387 2.52548L35.0471 2.53049L35.5616 1.673ZM37.0046 3.337L36.0872 3.73492L36.0901 3.74162L36.0931 3.74829L37.0046 3.337ZM31.7266 8.602L32.3136 7.79239L32.3136 7.79239L31.7266 8.602ZM34.4176 8.602L33.8306 7.79233L33.8209 7.79954L34.4176 8.602ZM35.1716 7.523L34.2283 7.19109L34.2255 7.19891L34.2229 7.20677L35.1716 7.523ZM34.8726 3.545L34.0366 4.09366L34.0366 4.09366L34.8726 3.545ZM31.7266 3.09L31.1396 2.28039L31.1396 2.28039L31.7266 3.09ZM30.9596 4.169L30.0163 3.83709L30.9596 4.169ZM36.4856 5.846C36.4856 6.48151 36.4052 7.03452 36.2571 7.51393L38.1681 8.10407C38.384 7.40482 38.4856 6.64915 38.4856 5.846H36.4856ZM36.2544 7.52296C36.1177 7.98079 35.9128 8.35648 35.6473 8.66621L37.1659 9.96779C37.6284 9.42818 37.9608 8.79855 38.1708 8.09503L36.2544 7.52296ZM35.6397 8.67528C35.4004 8.96127 35.082 9.19359 34.6572 9.36352L35.4 11.2205C36.1018 10.9397 36.7022 10.5221 37.1735 9.95872L35.6397 8.67528ZM34.6522 9.36553C34.2437 9.53149 33.7228 9.63 33.0656 9.63V11.63C33.9164 11.63 34.7042 11.5032 35.405 11.2185L34.6522 9.36553ZM33.0656 9.63C32.409 9.63 31.8814 9.53167 31.461 9.36352L30.7182 11.2205C31.4245 11.503 32.2142 11.63 33.0656 11.63V9.63ZM31.4783 9.37064C31.0506 9.19021 30.7197 8.95054 30.4642 8.6585L28.959 9.9755C29.4315 10.5155 30.0192 10.9258 30.7009 11.2134L31.4783 9.37064ZM30.4785 8.67528C30.2177 8.3635 30.0083 7.97781 29.8611 7.50093L27.9501 8.09107C28.1669 8.79286 28.4949 9.42117 28.9447 9.95872L30.4785 8.67528ZM29.865 7.51383C29.7227 7.03021 29.6456 6.4727 29.6456 5.833H27.6456C27.6456 6.63197 27.7418 7.38312 27.9462 8.07817L29.865 7.51383ZM29.6456 5.833C29.6456 4.97719 29.7845 4.28345 30.0292 3.72599L28.198 2.92201C27.8187 3.78588 27.6456 4.76481 27.6456 5.833H29.6456ZM30.0251 3.73529C30.2645 3.20468 30.614 2.81253 31.0841 2.53049L30.0551 0.815507C29.2252 1.31347 28.604 2.02199 28.2021 2.91271L30.0251 3.73529ZM31.0874 2.5285C31.5478 2.24984 32.1907 2.075 33.0786 2.075V0.0749997C31.9385 0.0749997 30.9087 0.298827 30.0518 0.8175L31.0874 2.5285ZM33.0786 2.075C33.9567 2.075 34.5887 2.24939 35.0388 2.52544L36.0844 0.820562C35.2345 0.299273 34.2111 0.0749997 33.0786 0.0749997V2.075ZM35.0471 2.53049C35.5117 2.80923 35.8552 3.20005 36.0872 3.73492L37.922 2.93908C37.53 2.03529 36.9115 1.31677 36.0761 0.815507L35.0471 2.53049ZM36.0931 3.74829C36.3435 4.30315 36.4856 4.9935 36.4856 5.846H38.4856C38.4856 4.7745 38.3071 3.79218 37.9161 2.92571L36.0931 3.74829ZM29.7126 5.846C29.7126 6.57595 29.8045 7.25298 30.0163 7.85491L31.9029 7.19109C31.7854 6.85702 31.7126 6.41605 31.7126 5.846H29.7126ZM30.0163 7.85491C30.2374 8.48332 30.6034 9.02285 31.1396 9.41161L32.3136 7.79239C32.1565 7.67849 32.0111 7.49868 31.9029 7.19109L30.0163 7.85491ZM31.1396 9.41161C31.6988 9.817 32.367 9.979 33.0656 9.979V7.979C32.6722 7.979 32.4478 7.88967 32.3136 7.79239L31.1396 9.41161ZM33.0656 9.979C33.772 9.979 34.4539 9.82118 35.0143 9.40446L33.8209 7.79954C33.7053 7.88548 33.4859 7.979 33.0656 7.979V9.979ZM35.0046 9.41161C35.5452 9.01964 35.9086 8.47421 36.1203 7.83923L34.2229 7.20677C34.1226 7.50779 33.9833 7.68169 33.8306 7.79239L35.0046 9.41161ZM36.1149 7.85491C36.3267 7.25298 36.4186 6.57595 36.4186 5.846H34.4186C34.4186 6.41604 34.3458 6.85702 34.2283 7.19109L36.1149 7.85491ZM36.4186 5.846C36.4186 4.75921 36.2192 3.77433 35.7086 2.99634L34.0366 4.09366C34.254 4.425 34.4186 4.97412 34.4186 5.846H36.4186ZM35.7086 2.99634C35.1121 2.08738 34.1503 1.713 33.0786 1.713V3.713C33.6709 3.713 33.9051 3.89328 34.0366 4.09366L35.7086 2.99634ZM33.0786 1.713C32.3753 1.713 31.7013 1.8732 31.1396 2.28039L32.3136 3.89961C32.4453 3.80413 32.6726 3.713 33.0786 3.713V1.713ZM31.1396 2.28039C30.6034 2.66915 30.2374 3.20868 30.0163 3.83709L31.9029 4.50091C32.0111 4.19332 32.1565 4.01351 32.3136 3.89961L31.1396 2.28039ZM30.0163 3.83709C29.8045 4.43902 29.7126 5.11605 29.7126 5.846H31.7126C31.7126 5.27595 31.7854 4.83498 31.9029 4.50091L30.0163 3.83709ZM44.1923 1.53L43.8363 2.46458L43.8493 2.46936L44.1923 1.53ZM45.4143 2.453L44.5742 2.99555L44.5795 3.00359L45.4143 2.453ZM45.5703 5.118L44.6807 4.66117L44.6759 4.67079L45.5703 5.118ZM44.9333 5.924L45.5735 6.69223L45.5759 6.69019L44.9333 5.924ZM44.0883 6.457L43.6725 5.54753L42.5989 6.03831L43.2595 7.01661L44.0883 6.457ZM46.8183 10.5V11.5H48.7002L47.647 9.94039L46.8183 10.5ZM44.6343 10.5L43.7845 11.0272L44.0779 11.5H44.6343V10.5ZM42.4243 6.938L43.274 6.41079L42.9807 5.938H42.4243V6.938ZM41.3713 6.938V5.938H40.3713V6.938H41.3713ZM41.3713 10.5V11.5H42.3713V10.5H41.3713ZM39.4083 10.5H38.4083V11.5H39.4083V10.5ZM39.4083 1.218V0.217999H38.4083V1.218H39.4083ZM41.3713 2.83V1.83H40.3713V2.83H41.3713ZM41.3713 5.339H40.3713V6.339H41.3713V5.339ZM43.3993 5.014L42.7954 4.21691L42.7895 4.2214L42.7836 4.22598L43.3993 5.014ZM43.6203 3.35L42.8065 3.93124L42.8224 3.95341L42.8394 3.97469L43.6203 3.35ZM43.0093 2.96L42.7023 3.91171L42.7203 3.91752L42.7385 3.92265L43.0093 2.96ZM42.1123 2.218C42.8802 2.218 43.4421 2.31433 43.8363 2.46449L44.5483 0.595511C43.8504 0.329665 43.0257 0.217999 42.1123 0.217999V2.218ZM43.8493 2.46936C44.2277 2.60748 44.4433 2.79278 44.5742 2.99553L46.2543 1.91047C45.8479 1.28122 45.2489 0.851182 44.5352 0.590642L43.8493 2.46936ZM44.5795 3.00359C44.714 3.20749 44.8173 3.51755 44.8173 4H46.8173C46.8173 3.23445 46.6519 2.51317 46.2491 1.90241L44.5795 3.00359ZM44.8173 4C44.8173 4.294 44.7609 4.50499 44.6807 4.66119L46.4598 5.5748C46.709 5.08968 46.8173 4.55533 46.8173 4H44.8173ZM44.6759 4.67079C44.5814 4.85969 44.455 5.01997 44.2907 5.15781L45.5759 6.69019C45.9489 6.37736 46.2472 6.00031 46.4647 5.56521L44.6759 4.67079ZM44.2931 5.15578C44.1003 5.31645 43.8939 5.44632 43.6725 5.54753L44.504 7.36647C44.8893 7.19035 45.2463 6.96488 45.5735 6.69222L44.2931 5.15578ZM43.2595 7.01661L45.9895 11.0596L47.647 9.94039L44.917 5.89739L43.2595 7.01661ZM46.8183 9.5H44.6343V11.5H46.8183V9.5ZM45.484 9.97279L43.274 6.41079L41.5745 7.46521L43.7845 11.0272L45.484 9.97279ZM42.4243 5.938H41.3713V7.938H42.4243V5.938ZM40.3713 6.938V10.5H42.3713V6.938H40.3713ZM41.3713 9.5H39.4083V11.5H41.3713V9.5ZM40.4083 10.5V1.218H38.4083V10.5H40.4083ZM39.4083 2.218H42.1123V0.217999H39.4083V2.218ZM41.9693 1.83H41.3713V3.83H41.9693V1.83ZM40.3713 2.83V5.339H42.3713V2.83H40.3713ZM41.3713 6.339H42.0083V4.339H41.3713V6.339ZM42.0083 6.339C42.7164 6.339 43.4653 6.23139 44.0149 5.80202L42.7836 4.22598C42.7922 4.21928 42.7537 4.2518 42.616 4.28398C42.4802 4.3157 42.2824 4.339 42.0083 4.339V6.339ZM44.0031 5.81109C44.5861 5.36943 44.8283 4.72496 44.8283 4.052H42.8283C42.8283 4.15281 42.8114 4.19549 42.8077 4.20372C42.8066 4.20621 42.8059 4.20742 42.8057 4.20772C42.8055 4.20802 42.8055 4.20805 42.8055 4.20807C42.8055 4.2081 42.805 4.20872 42.8037 4.20997C42.8024 4.21125 42.7998 4.21361 42.7954 4.21691L44.0031 5.81109ZM44.8283 4.052C44.8283 3.60481 44.7221 3.12652 44.4012 2.72531L42.8394 3.97469C42.8203 3.95079 42.8159 3.93419 42.8175 3.93959C42.8199 3.94759 42.8283 3.98163 42.8283 4.052H44.8283ZM44.434 2.76876C44.1377 2.35385 43.7125 2.11899 43.28 1.99735L42.7385 3.92265C42.8003 3.94002 42.827 3.95574 42.832 3.95892C42.8342 3.96034 42.8315 3.95887 42.826 3.95367C42.8203 3.94836 42.8134 3.94081 42.8065 3.93124L44.434 2.76876ZM43.3163 2.00829C42.9118 1.87783 42.4511 1.83 41.9693 1.83V3.83C42.3368 3.83 42.5694 3.86884 42.7023 3.91171L43.3163 2.00829Z" fill="black" mask="url(#path-1-outside-1_1137_1384)"/>
</svg>
