<svg width="47" height="15" viewBox="0 0 47 15" fill="none" xmlns="http://www.w3.org/2000/svg">
<mask id="path-1-outside-1_1137_1378" maskUnits="userSpaceOnUse" x="0" y="-0.5" width="47" height="15" fill="black">
<rect fill="white" y="-0.5" width="47" height="15"/>
<path d="M5.096 10.5L2.86 3.22H2.808C2.81667 3.39333 2.82967 3.65333 2.847 4C2.86433 4.34667 2.88167 4.71933 2.899 5.118C2.91633 5.508 2.925 5.86333 2.925 6.184V10.5H1.17V1.218H3.848L6.045 8.316H6.084L8.411 1.218H11.089V10.5H9.256V6.106C9.256 5.81133 9.26033 5.47333 9.269 5.092C9.28633 4.71067 9.29933 4.351 9.308 4.013C9.32533 3.66633 9.33833 3.40633 9.347 3.233H9.295L6.903 10.5H5.096ZM19.1147 10.5L18.4387 8.29H15.0587L14.3827 10.5H12.2637L15.5397 1.179H17.9447L21.2337 10.5H19.1147ZM17.2947 4.481C17.2513 4.33367 17.195 4.14733 17.1257 3.922C17.0563 3.69667 16.987 3.467 16.9177 3.233C16.8483 2.999 16.792 2.79533 16.7487 2.622C16.7053 2.79533 16.6447 3.012 16.5667 3.272C16.4973 3.52333 16.428 3.766 16.3587 4C16.298 4.22533 16.2503 4.38567 16.2157 4.481L15.5527 6.639H17.9707L17.2947 4.481ZM22.0817 13.23C21.8304 13.23 21.6094 13.2127 21.4187 13.178C21.2281 13.152 21.0634 13.1217 20.9247 13.087V11.449C21.0634 11.4837 21.2107 11.514 21.3667 11.54C21.5141 11.566 21.6744 11.579 21.8477 11.579C22.0731 11.579 22.2767 11.5357 22.4587 11.449C22.6494 11.3623 22.7967 11.1977 22.9007 10.955C23.0047 10.7123 23.0567 10.3657 23.0567 9.915V1.218H25.0197V9.902C25.0197 10.6993 24.8941 11.3407 24.6427 11.826C24.4001 12.32 24.0577 12.6753 23.6157 12.892C23.1737 13.1173 22.6624 13.23 22.0817 13.23ZM35.7844 5.846C35.7844 6.56533 35.6934 7.21967 35.5114 7.809C35.3381 8.38967 35.0694 8.89233 34.7054 9.317C34.3501 9.74167 33.8908 10.0667 33.3274 10.292C32.7728 10.5173 32.1184 10.63 31.3644 10.63C30.6104 10.63 29.9518 10.5173 29.3884 10.292C28.8338 10.058 28.3744 9.733 28.0104 9.317C27.6551 8.89233 27.3864 8.38533 27.2044 7.796C27.0311 7.20667 26.9444 6.55233 26.9444 5.833C26.9444 4.871 27.1004 4.03467 27.4124 3.324C27.7331 2.61333 28.2184 2.063 28.8684 1.673C29.5271 1.27433 30.3634 1.075 31.3774 1.075C32.3828 1.075 33.2104 1.27433 33.8604 1.673C34.5104 2.063 34.9914 2.61767 35.3034 3.337C35.6241 4.04767 35.7844 4.884 35.7844 5.846ZM29.0114 5.846C29.0114 6.496 29.0938 7.055 29.2584 7.523C29.4231 7.991 29.6788 8.35067 30.0254 8.602C30.3721 8.85333 30.8184 8.979 31.3644 8.979C31.9278 8.979 32.3784 8.85333 32.7164 8.602C33.0631 8.35067 33.3144 7.991 33.4704 7.523C33.6351 7.055 33.7174 6.496 33.7174 5.846C33.7174 4.86667 33.5354 4.09967 33.1714 3.545C32.8074 2.99033 32.2094 2.713 31.3774 2.713C30.8228 2.713 30.3721 2.83867 30.0254 3.09C29.6788 3.34133 29.4231 3.701 29.2584 4.169C29.0938 4.637 29.0114 5.196 29.0114 5.846ZM40.4111 1.218C41.2518 1.218 41.9451 1.322 42.4911 1.53C43.0371 1.72933 43.4444 2.037 43.7131 2.453C43.9818 2.86033 44.1161 3.376 44.1161 4C44.1161 4.42467 44.0338 4.79733 43.8691 5.118C43.7131 5.43 43.5008 5.69867 43.2321 5.924C42.9721 6.14067 42.6904 6.31833 42.3871 6.457L45.1171 10.5H42.9331L40.7231 6.938H39.6701V10.5H37.7071V1.218H40.4111ZM40.2681 2.83H39.6701V5.339H40.3071C40.9571 5.339 41.4208 5.23067 41.6981 5.014C41.9841 4.79733 42.1271 4.47667 42.1271 4.052C42.1271 3.75733 42.0578 3.52333 41.9191 3.35C41.7891 3.168 41.5854 3.038 41.3081 2.96C41.0394 2.87333 40.6928 2.83 40.2681 2.83Z"/>
</mask>
<path d="M5.096 10.5L2.86 3.22H2.808C2.81667 3.39333 2.82967 3.65333 2.847 4C2.86433 4.34667 2.88167 4.71933 2.899 5.118C2.91633 5.508 2.925 5.86333 2.925 6.184V10.5H1.17V1.218H3.848L6.045 8.316H6.084L8.411 1.218H11.089V10.5H9.256V6.106C9.256 5.81133 9.26033 5.47333 9.269 5.092C9.28633 4.71067 9.29933 4.351 9.308 4.013C9.32533 3.66633 9.33833 3.40633 9.347 3.233H9.295L6.903 10.5H5.096ZM19.1147 10.5L18.4387 8.29H15.0587L14.3827 10.5H12.2637L15.5397 1.179H17.9447L21.2337 10.5H19.1147ZM17.2947 4.481C17.2513 4.33367 17.195 4.14733 17.1257 3.922C17.0563 3.69667 16.987 3.467 16.9177 3.233C16.8483 2.999 16.792 2.79533 16.7487 2.622C16.7053 2.79533 16.6447 3.012 16.5667 3.272C16.4973 3.52333 16.428 3.766 16.3587 4C16.298 4.22533 16.2503 4.38567 16.2157 4.481L15.5527 6.639H17.9707L17.2947 4.481ZM22.0817 13.23C21.8304 13.23 21.6094 13.2127 21.4187 13.178C21.2281 13.152 21.0634 13.1217 20.9247 13.087V11.449C21.0634 11.4837 21.2107 11.514 21.3667 11.54C21.5141 11.566 21.6744 11.579 21.8477 11.579C22.0731 11.579 22.2767 11.5357 22.4587 11.449C22.6494 11.3623 22.7967 11.1977 22.9007 10.955C23.0047 10.7123 23.0567 10.3657 23.0567 9.915V1.218H25.0197V9.902C25.0197 10.6993 24.8941 11.3407 24.6427 11.826C24.4001 12.32 24.0577 12.6753 23.6157 12.892C23.1737 13.1173 22.6624 13.23 22.0817 13.23ZM35.7844 5.846C35.7844 6.56533 35.6934 7.21967 35.5114 7.809C35.3381 8.38967 35.0694 8.89233 34.7054 9.317C34.3501 9.74167 33.8908 10.0667 33.3274 10.292C32.7728 10.5173 32.1184 10.63 31.3644 10.63C30.6104 10.63 29.9518 10.5173 29.3884 10.292C28.8338 10.058 28.3744 9.733 28.0104 9.317C27.6551 8.89233 27.3864 8.38533 27.2044 7.796C27.0311 7.20667 26.9444 6.55233 26.9444 5.833C26.9444 4.871 27.1004 4.03467 27.4124 3.324C27.7331 2.61333 28.2184 2.063 28.8684 1.673C29.5271 1.27433 30.3634 1.075 31.3774 1.075C32.3828 1.075 33.2104 1.27433 33.8604 1.673C34.5104 2.063 34.9914 2.61767 35.3034 3.337C35.6241 4.04767 35.7844 4.884 35.7844 5.846ZM29.0114 5.846C29.0114 6.496 29.0938 7.055 29.2584 7.523C29.4231 7.991 29.6788 8.35067 30.0254 8.602C30.3721 8.85333 30.8184 8.979 31.3644 8.979C31.9278 8.979 32.3784 8.85333 32.7164 8.602C33.0631 8.35067 33.3144 7.991 33.4704 7.523C33.6351 7.055 33.7174 6.496 33.7174 5.846C33.7174 4.86667 33.5354 4.09967 33.1714 3.545C32.8074 2.99033 32.2094 2.713 31.3774 2.713C30.8228 2.713 30.3721 2.83867 30.0254 3.09C29.6788 3.34133 29.4231 3.701 29.2584 4.169C29.0938 4.637 29.0114 5.196 29.0114 5.846ZM40.4111 1.218C41.2518 1.218 41.9451 1.322 42.4911 1.53C43.0371 1.72933 43.4444 2.037 43.7131 2.453C43.9818 2.86033 44.1161 3.376 44.1161 4C44.1161 4.42467 44.0338 4.79733 43.8691 5.118C43.7131 5.43 43.5008 5.69867 43.2321 5.924C42.9721 6.14067 42.6904 6.31833 42.3871 6.457L45.1171 10.5H42.9331L40.7231 6.938H39.6701V10.5H37.7071V1.218H40.4111ZM40.2681 2.83H39.6701V5.339H40.3071C40.9571 5.339 41.4208 5.23067 41.6981 5.014C41.9841 4.79733 42.1271 4.47667 42.1271 4.052C42.1271 3.75733 42.0578 3.52333 41.9191 3.35C41.7891 3.168 41.5854 3.038 41.3081 2.96C41.0394 2.87333 40.6928 2.83 40.2681 2.83Z" fill="white"/>
<path d="M5.096 10.5L4.14007 10.7936L4.35704 11.5H5.096V10.5ZM2.86 3.22L3.81593 2.92639L3.59896 2.22H2.86V3.22ZM2.808 3.22V2.22H1.75675L1.80925 3.26994L2.808 3.22ZM2.847 4L1.84825 4.04994L1.84825 4.04994L2.847 4ZM2.899 5.118L1.89994 5.16144L1.89999 5.1624L2.899 5.118ZM2.925 10.5V11.5H3.925V10.5H2.925ZM1.17 10.5H0.17V11.5H1.17V10.5ZM1.17 1.218V0.217999H0.17V1.218H1.17ZM3.848 1.218L4.80329 0.922316L4.58528 0.217999H3.848V1.218ZM6.045 8.316L5.08971 8.61168L5.30772 9.316H6.045V8.316ZM6.084 8.316V9.316H6.80853L7.03424 8.62752L6.084 8.316ZM8.411 1.218V0.217999H7.68647L7.46076 0.906475L8.411 1.218ZM11.089 1.218H12.089V0.217999H11.089V1.218ZM11.089 10.5V11.5H12.089V10.5H11.089ZM9.256 10.5H8.256V11.5H9.256V10.5ZM9.269 5.092L8.27003 5.04659L8.26952 5.05793L8.26926 5.06928L9.269 5.092ZM9.308 4.013L8.30925 3.96306L8.30864 3.97521L8.30833 3.98737L9.308 4.013ZM9.347 3.233L10.3458 3.28294L10.3982 2.233H9.347V3.233ZM9.295 3.233V2.233H8.57138L8.34513 2.92034L9.295 3.233ZM6.903 10.5V11.5H7.62662L7.85287 10.8127L6.903 10.5ZM6.05193 10.2064L3.81593 2.92639L1.90407 3.51361L4.14007 10.7936L6.05193 10.2064ZM2.86 2.22H2.808V4.22H2.86V2.22ZM1.80925 3.26994C1.81791 3.44327 1.83091 3.70327 1.84825 4.04994L3.84575 3.95006C3.82842 3.6034 3.81542 3.3434 3.80675 3.17006L1.80925 3.26994ZM1.84825 4.04994C1.86546 4.39415 1.88269 4.76463 1.89994 5.16144L3.89806 5.07456C3.88064 4.67404 3.86321 4.29919 3.84575 3.95006L1.84825 4.04994ZM1.89999 5.1624C1.9168 5.54065 1.925 5.8809 1.925 6.184H3.925C3.925 5.84577 3.91587 5.47535 3.89801 5.0736L1.89999 5.1624ZM1.925 6.184V10.5H3.925V6.184H1.925ZM2.925 9.5H1.17V11.5H2.925V9.5ZM2.17 10.5V1.218H0.17V10.5H2.17ZM1.17 2.218H3.848V0.217999H1.17V2.218ZM2.89271 1.51368L5.08971 8.61168L7.00029 8.02032L4.80329 0.922316L2.89271 1.51368ZM6.045 9.316H6.084V7.316H6.045V9.316ZM7.03424 8.62752L9.36124 1.52952L7.46076 0.906475L5.13376 8.00447L7.03424 8.62752ZM8.411 2.218H11.089V0.217999H8.411V2.218ZM10.089 1.218V10.5H12.089V1.218H10.089ZM11.089 9.5H9.256V11.5H11.089V9.5ZM10.256 10.5V6.106H8.256V10.5H10.256ZM10.256 6.106C10.256 5.82073 10.2602 5.49055 10.2687 5.11472L8.26926 5.06928C8.26047 5.45612 8.256 5.80194 8.256 6.106H10.256ZM10.268 5.13741C10.2856 4.75031 10.2988 4.384 10.3077 4.03863L8.30833 3.98737C8.29985 4.318 8.2871 4.67103 8.27003 5.04659L10.268 5.13741ZM10.3068 4.06294C10.3241 3.71627 10.3371 3.45627 10.3458 3.28294L8.34825 3.18306C8.33958 3.3564 8.32658 3.61639 8.30925 3.96306L10.3068 4.06294ZM9.347 2.233H9.295V4.233H9.347V2.233ZM8.34513 2.92034L5.95313 10.1873L7.85287 10.8127L10.2449 3.54566L8.34513 2.92034ZM6.903 9.5H5.096V11.5H6.903V9.5ZM19.1147 10.5L18.1584 10.7925L18.3748 11.5H19.1147V10.5ZM18.4387 8.29L19.3949 7.9975L19.1785 7.29H18.4387V8.29ZM15.0587 8.29V7.29H14.3188L14.1024 7.9975L15.0587 8.29ZM14.3827 10.5V11.5H15.1225L15.3389 10.7925L14.3827 10.5ZM12.2637 10.5L11.3202 10.1684L10.8522 11.5H12.2637V10.5ZM15.5397 1.179V0.179H14.8312L14.5962 0.847419L15.5397 1.179ZM17.9447 1.179L18.8877 0.846249L18.6522 0.179H17.9447V1.179ZM21.2337 10.5V11.5H22.647L22.1767 10.1672L21.2337 10.5ZM17.2947 4.481L16.3353 4.76317L16.3378 4.77157L16.3404 4.77993L17.2947 4.481ZM17.1257 3.922L16.1699 4.21609L16.1699 4.21609L17.1257 3.922ZM16.9177 3.233L15.9589 3.51709L15.9589 3.51709L16.9177 3.233ZM16.7487 2.622L17.7188 2.37946L15.7785 2.37946L16.7487 2.622ZM16.5667 3.272L15.6088 2.98465L15.6056 2.99533L15.6027 3.00607L16.5667 3.272ZM16.3587 4L15.3999 3.71591L15.3963 3.72793L15.3931 3.74003L16.3587 4ZM16.2157 4.481L15.2759 4.13926L15.2672 4.16308L15.2598 4.18732L16.2157 4.481ZM15.5527 6.639L14.5968 6.34532L14.1993 7.639H15.5527V6.639ZM17.9707 6.639V7.639H19.3318L18.9249 6.34007L17.9707 6.639ZM20.0709 10.2075L19.3949 7.9975L17.4824 8.5825L18.1584 10.7925L20.0709 10.2075ZM18.4387 7.29H15.0587V9.29H18.4387V7.29ZM14.1024 7.9975L13.4264 10.2075L15.3389 10.7925L16.0149 8.5825L14.1024 7.9975ZM14.3827 9.5H12.2637V11.5H14.3827V9.5ZM13.2071 10.8316L16.4831 1.51058L14.5962 0.847419L11.3202 10.1684L13.2071 10.8316ZM15.5397 2.179H17.9447V0.179H15.5397V2.179ZM17.0017 1.51175L20.2907 10.8328L22.1767 10.1672L18.8877 0.846249L17.0017 1.51175ZM21.2337 9.5H19.1147V11.5H21.2337V9.5ZM18.254 4.19883C18.2091 4.04602 18.1514 3.85536 18.0815 3.62791L16.1699 4.21609C16.2386 4.4393 16.2936 4.62132 16.3353 4.76317L18.254 4.19883ZM18.0815 3.62791C18.0132 3.40602 17.9448 3.17969 17.8765 2.94891L15.9589 3.51709C16.0292 3.75431 16.0995 3.98731 16.1699 4.21609L18.0815 3.62791ZM17.8765 2.94891C17.8099 2.72409 17.7577 2.53489 17.7188 2.37946L15.7785 2.86454C15.8263 3.05578 15.8868 3.27391 15.9589 3.51709L17.8765 2.94891ZM15.7785 2.37946C15.7403 2.53221 15.6844 2.73274 15.6088 2.98465L17.5245 3.55935C17.6049 3.29126 17.6703 3.05846 17.7188 2.86454L15.7785 2.37946ZM15.6027 3.00607C15.5349 3.25174 15.4673 3.48834 15.3999 3.71591L17.3175 4.28409C17.3887 4.04366 17.4598 3.79492 17.5307 3.53793L15.6027 3.00607ZM15.3931 3.74003C15.3328 3.96383 15.2946 4.08782 15.2759 4.13926L17.1555 4.82274C17.2061 4.68351 17.2632 4.48684 17.3243 4.25997L15.3931 3.74003ZM15.2598 4.18732L14.5968 6.34532L16.5086 6.93268L17.1716 4.77468L15.2598 4.18732ZM15.5527 7.639H17.9707V5.639H15.5527V7.639ZM18.9249 6.34007L18.2489 4.18207L16.3404 4.77993L17.0164 6.93793L18.9249 6.34007ZM21.4187 13.178L21.5976 12.1941L21.5758 12.1902L21.5538 12.1872L21.4187 13.178ZM20.9247 13.087H19.9247V13.8678L20.6822 14.0571L20.9247 13.087ZM20.9247 11.449L21.1673 10.4789L19.9247 10.1682V11.449H20.9247ZM21.3667 11.54L21.5405 10.5552L21.5311 10.5536L21.3667 11.54ZM22.4587 11.449L22.0449 10.5386L22.0368 10.5423L22.0288 10.5461L22.4587 11.449ZM22.9007 10.955L21.9816 10.5611L22.9007 10.955ZM23.0567 1.218V0.217999H22.0567V1.218H23.0567ZM25.0197 1.218H26.0197V0.217999H25.0197V1.218ZM24.6427 11.826L23.7547 11.3661L23.7498 11.3756L23.7452 11.3851L24.6427 11.826ZM23.6157 12.892L23.1756 11.9941L23.1685 11.9975L23.1615 12.0011L23.6157 12.892ZM22.0817 12.23C21.8738 12.23 21.7149 12.2155 21.5976 12.1941L21.2398 14.1619C21.5039 14.2099 21.787 14.23 22.0817 14.23V12.23ZM21.5538 12.1872C21.3878 12.1645 21.2608 12.1402 21.1673 12.1169L20.6822 14.0571C20.866 14.1031 21.0683 14.1395 21.2836 14.1688L21.5538 12.1872ZM21.9247 13.087V11.449H19.9247V13.087H21.9247ZM20.6822 12.4191C20.8492 12.4609 21.0228 12.4965 21.2023 12.5264L21.5311 10.5536C21.3986 10.5315 21.2776 10.5064 21.1673 10.4789L20.6822 12.4191ZM21.1929 12.5248C21.4058 12.5623 21.625 12.579 21.8477 12.579V10.579C21.7237 10.579 21.6223 10.5697 21.5405 10.5552L21.1929 12.5248ZM21.8477 12.579C22.2041 12.579 22.5573 12.5097 22.8887 12.3519L22.0288 10.5461C21.9962 10.5617 21.942 10.579 21.8477 10.579V12.579ZM22.8725 12.3594C23.3448 12.1447 23.6442 11.7587 23.8199 11.3489L21.9816 10.5611C21.9643 10.6015 21.9557 10.6063 21.967 10.5937C21.9728 10.5872 21.9826 10.5775 21.9969 10.5669C22.0113 10.5562 22.0276 10.5465 22.0449 10.5386L22.8725 12.3594ZM23.8199 11.3489C24.0022 10.9235 24.0567 10.4187 24.0567 9.915H22.0567C22.0567 10.3126 22.0073 10.5011 21.9816 10.5611L23.8199 11.3489ZM24.0567 9.915V1.218H22.0567V9.915H24.0567ZM23.0567 2.218H25.0197V0.217999H23.0567V2.218ZM24.0197 1.218V9.902H26.0197V1.218H24.0197ZM24.0197 9.902C24.0197 10.6074 23.9065 11.0731 23.7547 11.3661L25.5307 12.2859C25.8816 11.6082 26.0197 10.7913 26.0197 9.902H24.0197ZM23.7452 11.3851C23.588 11.7051 23.3953 11.8864 23.1756 11.9941L24.0559 13.7899C24.7202 13.4643 25.2121 12.9349 25.5403 12.2669L23.7452 11.3851ZM23.1615 12.0011C22.8823 12.1434 22.5314 12.23 22.0817 12.23V14.23C22.7934 14.23 23.4651 14.0912 24.0699 13.7829L23.1615 12.0011ZM35.5114 7.809L34.5559 7.51391L34.5532 7.52296L35.5114 7.809ZM34.7054 9.317L33.9461 8.66616L33.9385 8.67528L34.7054 9.317ZM33.3274 10.292L32.956 9.36351L32.9511 9.36553L33.3274 10.292ZM29.3884 10.292L28.9997 11.2134L29.0084 11.217L29.017 11.2205L29.3884 10.292ZM28.0104 9.317L27.2435 9.95872L27.2506 9.96719L27.2579 9.9755L28.0104 9.317ZM27.2044 7.796L26.245 8.07819L26.249 8.09107L27.2044 7.796ZM27.4124 3.324L26.5009 2.91269L26.4968 2.92201L27.4124 3.324ZM28.8684 1.673L29.3829 2.5305L29.3862 2.5285L28.8684 1.673ZM33.8604 1.673L33.3376 2.52548L33.3459 2.53049L33.8604 1.673ZM35.3034 3.337L34.386 3.73492L34.3889 3.74162L34.3919 3.74829L35.3034 3.337ZM30.0254 8.602L30.6124 7.79239L30.6124 7.79239L30.0254 8.602ZM32.7164 8.602L32.1294 7.79233L32.1197 7.79954L32.7164 8.602ZM33.4704 7.523L32.5271 7.19109L32.5244 7.19891L32.5217 7.20677L33.4704 7.523ZM33.1714 3.545L32.3354 4.09366L32.3354 4.09366L33.1714 3.545ZM30.0254 3.09L29.4385 2.28039L29.4385 2.28039L30.0254 3.09ZM29.2584 4.169L28.3151 3.83709L29.2584 4.169ZM34.7844 5.846C34.7844 6.48151 34.704 7.03452 34.556 7.51393L36.4669 8.10407C36.6829 7.40482 36.7844 6.64915 36.7844 5.846H34.7844ZM34.5532 7.52296C34.4165 7.98079 34.2117 8.35648 33.9462 8.66621L35.4647 9.96779C35.9272 9.42818 36.2596 8.79855 36.4696 8.09503L34.5532 7.52296ZM33.9385 8.67528C33.6992 8.96127 33.3809 9.19359 32.956 9.36352L33.6988 11.2205C34.4007 10.9397 35.001 10.5221 35.4724 9.95872L33.9385 8.67528ZM32.9511 9.36553C32.5425 9.53149 32.0216 9.63 31.3644 9.63V11.63C32.2152 11.63 33.003 11.5032 33.7038 11.2185L32.9511 9.36553ZM31.3644 9.63C30.7078 9.63 30.1802 9.53167 29.7598 9.36352L29.017 11.2205C29.7233 11.503 30.513 11.63 31.3644 11.63V9.63ZM29.7771 9.37064C29.3495 9.19021 29.0185 8.95054 28.763 8.6585L27.2579 9.9755C27.7303 10.5155 28.3181 10.9258 28.9997 11.2134L29.7771 9.37064ZM28.7774 8.67528C28.5165 8.3635 28.3072 7.97781 28.1599 7.50093L26.249 8.09107C26.4657 8.79286 26.7937 9.42117 27.2435 9.95872L28.7774 8.67528ZM28.1638 7.51383C28.0216 7.03021 27.9444 6.4727 27.9444 5.833H25.9444C25.9444 6.63197 26.0406 7.38312 26.2451 8.07817L28.1638 7.51383ZM27.9444 5.833C27.9444 4.97719 28.0833 4.28345 28.3281 3.72599L26.4968 2.92201C26.1175 3.78588 25.9444 4.76481 25.9444 5.833H27.9444ZM28.3239 3.73529C28.5634 3.20468 28.9129 2.81253 29.3829 2.53049L28.3539 0.815507C27.524 1.31347 26.9028 2.02199 26.5009 2.91271L28.3239 3.73529ZM29.3862 2.5285C29.8466 2.24984 30.4896 2.075 31.3774 2.075V0.0749997C30.2373 0.0749997 29.2076 0.298827 28.3506 0.8175L29.3862 2.5285ZM31.3774 2.075C32.2556 2.075 32.8875 2.24939 33.3376 2.52544L34.3833 0.820562C33.5333 0.299273 32.51 0.0749997 31.3774 0.0749997V2.075ZM33.3459 2.53049C33.8105 2.80923 34.154 3.20005 34.386 3.73492L36.2209 2.93908C35.8288 2.03529 35.2104 1.31677 34.3749 0.815507L33.3459 2.53049ZM34.3919 3.74829C34.6423 4.30315 34.7844 4.9935 34.7844 5.846H36.7844C36.7844 4.7745 36.6059 3.79218 36.2149 2.92571L34.3919 3.74829ZM28.0114 5.846C28.0114 6.57595 28.1033 7.25298 28.3151 7.85491L30.2017 7.19109C30.0842 6.85702 30.0114 6.41605 30.0114 5.846H28.0114ZM28.3151 7.85491C28.5362 8.48332 28.9022 9.02285 29.4385 9.41161L30.6124 7.79239C30.4553 7.67849 30.31 7.49868 30.2017 7.19109L28.3151 7.85491ZM29.4385 9.41161C29.9976 9.817 30.6659 9.979 31.3644 9.979V7.979C30.971 7.979 30.7466 7.88967 30.6124 7.79239L29.4385 9.41161ZM31.3644 9.979C32.0708 9.979 32.7527 9.82118 33.3131 9.40446L32.1197 7.79954C32.0041 7.88548 31.7847 7.979 31.3644 7.979V9.979ZM33.3034 9.41161C33.844 9.01964 34.2075 8.47421 34.4191 7.83923L32.5217 7.20677C32.4214 7.50779 32.2821 7.68169 32.1295 7.79239L33.3034 9.41161ZM34.4137 7.85491C34.6255 7.25298 34.7174 6.57595 34.7174 5.846H32.7174C32.7174 6.41604 32.6447 6.85702 32.5271 7.19109L34.4137 7.85491ZM34.7174 5.846C34.7174 4.75921 34.518 3.77433 34.0075 2.99634L32.3354 4.09366C32.5528 4.425 32.7174 4.97412 32.7174 5.846H34.7174ZM34.0075 2.99634C33.411 2.08738 32.4491 1.713 31.3774 1.713V3.713C31.9697 3.713 32.2039 3.89328 32.3354 4.09366L34.0075 2.99634ZM31.3774 1.713C30.6741 1.713 30.0001 1.8732 29.4385 2.28039L30.6124 3.89961C30.7441 3.80413 30.9714 3.713 31.3774 3.713V1.713ZM29.4385 2.28039C28.9022 2.66915 28.5362 3.20868 28.3151 3.83709L30.2017 4.50091C30.31 4.19332 30.4553 4.01351 30.6124 3.89961L29.4385 2.28039ZM28.3151 3.83709C28.1033 4.43902 28.0114 5.11605 28.0114 5.846H30.0114C30.0114 5.27595 30.0842 4.83498 30.2017 4.50091L28.3151 3.83709ZM42.4911 1.53L42.1351 2.46458L42.1482 2.46936L42.4911 1.53ZM43.7131 2.453L42.873 2.99555L42.8783 3.00359L43.7131 2.453ZM43.8691 5.118L42.9795 4.66117L42.9747 4.67079L43.8691 5.118ZM43.2321 5.924L43.8723 6.69223L43.8747 6.69019L43.2321 5.924ZM42.3871 6.457L41.9713 5.54753L40.8978 6.03831L41.5584 7.01661L42.3871 6.457ZM45.1171 10.5V11.5H46.999L45.9459 9.94039L45.1171 10.5ZM42.9331 10.5L42.0834 11.0272L42.3767 11.5H42.9331V10.5ZM40.7231 6.938L41.5728 6.41079L41.2795 5.938H40.7231V6.938ZM39.6701 6.938V5.938H38.6701V6.938H39.6701ZM39.6701 10.5V11.5H40.6701V10.5H39.6701ZM37.7071 10.5H36.7071V11.5H37.7071V10.5ZM37.7071 1.218V0.217999H36.7071V1.218H37.7071ZM39.6701 2.83V1.83H38.6701V2.83H39.6701ZM39.6701 5.339H38.6701V6.339H39.6701V5.339ZM41.6981 5.014L41.0943 4.21691L41.0883 4.2214L41.0825 4.22598L41.6981 5.014ZM41.9191 3.35L41.1054 3.93124L41.1212 3.95341L41.1382 3.97469L41.9191 3.35ZM41.3081 2.96L41.0011 3.91171L41.0191 3.91752L41.0374 3.92265L41.3081 2.96ZM40.4111 2.218C41.179 2.218 41.741 2.31433 42.1351 2.46449L42.8471 0.595511C42.1493 0.329665 41.3245 0.217999 40.4111 0.217999V2.218ZM42.1482 2.46936C42.5265 2.60748 42.7421 2.79278 42.8731 2.99553L44.5531 1.91047C44.1468 1.28122 43.5477 0.851182 42.834 0.590642L42.1482 2.46936ZM42.8783 3.00359C43.0128 3.20749 43.1161 3.51755 43.1161 4H45.1161C45.1161 3.23445 44.9507 2.51317 44.5479 1.90241L42.8783 3.00359ZM43.1161 4C43.1161 4.294 43.0598 4.50499 42.9795 4.66119L44.7587 5.5748C45.0078 5.08968 45.1161 4.55533 45.1161 4H43.1161ZM42.9747 4.67079C42.8802 4.85969 42.7538 5.01997 42.5895 5.15781L43.8747 6.69019C44.2477 6.37736 44.546 6.00031 44.7635 5.56521L42.9747 4.67079ZM42.5919 5.15578C42.3991 5.31645 42.1927 5.44632 41.9713 5.54753L42.8029 7.36647C43.1881 7.19035 43.5451 6.96488 43.8723 6.69222L42.5919 5.15578ZM41.5584 7.01661L44.2884 11.0596L45.9459 9.94039L43.2159 5.89739L41.5584 7.01661ZM45.1171 9.5H42.9331V11.5H45.1171V9.5ZM43.7828 9.97279L41.5728 6.41079L39.8734 7.46521L42.0834 11.0272L43.7828 9.97279ZM40.7231 5.938H39.6701V7.938H40.7231V5.938ZM38.6701 6.938V10.5H40.6701V6.938H38.6701ZM39.6701 9.5H37.7071V11.5H39.6701V9.5ZM38.7071 10.5V1.218H36.7071V10.5H38.7071ZM37.7071 2.218H40.4111V0.217999H37.7071V2.218ZM40.2681 1.83H39.6701V3.83H40.2681V1.83ZM38.6701 2.83V5.339H40.6701V2.83H38.6701ZM39.6701 6.339H40.3071V4.339H39.6701V6.339ZM40.3071 6.339C41.0152 6.339 41.7642 6.23139 42.3138 5.80202L41.0825 4.22598C41.091 4.21928 41.0526 4.2518 40.9148 4.28398C40.7791 4.3157 40.5812 4.339 40.3071 4.339V6.339ZM42.302 5.81109C42.885 5.36943 43.1271 4.72496 43.1271 4.052H41.1271C41.1271 4.15281 41.1102 4.19549 41.1066 4.20372C41.1054 4.20621 41.1047 4.20742 41.1045 4.20772C41.1044 4.20802 41.1043 4.20805 41.1043 4.20807C41.1043 4.2081 41.1038 4.20872 41.1025 4.20997C41.1012 4.21125 41.0986 4.21361 41.0943 4.21691L42.302 5.81109ZM43.1271 4.052C43.1271 3.60481 43.0209 3.12652 42.7 2.72531L41.1382 3.97469C41.1191 3.95079 41.1147 3.93419 41.1163 3.93959C41.1187 3.94759 41.1271 3.98163 41.1271 4.052H43.1271ZM42.7328 2.76876C42.4365 2.35385 42.0113 2.11899 41.5789 1.99735L41.0374 3.92265C41.0991 3.94002 41.1258 3.95574 41.1308 3.95892C41.133 3.96034 41.1304 3.95887 41.1248 3.95367C41.1191 3.94836 41.1122 3.94081 41.1054 3.93124L42.7328 2.76876ZM41.6151 2.00829C41.2107 1.87783 40.75 1.83 40.2681 1.83V3.83C40.6356 3.83 40.8682 3.86884 41.0011 3.91171L41.6151 2.00829Z" fill="black" mask="url(#path-1-outside-1_1137_1378)"/>
</svg>
