<svg width="49" height="12" viewBox="0 0 49 12" fill="none" xmlns="http://www.w3.org/2000/svg">
<mask id="path-1-outside-1_1137_1372" maskUnits="userSpaceOnUse" x="0" y="-0.5" width="49" height="13" fill="black">
<rect fill="white" y="-0.5" width="49" height="13"/>
<path d="M5.693 5.287H9.372V10.097C8.88667 10.2617 8.37967 10.3917 7.851 10.487C7.331 10.5823 6.73733 10.63 6.07 10.63C5.15133 10.63 4.367 10.448 3.717 10.084C3.07567 9.72 2.586 9.18267 2.248 8.472C1.91867 7.76133 1.754 6.886 1.754 5.846C1.754 4.87533 1.94033 4.03467 2.313 3.324C2.69433 2.61333 3.24467 2.063 3.964 1.673C4.68333 1.283 5.563 1.088 6.603 1.088C7.097 1.088 7.58233 1.14 8.059 1.244C8.53567 1.348 8.969 1.48667 9.359 1.66L8.709 3.233C8.423 3.08567 8.098 2.96433 7.734 2.869C7.37 2.77367 6.98867 2.726 6.59 2.726C6.018 2.726 5.51967 2.856 5.095 3.116C4.679 3.376 4.354 3.74433 4.12 4.221C3.89467 4.689 3.782 5.24367 3.782 5.885C3.782 6.49167 3.86433 7.029 4.029 7.497C4.19367 7.965 4.45367 8.33333 4.809 8.602C5.16433 8.862 5.628 8.992 6.2 8.992C6.47733 8.992 6.71133 8.979 6.902 8.953C7.10133 8.927 7.28333 8.89667 7.448 8.862V6.925H5.693V5.287ZM14.2812 1.218C15.1219 1.218 15.8152 1.322 16.3612 1.53C16.9072 1.72933 17.3146 2.037 17.5832 2.453C17.8519 2.86033 17.9862 3.376 17.9862 4C17.9862 4.42467 17.9039 4.79733 17.7392 5.118C17.5832 5.43 17.3709 5.69867 17.1022 5.924C16.8422 6.14067 16.5606 6.31833 16.2572 6.457L18.9872 10.5H16.8032L14.5932 6.938H13.5402V10.5H11.5772V1.218H14.2812ZM14.1382 2.83H13.5402V5.339H14.1772C14.8272 5.339 15.2909 5.23067 15.5682 5.014C15.8542 4.79733 15.9972 4.47667 15.9972 4.052C15.9972 3.75733 15.9279 3.52333 15.7892 3.35C15.6592 3.168 15.4556 3.038 15.1782 2.96C14.9096 2.87333 14.5629 2.83 14.1382 2.83ZM25.8403 10.5L25.1643 8.29H21.7843L21.1083 10.5H18.9893L22.2653 1.179H24.6703L27.9593 10.5H25.8403ZM24.0203 4.481C23.9769 4.33367 23.9206 4.14733 23.8513 3.922C23.7819 3.69667 23.7126 3.467 23.6433 3.233C23.5739 2.999 23.5176 2.79533 23.4743 2.622C23.4309 2.79533 23.3703 3.012 23.2923 3.272C23.2229 3.52333 23.1536 3.766 23.0843 4C23.0236 4.22533 22.9759 4.38567 22.9413 4.481L22.2783 6.639H24.6963L24.0203 4.481ZM37.3638 10.5H34.8678L30.8248 3.48H30.7728C30.7902 3.77467 30.8032 4.06933 30.8118 4.364C30.8292 4.65867 30.8422 4.95333 30.8508 5.248C30.8682 5.54267 30.8812 5.83733 30.8898 6.132V10.5H29.1348V1.218H31.6178L35.6478 8.173H35.6868C35.6782 7.887 35.6695 7.601 35.6608 7.315C35.6522 7.029 35.6392 6.74733 35.6218 6.47C35.6132 6.184 35.6045 5.898 35.5958 5.612V1.218H37.3638V10.5ZM47.406 5.768C47.406 6.808 47.2067 7.679 46.808 8.381C46.4094 9.083 45.8287 9.61167 45.066 9.967C44.312 10.3223 43.402 10.5 42.336 10.5H39.71V1.218H42.622C43.5927 1.218 44.4334 1.39133 45.144 1.738C45.8634 2.08467 46.418 2.596 46.808 3.272C47.2067 3.93933 47.406 4.77133 47.406 5.768ZM45.365 5.82C45.365 5.13533 45.2654 4.572 45.066 4.13C44.8667 3.688 44.5677 3.363 44.169 3.155C43.779 2.93833 43.298 2.83 42.726 2.83H41.673V8.875H42.518C43.48 8.875 44.195 8.61933 44.663 8.108C45.131 7.59667 45.365 6.834 45.365 5.82Z"/>
</mask>
<path d="M5.693 5.287H9.372V10.097C8.88667 10.2617 8.37967 10.3917 7.851 10.487C7.331 10.5823 6.73733 10.63 6.07 10.63C5.15133 10.63 4.367 10.448 3.717 10.084C3.07567 9.72 2.586 9.18267 2.248 8.472C1.91867 7.76133 1.754 6.886 1.754 5.846C1.754 4.87533 1.94033 4.03467 2.313 3.324C2.69433 2.61333 3.24467 2.063 3.964 1.673C4.68333 1.283 5.563 1.088 6.603 1.088C7.097 1.088 7.58233 1.14 8.059 1.244C8.53567 1.348 8.969 1.48667 9.359 1.66L8.709 3.233C8.423 3.08567 8.098 2.96433 7.734 2.869C7.37 2.77367 6.98867 2.726 6.59 2.726C6.018 2.726 5.51967 2.856 5.095 3.116C4.679 3.376 4.354 3.74433 4.12 4.221C3.89467 4.689 3.782 5.24367 3.782 5.885C3.782 6.49167 3.86433 7.029 4.029 7.497C4.19367 7.965 4.45367 8.33333 4.809 8.602C5.16433 8.862 5.628 8.992 6.2 8.992C6.47733 8.992 6.71133 8.979 6.902 8.953C7.10133 8.927 7.28333 8.89667 7.448 8.862V6.925H5.693V5.287ZM14.2812 1.218C15.1219 1.218 15.8152 1.322 16.3612 1.53C16.9072 1.72933 17.3146 2.037 17.5832 2.453C17.8519 2.86033 17.9862 3.376 17.9862 4C17.9862 4.42467 17.9039 4.79733 17.7392 5.118C17.5832 5.43 17.3709 5.69867 17.1022 5.924C16.8422 6.14067 16.5606 6.31833 16.2572 6.457L18.9872 10.5H16.8032L14.5932 6.938H13.5402V10.5H11.5772V1.218H14.2812ZM14.1382 2.83H13.5402V5.339H14.1772C14.8272 5.339 15.2909 5.23067 15.5682 5.014C15.8542 4.79733 15.9972 4.47667 15.9972 4.052C15.9972 3.75733 15.9279 3.52333 15.7892 3.35C15.6592 3.168 15.4556 3.038 15.1782 2.96C14.9096 2.87333 14.5629 2.83 14.1382 2.83ZM25.8403 10.5L25.1643 8.29H21.7843L21.1083 10.5H18.9893L22.2653 1.179H24.6703L27.9593 10.5H25.8403ZM24.0203 4.481C23.9769 4.33367 23.9206 4.14733 23.8513 3.922C23.7819 3.69667 23.7126 3.467 23.6433 3.233C23.5739 2.999 23.5176 2.79533 23.4743 2.622C23.4309 2.79533 23.3703 3.012 23.2923 3.272C23.2229 3.52333 23.1536 3.766 23.0843 4C23.0236 4.22533 22.9759 4.38567 22.9413 4.481L22.2783 6.639H24.6963L24.0203 4.481ZM37.3638 10.5H34.8678L30.8248 3.48H30.7728C30.7902 3.77467 30.8032 4.06933 30.8118 4.364C30.8292 4.65867 30.8422 4.95333 30.8508 5.248C30.8682 5.54267 30.8812 5.83733 30.8898 6.132V10.5H29.1348V1.218H31.6178L35.6478 8.173H35.6868C35.6782 7.887 35.6695 7.601 35.6608 7.315C35.6522 7.029 35.6392 6.74733 35.6218 6.47C35.6132 6.184 35.6045 5.898 35.5958 5.612V1.218H37.3638V10.5ZM47.406 5.768C47.406 6.808 47.2067 7.679 46.808 8.381C46.4094 9.083 45.8287 9.61167 45.066 9.967C44.312 10.3223 43.402 10.5 42.336 10.5H39.71V1.218H42.622C43.5927 1.218 44.4334 1.39133 45.144 1.738C45.8634 2.08467 46.418 2.596 46.808 3.272C47.2067 3.93933 47.406 4.77133 47.406 5.768ZM45.365 5.82C45.365 5.13533 45.2654 4.572 45.066 4.13C44.8667 3.688 44.5677 3.363 44.169 3.155C43.779 2.93833 43.298 2.83 42.726 2.83H41.673V8.875H42.518C43.48 8.875 44.195 8.61933 44.663 8.108C45.131 7.59667 45.365 6.834 45.365 5.82Z" fill="white"/>
<path d="M5.693 5.287V4.287H4.693V5.287H5.693ZM9.372 5.287H10.372V4.287H9.372V5.287ZM9.372 10.097L9.6933 11.044L10.372 10.8137V10.097H9.372ZM7.851 10.487L7.67353 9.50287L7.67067 9.50339L7.851 10.487ZM3.717 10.084L3.22339 10.9537L3.2284 10.9565L3.717 10.084ZM2.248 8.472L1.34064 8.89248L1.34494 8.90151L2.248 8.472ZM2.313 3.324L1.4318 2.85116L1.42738 2.85959L2.313 3.324ZM8.059 1.244L7.84583 2.22102L7.84583 2.22102L8.059 1.244ZM9.359 1.66L10.2832 2.0419L10.6552 1.14176L9.76514 0.746189L9.359 1.66ZM8.709 3.233L8.25104 4.12197L9.21786 4.62003L9.6332 3.6149L8.709 3.233ZM7.734 2.869L7.48064 3.83637L7.48064 3.83637L7.734 2.869ZM5.095 3.116L4.57282 2.26311L4.565 2.268L5.095 3.116ZM4.12 4.221L3.22231 3.78031L3.219 3.78718L4.12 4.221ZM4.029 7.497L3.08569 7.82891L3.08569 7.82891L4.029 7.497ZM4.809 8.602L4.20589 9.39966L4.21215 9.40439L4.21849 9.40903L4.809 8.602ZM6.902 8.953L6.77266 7.96138L6.76689 7.96217L6.902 8.953ZM7.448 8.862L7.65401 9.84055L8.448 9.67339V8.862H7.448ZM7.448 6.925H8.448V5.925H7.448V6.925ZM5.693 6.925H4.693V7.925H5.693V6.925ZM5.693 6.287H9.372V4.287H5.693V6.287ZM8.372 5.287V10.097H10.372V5.287H8.372ZM9.0507 9.15002C8.61452 9.29801 8.15573 9.41592 7.67353 9.50287L8.02847 11.4711C8.6036 11.3674 9.15882 11.2253 9.6933 11.044L9.0507 9.15002ZM7.67067 9.50339C7.22324 9.58542 6.69178 9.63 6.07 9.63V11.63C6.78289 11.63 7.43876 11.5792 8.03133 11.4706L7.67067 9.50339ZM6.07 9.63C5.28294 9.63 4.67529 9.47452 4.2056 9.21149L3.2284 10.9565C4.05871 11.4215 5.01972 11.63 6.07 11.63V9.63ZM4.21061 9.21431C3.75992 8.95852 3.4072 8.58104 3.15106 8.04249L1.34494 8.90151C1.7648 9.78429 2.39141 10.4815 3.22339 10.9537L4.21061 9.21431ZM3.15531 8.05154C2.90359 7.50836 2.754 6.78612 2.754 5.846H0.754C0.754 6.98588 0.933739 8.0143 1.34069 8.89246L3.15531 8.05154ZM2.754 5.846C2.754 5.00351 2.91527 4.32874 3.19862 3.78841L1.42738 2.85959C0.965393 3.74059 0.754 4.74715 0.754 5.846H2.754ZM3.19416 3.79682C3.48178 3.26081 3.89025 2.8505 4.44062 2.55211L3.48738 0.793893C2.59909 1.2755 1.90689 1.96586 1.43184 2.85118L3.19416 3.79682ZM4.44062 2.55211C4.97922 2.2601 5.68536 2.088 6.603 2.088V0.0879995C5.44064 0.0879995 4.38745 0.305902 3.48738 0.793893L4.44062 2.55211ZM6.603 2.088C7.02623 2.088 7.44007 2.13249 7.84583 2.22102L8.27217 0.266984C7.7246 0.147514 7.16777 0.0879995 6.603 0.0879995V2.088ZM7.84583 2.22102C8.26542 2.31256 8.63294 2.43163 8.95286 2.57381L9.76514 0.746189C9.30506 0.541707 8.80591 0.383437 8.27217 0.266984L7.84583 2.22102ZM8.4348 1.2781L7.7848 2.8511L9.6332 3.6149L10.2832 2.0419L8.4348 1.2781ZM9.16696 2.34403C8.80596 2.15806 8.41061 2.01248 7.98736 1.90163L7.48064 3.83637C7.78539 3.91619 8.04004 4.01327 8.25104 4.12197L9.16696 2.34403ZM7.98736 1.90163C7.53588 1.78338 7.06909 1.726 6.59 1.726V3.726C6.90824 3.726 7.20412 3.76395 7.48064 3.83637L7.98736 1.90163ZM6.59 1.726C5.86167 1.726 5.17693 1.8933 4.57285 2.26315L5.61715 3.96885C5.86241 3.8187 6.17433 3.726 6.59 3.726V1.726ZM4.565 2.268C3.97785 2.63497 3.53147 3.15059 3.22233 3.78033L5.01767 4.66167C5.17653 4.33807 5.38015 4.11703 5.625 3.964L4.565 2.268ZM3.219 3.78718C2.91503 4.41849 2.782 5.12795 2.782 5.885H4.782C4.782 5.35938 4.8743 4.95951 5.021 4.65482L3.219 3.78718ZM2.782 5.885C2.782 6.5804 2.8762 7.23352 3.08569 7.82891L4.97231 7.16509C4.85247 6.82448 4.782 6.40294 4.782 5.885H2.782ZM3.08569 7.82891C3.30786 8.46035 3.67636 8.99928 4.20589 9.39966L5.41211 7.80434C5.23097 7.66738 5.07947 7.46965 4.97231 7.16509L3.08569 7.82891ZM4.21849 9.40903C4.79014 9.82731 5.47913 9.992 6.2 9.992V7.992C5.77687 7.992 5.53853 7.89669 5.39951 7.79497L4.21849 9.40903ZM6.2 9.992C6.50465 9.992 6.78689 9.97795 7.03711 9.94383L6.76689 7.96217C6.63577 7.98005 6.45001 7.992 6.2 7.992V9.992ZM7.03134 9.9446C7.25162 9.91587 7.45966 9.88147 7.65401 9.84055L7.24199 7.88345C7.10701 7.91187 6.95105 7.93813 6.77266 7.9614L7.03134 9.9446ZM8.448 8.862V6.925H6.448V8.862H8.448ZM7.448 5.925H5.693V7.925H7.448V5.925ZM6.693 6.925V5.287H4.693V6.925H6.693ZM16.3612 1.53L16.0052 2.46458L16.0183 2.46936L16.3612 1.53ZM17.5832 2.453L16.7431 2.99555L16.7485 3.00359L17.5832 2.453ZM17.7392 5.118L16.8496 4.66117L16.8448 4.67079L17.7392 5.118ZM17.1022 5.924L17.7424 6.69223L17.7448 6.69019L17.1022 5.924ZM16.2572 6.457L15.8415 5.54753L14.7679 6.03831L15.4285 7.01661L16.2572 6.457ZM18.9872 10.5V11.5H20.8691L19.816 9.94039L18.9872 10.5ZM16.8032 10.5L15.9535 11.0272L16.2468 11.5H16.8032V10.5ZM14.5932 6.938L15.443 6.41079L15.1496 5.938H14.5932V6.938ZM13.5402 6.938V5.938H12.5402V6.938H13.5402ZM13.5402 10.5V11.5H14.5402V10.5H13.5402ZM11.5772 10.5H10.5772V11.5H11.5772V10.5ZM11.5772 1.218V0.217999H10.5772V1.218H11.5772ZM13.5402 2.83V1.83H12.5402V2.83H13.5402ZM13.5402 5.339H12.5402V6.339H13.5402V5.339ZM15.5682 5.014L14.9644 4.21691L14.9584 4.2214L14.9526 4.22598L15.5682 5.014ZM15.7892 3.35L14.9755 3.93124L14.9913 3.95341L15.0084 3.97469L15.7892 3.35ZM15.1782 2.96L14.8712 3.91171L14.8892 3.91752L14.9075 3.92265L15.1782 2.96ZM14.2812 2.218C15.0491 2.218 15.6111 2.31433 16.0052 2.46449L16.7172 0.595511C16.0194 0.329665 15.1947 0.217999 14.2812 0.217999V2.218ZM16.0183 2.46936C16.3966 2.60748 16.6122 2.79278 16.7432 2.99553L18.4233 1.91047C18.0169 1.28122 17.4178 0.851182 16.7042 0.590642L16.0183 2.46936ZM16.7485 3.00359C16.8829 3.20749 16.9862 3.51755 16.9862 4H18.9862C18.9862 3.23445 18.8208 2.51317 18.418 1.90241L16.7485 3.00359ZM16.9862 4C16.9862 4.294 16.9299 4.50499 16.8497 4.66119L18.6288 5.5748C18.8779 5.08968 18.9862 4.55533 18.9862 4H16.9862ZM16.8448 4.67079C16.7503 4.85969 16.624 5.01997 16.4596 5.15781L17.7448 6.69019C18.1178 6.37736 18.4161 6.00031 18.6337 5.56521L16.8448 4.67079ZM16.462 5.15578C16.2692 5.31645 16.0629 5.44632 15.8415 5.54753L16.673 7.36647C17.0583 7.19035 17.4152 6.96488 17.7424 6.69222L16.462 5.15578ZM15.4285 7.01661L18.1585 11.0596L19.816 9.94039L17.086 5.89739L15.4285 7.01661ZM18.9872 9.5H16.8032V11.5H18.9872V9.5ZM17.653 9.97279L15.443 6.41079L13.7435 7.46521L15.9535 11.0272L17.653 9.97279ZM14.5932 5.938H13.5402V7.938H14.5932V5.938ZM12.5402 6.938V10.5H14.5402V6.938H12.5402ZM13.5402 9.5H11.5772V11.5H13.5402V9.5ZM12.5772 10.5V1.218H10.5772V10.5H12.5772ZM11.5772 2.218H14.2812V0.217999H11.5772V2.218ZM14.1382 1.83H13.5402V3.83H14.1382V1.83ZM12.5402 2.83V5.339H14.5402V2.83H12.5402ZM13.5402 6.339H14.1772V4.339H13.5402V6.339ZM14.1772 6.339C14.8853 6.339 15.6343 6.23139 16.1839 5.80202L14.9526 4.22598C14.9612 4.21928 14.9227 4.2518 14.785 4.28398C14.6492 4.3157 14.4514 4.339 14.1772 4.339V6.339ZM16.1721 5.81109C16.7551 5.36943 16.9972 4.72496 16.9972 4.052H14.9972C14.9972 4.15281 14.9803 4.19549 14.9767 4.20372C14.9756 4.20621 14.9748 4.20742 14.9747 4.20772C14.9745 4.20802 14.9744 4.20805 14.9744 4.20807C14.9744 4.2081 14.9739 4.20872 14.9726 4.20997C14.9713 4.21125 14.9687 4.21361 14.9644 4.21691L16.1721 5.81109ZM16.9972 4.052C16.9972 3.60481 16.8911 3.12652 16.5701 2.72531L15.0084 3.97469C14.9892 3.95079 14.9848 3.93419 14.9864 3.93959C14.9888 3.94759 14.9972 3.98163 14.9972 4.052H16.9972ZM16.603 2.76876C16.3066 2.35385 15.8815 2.11899 15.449 1.99735L14.9075 3.92265C14.9692 3.94002 14.996 3.95574 15.0009 3.95892C15.0032 3.96034 15.0005 3.95887 14.9949 3.95367C14.9892 3.94836 14.9823 3.94081 14.9755 3.93124L16.603 2.76876ZM15.4852 2.00829C15.0808 1.87783 14.6201 1.83 14.1382 1.83V3.83C14.5057 3.83 14.7383 3.86884 14.8712 3.91171L15.4852 2.00829ZM25.8403 10.5L24.884 10.7925L25.1004 11.5H25.8403V10.5ZM25.1643 8.29L26.1205 7.9975L25.9041 7.29H25.1643V8.29ZM21.7843 8.29V7.29H21.0444L20.828 7.9975L21.7843 8.29ZM21.1083 10.5V11.5H21.8481L22.0645 10.7925L21.1083 10.5ZM18.9893 10.5L18.0458 10.1684L17.5778 11.5H18.9893V10.5ZM22.2653 1.179V0.179H21.5568L21.3218 0.847419L22.2653 1.179ZM24.6703 1.179L25.6133 0.846249L25.3778 0.179H24.6703V1.179ZM27.9593 10.5V11.5H29.3725L28.9023 10.1672L27.9593 10.5ZM24.0203 4.481L23.0609 4.76317L23.0634 4.77157L23.066 4.77993L24.0203 4.481ZM23.8513 3.922L22.8955 4.21609L22.8955 4.21609L23.8513 3.922ZM23.6433 3.233L22.6845 3.51709L22.6845 3.51709L23.6433 3.233ZM23.4743 2.622L24.4444 2.37946L22.5041 2.37946L23.4743 2.622ZM23.2923 3.272L22.3344 2.98465L22.3312 2.99533L22.3283 3.00607L23.2923 3.272ZM23.0843 4L22.1255 3.71591L22.1219 3.72793L22.1186 3.74003L23.0843 4ZM22.9413 4.481L22.0015 4.13926L21.9928 4.16308L21.9854 4.18732L22.9413 4.481ZM22.2783 6.639L21.3224 6.34532L20.9249 7.639H22.2783V6.639ZM24.6963 6.639V7.639H26.0574L25.6505 6.34007L24.6963 6.639ZM26.7965 10.2075L26.1205 7.9975L24.208 8.5825L24.884 10.7925L26.7965 10.2075ZM25.1643 7.29H21.7843V9.29H25.1643V7.29ZM20.828 7.9975L20.152 10.2075L22.0645 10.7925L22.7405 8.5825L20.828 7.9975ZM21.1083 9.5H18.9893V11.5H21.1083V9.5ZM19.9327 10.8316L23.2087 1.51058L21.3218 0.847419L18.0458 10.1684L19.9327 10.8316ZM22.2653 2.179H24.6703V0.179H22.2653V2.179ZM23.7272 1.51175L27.0162 10.8328L28.9023 10.1672L25.6133 0.846249L23.7272 1.51175ZM27.9593 9.5H25.8403V11.5H27.9593V9.5ZM24.9796 4.19883C24.9347 4.04602 24.877 3.85536 24.807 3.62791L22.8955 4.21609C22.9642 4.4393 23.0192 4.62132 23.0609 4.76317L24.9796 4.19883ZM24.807 3.62791C24.7388 3.40602 24.6704 3.17969 24.6021 2.94891L22.6845 3.51709C22.7547 3.75431 22.8251 3.98731 22.8955 4.21609L24.807 3.62791ZM24.6021 2.94891C24.5354 2.72409 24.4833 2.53489 24.4444 2.37946L22.5041 2.86454C22.5519 3.05578 22.6124 3.27391 22.6845 3.51709L24.6021 2.94891ZM22.5041 2.37946C22.4659 2.53221 22.41 2.73274 22.3344 2.98465L24.2501 3.55935C24.3305 3.29126 24.3959 3.05846 24.4444 2.86454L22.5041 2.37946ZM22.3283 3.00607C22.2605 3.25174 22.1929 3.48834 22.1255 3.71591L24.0431 4.28409C24.1143 4.04366 24.1854 3.79492 24.2563 3.53793L22.3283 3.00607ZM22.1186 3.74003C22.0584 3.96383 22.0202 4.08782 22.0015 4.13926L23.8811 4.82274C23.9317 4.68351 23.9888 4.48684 24.0499 4.25997L22.1186 3.74003ZM21.9854 4.18732L21.3224 6.34532L23.2342 6.93268L23.8972 4.77468L21.9854 4.18732ZM22.2783 7.639H24.6963V5.639H22.2783V7.639ZM25.6505 6.34007L24.9745 4.18207L23.066 4.77993L23.742 6.93793L25.6505 6.34007ZM37.3638 10.5V11.5H38.3638V10.5H37.3638ZM34.8678 10.5L34.0013 10.9991L34.2898 11.5H34.8678V10.5ZM30.8248 3.48L31.6914 2.98093L31.4029 2.48H30.8248V3.48ZM30.7728 3.48V2.48H29.7123L29.7746 3.53872L30.7728 3.48ZM30.8118 4.364L29.8123 4.3934L29.8127 4.40807L29.8136 4.42272L30.8118 4.364ZM30.8508 5.248L29.8513 5.2774L29.8517 5.29207L29.8526 5.30672L30.8508 5.248ZM30.8898 6.132H31.8898V6.1173L31.8894 6.1026L30.8898 6.132ZM30.8898 10.5V11.5H31.8898V10.5H30.8898ZM29.1348 10.5H28.1348V11.5H29.1348V10.5ZM29.1348 1.218V0.217999H28.1348V1.218H29.1348ZM31.6178 1.218L32.4831 0.716644L32.1942 0.217999H31.6178V1.218ZM35.6478 8.173L34.7826 8.67435L35.0715 9.173H35.6478V8.173ZM35.6868 8.173V9.173H36.7176L36.6864 8.14271L35.6868 8.173ZM35.6608 7.315L34.6613 7.34529L34.6613 7.34529L35.6608 7.315ZM35.6218 6.47L34.6223 6.50029L34.6228 6.51635L34.6238 6.53238L35.6218 6.47ZM35.5958 5.612H34.5958V5.62715L34.5963 5.64229L35.5958 5.612ZM35.5958 1.218V0.217999H34.5958V1.218H35.5958ZM37.3638 1.218H38.3638V0.217999H37.3638V1.218ZM37.3638 9.5H34.8678V11.5H37.3638V9.5ZM35.7344 10.0009L31.6914 2.98093L29.9583 3.97907L34.0013 10.9991L35.7344 10.0009ZM30.8248 2.48H30.7728V4.48H30.8248V2.48ZM29.7746 3.53872C29.7913 3.82363 29.8039 4.10852 29.8123 4.3934L31.8114 4.3346C31.8025 4.03014 31.789 3.7257 31.7711 3.42128L29.7746 3.53872ZM29.8136 4.42272C29.8303 4.70763 29.8429 4.99252 29.8513 5.2774L31.8504 5.2186C31.8415 4.91414 31.828 4.6097 31.8101 4.30528L29.8136 4.42272ZM29.8526 5.30672C29.8693 5.59163 29.8819 5.87652 29.8903 6.1614L31.8894 6.1026C31.8805 5.79814 31.867 5.4937 31.8491 5.18928L29.8526 5.30672ZM29.8898 6.132V10.5H31.8898V6.132H29.8898ZM30.8898 9.5H29.1348V11.5H30.8898V9.5ZM30.1348 10.5V1.218H28.1348V10.5H30.1348ZM29.1348 2.218H31.6178V0.217999H29.1348V2.218ZM30.7526 1.71935L34.7826 8.67435L36.5131 7.67164L32.4831 0.716644L30.7526 1.71935ZM35.6478 9.173H35.6868V7.173H35.6478V9.173ZM36.6864 8.14271C36.6777 7.85671 36.6691 7.57071 36.6604 7.28471L34.6613 7.34529C34.67 7.63129 34.6786 7.91729 34.6873 8.20329L36.6864 8.14271ZM36.6604 7.28471C36.6514 6.98832 36.6379 6.69595 36.6199 6.40762L34.6238 6.53238C34.6404 6.79871 34.653 7.06968 34.6613 7.34529L36.6604 7.28471ZM36.6214 6.43971C36.6127 6.15371 36.6041 5.86771 36.5954 5.58171L34.5963 5.64229C34.605 5.92829 34.6136 6.21429 34.6223 6.50029L36.6214 6.43971ZM36.5958 5.612V1.218H34.5958V5.612H36.5958ZM35.5958 2.218H37.3638V0.217999H35.5958V2.218ZM36.3638 1.218V10.5H38.3638V1.218H36.3638ZM46.808 8.381L47.6776 8.87482L47.6776 8.87482L46.808 8.381ZM45.066 9.967L44.6437 9.06055L44.6397 9.06242L45.066 9.967ZM39.71 10.5H38.71V11.5H39.71V10.5ZM39.71 1.218V0.217999H38.71V1.218H39.71ZM45.144 1.738L44.7056 2.63678L44.7099 2.63884L45.144 1.738ZM46.808 3.272L45.9419 3.77172L45.9457 3.77832L45.9496 3.78485L46.808 3.272ZM45.066 4.13L45.9776 3.71889L45.066 4.13ZM44.169 3.155L43.6834 4.02916L43.6949 4.03552L43.7065 4.04158L44.169 3.155ZM41.673 2.83V1.83H40.673V2.83H41.673ZM41.673 8.875H40.673V9.875H41.673V8.875ZM44.663 8.108L43.9254 7.43284L43.9254 7.43284L44.663 8.108ZM46.406 5.768C46.406 6.68362 46.2304 7.37308 45.9385 7.88718L47.6776 8.87482C48.183 7.98492 48.406 6.93238 48.406 5.768H46.406ZM45.9385 7.88717C45.6469 8.40056 45.2265 8.78902 44.6437 9.06055L45.4884 10.8734C46.4309 10.4343 47.1718 9.76544 47.6776 8.87482L45.9385 7.88717ZM44.6397 9.06242C44.0508 9.33994 43.2943 9.5 42.336 9.5V11.5C43.5097 11.5 44.5732 11.3047 45.4923 10.8716L44.6397 9.06242ZM42.336 9.5H39.71V11.5H42.336V9.5ZM40.71 10.5V1.218H38.71V10.5H40.71ZM39.71 2.218H42.622V0.217999H39.71V2.218ZM42.622 2.218C43.4747 2.218 44.159 2.37014 44.7056 2.63677L45.5825 0.839231C44.7077 0.412527 43.7107 0.217999 42.622 0.217999V2.218ZM44.7099 2.63884C45.2526 2.90041 45.6547 3.27405 45.9419 3.77172L47.6742 2.77228C47.1813 1.91795 46.4741 1.26892 45.5782 0.837155L44.7099 2.63884ZM45.9496 3.78485C46.2329 4.25917 46.406 4.90185 46.406 5.768H48.406C48.406 4.64081 48.1805 3.6195 47.6665 2.75914L45.9496 3.78485ZM46.365 5.82C46.365 5.04793 46.2541 4.33186 45.9776 3.71889L44.1545 4.54111C44.2767 4.81214 44.365 5.22274 44.365 5.82H46.365ZM45.9776 3.71889C45.6938 3.08963 45.245 2.58845 44.6316 2.26842L43.7065 4.04158C43.8904 4.13755 44.0396 4.28637 44.1545 4.54111L45.9776 3.71889ZM44.6547 2.28084C44.08 1.96155 43.4212 1.83 42.726 1.83V3.83C43.1749 3.83 43.4781 3.91511 43.6834 4.02916L44.6547 2.28084ZM42.726 1.83H41.673V3.83H42.726V1.83ZM40.673 2.83V8.875H42.673V2.83H40.673ZM41.673 9.875H42.518V7.875H41.673V9.875ZM42.518 9.875C43.6482 9.875 44.6788 9.57191 45.4007 8.78316L43.9254 7.43284C43.7113 7.66675 43.3118 7.875 42.518 7.875V9.875ZM45.4007 8.78316C46.1012 8.01783 46.365 6.96998 46.365 5.82H44.365C44.365 6.69802 44.1609 7.17551 43.9254 7.43284L45.4007 8.78316Z" fill="black" mask="url(#path-1-outside-1_1137_1372)"/>
</svg>
